<svg width="347" height="373" viewBox="0 0 347 373" fill="none" xmlns="http://www.w3.org/2000/svg">
<path d="M14.1175 358.865C13.4187 358.757 12.7699 358.438 12.2586 357.95C11.7473 357.461 11.3983 356.828 11.2588 356.135C10.51 352.092 18.6337 334.511 18.6337 334.511C18.6337 334.511 14.2871 329.954 16.5647 321.392C17.4988 317.882 24.5305 302.954 29.3977 297.888C32.662 294.489 38.5627 291.184 43.4377 292.341C43.6327 292.385 42.2404 293.659 51.9962 282.13C62.7212 269.455 89.0111 247.888 111.19 237.783C134.466 227.179 173.706 218.478 208.495 224.65C254.866 232.889 284.982 259.68 304.322 280.252C312.06 280.145 318.723 286.251 323.822 292.068C331.868 301.233 339.216 312.039 339.723 324.225C340.083 327.736 339.185 331.26 337.188 334.17C339.498 339.735 341.468 345.435 343.086 351.238C343.236 351.818 343.267 352.422 343.178 353.015C343.089 353.607 342.882 354.175 342.57 354.686C342.256 355.196 341.843 355.638 341.354 355.986C340.866 356.333 340.313 356.579 339.729 356.708C314.802 362.232 185.741 387.43 14.1175 358.865Z" fill="white"/>
<path d="M323.862 304.089C322.907 304.844 336.333 323.055 328.769 323.831C328.658 321.283 327.992 318.79 326.819 316.526C324.652 312.02 315.314 299.936 313.083 297.467C311.112 295.066 308.432 293.351 305.427 292.565C306.726 285.233 316.932 296.034 317.737 294.905C318.081 294.392 310.979 286.085 306.17 287.848C303.44 288.793 301.685 292.467 303.192 296.704C305.601 303.508 321.117 322.32 322.107 323.3C324.666 325.701 327.39 327.353 330.666 326.177C340.137 321.325 324.617 303.483 323.862 304.089ZM317.427 313.135C314.502 309.397 305.792 298.783 305.355 294.045C310.308 295.679 313.44 301.322 318.523 308.009C322.033 312.769 326.409 317.829 327.158 323.573C323.685 322.283 320.161 316.479 317.437 313.135H317.427Z" fill="black"/>
<path d="M278.323 337.132C277.296 318.607 247.275 308.777 246.901 311.612C246.665 312.601 257.646 314.853 267.536 324.742C276.97 334.308 274.856 342.847 270.461 344.331C271.473 338.789 267.953 333.606 263.589 330.081C257.49 325.13 249.266 323.176 241.611 321.306C230.981 318.804 214.923 315.98 208.346 324.937C204.171 307.562 237.843 312.418 238.124 311.209C238.809 308.95 205.836 303.559 203.909 320.65C203.595 323.474 204.122 326.327 205.424 328.851C206.726 331.376 208.745 333.46 211.228 334.841C217.571 338.741 225.188 337.812 232.188 338.709C250.185 340.841 256.485 348.247 266.814 348.886C274.538 349.259 278.594 344.458 278.323 337.132ZM243.106 336.601C226.436 332.054 215.629 336.463 209.683 327.867C213.733 319.04 231.888 322.556 240.807 324.677C250.226 326.937 263.517 330.022 267.362 339.439C268.094 341.102 268.287 342.953 267.916 344.733C260.89 344.858 254.689 339.758 243.106 336.601Z" fill="black"/>
<path d="M197.506 267.4C193.048 259.37 179.471 260.493 179.734 261.838C179.781 262.365 182.382 262.293 186.144 263.439C190.473 264.804 196.05 267.86 194.88 272.273C194.047 275.67 194.47 272.895 187.165 269.9C176.977 265.662 161.02 267.244 156.271 274.42C154.052 270.192 157.367 266.62 161.611 264.516C165.082 262.921 170.581 261.097 165.721 261.326C148.466 262.338 148.887 279.279 160.589 281.514C164.986 282.354 169.613 281.032 176.709 281.034C181.9 280.945 189.384 282.947 194.488 278.714C198.585 275.426 199.419 270.732 197.506 267.4ZM176.706 277.561C166.996 277.561 161.496 279.96 157.492 276.046C161.382 270.436 179.137 266.696 192.9 275.492C188.844 279.365 182.928 277.52 176.706 277.561Z" fill="black"/>
<path d="M31.2453 314.163C27.2088 321.641 24.3969 327.994 23.5487 327.725C22.7687 327.473 24.3287 320.446 28.5114 312.685C32.6942 304.924 37.7544 299.781 38.3979 300.308C39.0804 300.879 35.2857 306.685 31.2453 314.163Z" fill="black"/>
<path d="M129.32 318.429C119.802 306.261 97.3597 317.936 98.3913 319.555C98.9139 320.485 112.966 314.358 121.899 317.708C126.992 320.065 127.119 322.657 124.954 325.508C124.344 326.313 122.187 324.034 114.229 324.125C100.293 324.238 85.3692 332.196 78.2614 343.411C74.6013 341.749 74.0221 339.088 75.6874 335.416C79.0375 328.029 88.5204 322.951 88.0563 322.017C87.366 320.391 69.1822 329.381 70.8963 340.648C72.2866 347.163 79.4158 349.169 86.6581 348.128C94.2534 346.964 138.308 332.549 129.32 318.429ZM80.7535 344.109C90.2656 332.565 107.995 324.956 122.741 327.774C115.475 334.102 89.8444 345.417 80.7535 344.109Z" fill="black"/>
<path d="M245.79 291.681C242.742 288.522 243.432 285.385 246.09 284.806C249.946 284.615 253.759 285.687 256.951 287.859C260.266 290.004 267.023 294.916 256.008 289.554C249.748 286.506 245.858 287.504 246.482 287.479C246.482 287.479 246.468 287.452 246.495 287.606C246.375 291.081 265.457 300.776 262.753 294.253C261.501 291.631 262.686 292.557 263.652 293.68C265.81 296.188 263.492 302.689 249.896 294.567C248.393 293.813 247.009 292.84 245.79 291.681Z" fill="black"/>
<path d="M100.564 284.184C95.6303 284.56 87.1673 287.776 89.868 291.88C92.2236 295.347 98.8692 294.189 103.017 293.263C114.67 290.472 114.276 283.341 100.564 284.184ZM108.82 288.733C104.604 291.687 86.2859 293.005 94.4154 288.431C102.422 283.924 113.525 285.432 108.82 288.733Z" fill="black"/>
<path d="M154.364 304.908C146.8 311.751 140.759 308.223 141.784 303.986C142.174 302.356 144.54 299.834 143.385 302.816C143.181 303.175 143.064 303.578 143.045 303.99C143.027 304.403 143.106 304.815 143.277 305.191C143.449 305.567 143.707 305.898 144.031 306.154C144.355 306.411 144.735 306.588 145.14 306.669C147.732 307.279 153.402 303.413 153.759 301.589C153.995 299.739 154.009 298.058 148.576 299.821C138.816 302.985 147.406 298.183 150.526 297.305C153.369 296.72 155.719 297.089 156.136 299.971C156.296 300.877 156.216 301.809 155.905 302.675C155.595 303.541 155.063 304.31 154.364 304.908Z" fill="black"/>
<path d="M47.5377 343.741C44.3085 341.159 48.3411 336.356 52.6428 334.576C56.0436 333.172 57.2389 334.661 56.9874 334.814C55.6981 334.905 54.4573 335.342 53.3955 336.079C48.6004 339.066 47.3505 342.998 50.6499 341.871C52.6862 341.023 54.5076 339.731 55.9812 338.089C56.4405 337.694 56.7787 337.176 56.9567 336.597C57.1347 336.017 57.1454 335.399 56.9874 334.814C57.1824 334.287 59.3098 335.984 57.3267 339.104C55.3435 342.224 50.3788 346.014 47.5377 343.741Z" fill="black"/>
<path d="M305.158 345.4C304.766 346.056 304.148 346.545 303.419 346.773C302.69 347.002 301.903 346.954 301.207 346.64C296.595 344.9 293.974 338.321 295.256 336.847C295.733 336.192 295.677 337.135 295.868 337.709C296.769 339.891 298.207 341.81 300.049 343.288C302.974 345.713 304.571 344.491 301.706 340.417C300.741 339.052 298.298 336.242 296.544 336.357C296.01 336.391 295.722 336.724 295.569 336.636C295.447 336.619 295.374 335.958 296.25 335.48C299.405 333.774 307.24 341.111 305.158 345.4Z" fill="black"/>
<path d="M193.7 330.909C191.795 325.68 192.22 322.17 192.485 322.187C193.226 322.099 194.63 338.015 209.312 343.832C215.735 346.381 222.601 346.387 229.477 347.685C234.841 348.699 237.872 350.367 237.729 350.651C237.579 351.018 234.463 350.019 229.212 349.495C218.902 348.469 200.541 349.672 193.7 330.909Z" fill="black"/>
<path d="M162.501 288.883C151.562 287.663 145.772 280.576 146.486 280.024C147.137 279.439 151.42 285.241 162.774 286.522C171.419 287.497 180.714 285.757 180.843 286.717C180.945 287.495 170.366 289.765 162.501 288.883Z" fill="black"/>
<path d="M135.408 334.335C127.967 343.036 112.773 349.84 112.239 348.582C111.888 347.753 125.655 341.127 133.104 332.383C137.875 326.783 138.357 321.758 135.876 316.261C134.316 312.788 131.879 309.668 132.275 309.332C132.795 308.888 147.118 320.644 135.408 334.335Z" fill="black"/>
<path d="M249.513 301.593C243.23 298.456 239.449 293.302 240.001 292.818C240.552 292.334 244.486 296.408 250.575 299.466C256.665 302.523 262.291 303.108 262.26 303.812C262.225 304.633 255.809 304.738 249.513 301.593Z" fill="black"/>
<path d="M342.607 343C338.782 331.719 338.965 335.408 340.4 332.296C347.124 316.975 325.822 280.759 304.325 278.006C235.198 195.455 108.945 203.321 43.495 290.277C30.0146 286.84 14.3483 313.677 13.8784 325.873C13.8426 329.058 14.7898 332.176 16.5908 334.804C15.2331 337.925 13.949 341.078 12.7396 344.259C10.4425 350.304 9.85944 355.616 10.967 355.928C12.8897 356.476 17.0315 344.339 19.976 337.477C28.4878 341.102 39.4468 327.111 37.8127 326.019C37.019 325.489 26.5319 336.424 21.7388 333.788C11.9888 329.09 24.9232 305.382 31.5473 299.105C35.2523 295.507 42.3367 292.268 44.4173 295.449C47.6953 299.111 44.2847 313.701 45.2753 314.085C46.342 314.532 49.343 306.989 49.5107 300.665C97.3579 237.191 179.472 216.326 248.639 248.272C262.384 254.59 265.653 257.242 265.842 256.93C265.941 256.776 259.504 252.802 259.346 252.711C191.806 213.169 102.098 228.983 49.2065 296.562C48.8839 294.654 47.8884 292.925 46.4005 291.687C110.801 211.673 228.967 199.706 300.039 277.983C298.564 278.13 297.133 278.573 295.833 279.285C294.532 279.997 293.388 280.963 292.469 282.126C284.938 291.995 300.372 311.776 301.496 310.971C302.623 310.212 290.061 291.496 295.702 284.619C297.802 281.941 301.632 281.694 304.963 282.329C309.257 283.328 313.258 285.315 316.649 288.132C326.651 296.09 336.016 309.937 337.459 324.672C338.156 331.762 333.93 335.315 328.608 334.944C322.871 334.515 318.186 329.445 314.063 325.539C307.275 318.999 299.555 312.697 311.905 327.546C316.458 332.869 321.232 338.312 328.226 339.01C330.97 339.32 333.739 338.702 336.091 337.255C336.99 339.595 337.844 341.952 338.651 344.329C344.015 360.039 346.238 353.633 342.607 343Z" fill="black"/>
<path d="M86.8099 236.53C90.2302 233.18 95.9495 225.709 95.1559 221.021C94.2784 215.848 78.4444 200.365 62.2204 197.894C54.7831 188.308 35.9714 176.536 29.7919 174.064C24.2695 171.856 16.6937 171.002 12.2984 173.9C4.02846 179.36 7.13091 198.091 7.22841 202.315C7.47022 213.976 16.6801 229.596 16.3525 232.92C16.1029 235.469 12.9185 235.323 14.9407 244.743C16.2106 250.951 17.8383 257.08 19.8157 263.101C20.9038 266.308 22.4209 269.77 25.5097 271.154C30.0142 273.166 38.9842 270.67 43.5959 268.159C45.1832 267.295 45.9788 267.172 47.3009 268.775C49.9003 271.946 53.0242 278.209 58.4939 277.78C60.0539 277.657 60.4439 276.819 60.3698 275.28C60.2271 271.974 59.3491 268.741 57.7997 265.817C59.6755 265.07 61.3702 263.931 62.7703 262.477C64.7963 264.512 71.4166 270.667 74.3338 270.875C77.2549 271.084 79.2634 267.673 78.967 264.781C78.3396 261.934 77.1618 259.237 75.4999 256.841C74.3299 254.677 74.8018 254.792 79.4818 248.518C82.9255 253.148 84.3704 255.462 86.5018 256.607C87.3028 257.091 88.2376 257.306 89.1696 257.22C90.1015 257.135 90.9815 256.753 91.681 256.131C94.2998 253.294 90.901 247.779 86.1859 240.073C85.2928 238.62 85.3181 237.977 86.8099 236.53Z" fill="#FFC5F6"/>
<path d="M28.7391 218.282C28.3791 221.47 29.1065 224.686 30.8033 227.409C32.5001 230.132 35.0668 232.202 38.0874 233.283C40.1366 234.029 42.349 234.208 44.4913 233.801C46.6336 233.394 48.6264 232.416 50.2593 230.971C51.8927 229.527 53.1068 227.669 53.7738 225.593C54.4409 223.518 54.5363 221.3 54.0501 219.175C51.3318 206.36 31.3814 204.176 28.7391 218.282Z" fill="#92FCFF"/>
<path d="M50.3888 228.145C48.512 230.451 45.8038 231.926 42.8488 232.253C39.8937 232.579 36.9287 231.731 34.5938 229.89C29.3873 226.129 29.6232 220.725 28.8257 220.77C28.2777 220.796 27.8507 227.283 33.0514 231.799C34.516 233.126 36.2487 234.122 38.1321 234.719C40.0154 235.317 42.0053 235.503 43.9668 235.264C45.9282 235.025 47.8153 234.367 49.5001 233.335C51.1848 232.302 52.6278 230.919 53.7311 229.28C55.2078 227.09 56.0241 224.521 56.0828 221.88C56.1667 213.278 48.4193 205.777 39.7555 207.159C33.4901 208.072 29.0304 212.596 28.5449 216.646C28.2309 218.768 28.5956 219.899 28.8023 219.895C29.0694 219.904 29.1923 218.768 29.8495 216.995C31.7059 211.656 39.8139 208.109 45.8199 211.018C52.0736 213.971 54.9109 222.49 50.3888 228.145Z" fill="black"/>
<path d="M44.8147 241.732C61.7797 240.219 69.3379 220.438 57.6087 207.243C54.1728 203.335 49.3978 200.856 44.2246 200.294C39.0515 199.732 33.8557 201.129 29.6613 204.209C28.3744 204.984 27.2893 206.053 26.4945 207.329C26.6271 207.467 27.7249 206.324 30.1156 204.907C48.081 194.215 65.7499 211.96 60.0696 227.831C55.879 239.909 39.6706 244.277 29.0412 234.352C22.3234 228.158 22.6354 220.22 22.0563 220.267C21.6663 220.267 21.559 229.028 27.9901 235.442C30.1766 237.639 32.8117 239.339 35.7154 240.424C38.619 241.51 41.7228 241.956 44.8147 241.732Z" fill="black"/>
<path d="M92.1609 213.17C84.146 204.908 74.0651 198.943 62.9655 195.893C53.43 185.905 42.1099 177.788 29.5893 171.963C-2.00071 159.366 -0.902858 200.973 13.7631 231.272C12.0945 243.75 14.0919 256.445 19.5117 267.807C20.0072 269.307 20.8994 270.644 22.0934 271.677C23.2875 272.71 24.739 273.4 26.2938 273.675C32.2978 274.964 40.558 272.345 46.0785 269.165C47.2485 270.625 50.9827 275.081 52.2639 276.35C58.1431 282.181 63.4023 276.908 61.267 270.89C58.927 264.26 57.0589 268.277 63.5758 264.455C66.9669 268.17 70.9507 273.48 75.6522 272.01C76.8387 271.603 77.8787 270.854 78.6418 269.859C79.405 268.863 79.8573 267.665 79.9422 266.413C80.2776 263.014 78.4231 259.393 76.516 255.862C75.6015 254.161 76.0519 256.154 79.5171 250.597C83.4386 255.362 85.2169 257.685 88.0249 258.278C89.2145 258.48 90.4358 258.206 91.4255 257.516C92.4152 256.826 93.0939 255.774 93.3153 254.588C94.0816 251.422 92.1043 247.742 90.1953 244.448C85.6908 236.726 85.5016 242.348 92.9038 232.196C100.415 221.45 97.0807 218.252 92.1609 213.17ZM8.81009 201.154C11.8089 199.999 14.6969 198.575 17.4388 196.9C20.2351 195.129 21.7288 193.7 21.5202 193.39C21.2101 192.906 18.7258 194.443 8.43764 198.372C7.13699 187.116 8.57999 173.236 19.8919 173.788C25.2583 174.008 31.6543 177.245 36.2719 179.985C23.5092 191.558 23.0587 191.83 23.2615 192.149C23.4643 192.469 25.7341 191.486 29.0043 189.25C32.3894 186.853 35.6307 184.26 38.7114 181.483C63.8098 197.366 77.768 219.482 79.9266 231.598C76.8066 233.953 69.342 240.104 66.3546 242.808C59.3794 238.68 53.3169 244.741 53.9897 250.895C50.4524 252.545 42.5997 256.63 39.1696 258.615C26.6916 249.37 12.7881 227.419 8.81009 201.154ZM24.2892 267.997C22.2183 265.005 16.8187 251.784 16.4658 236.442C22.6122 247.362 33.5107 261.54 45.8094 265.76C40.4001 268.558 27.4384 272.544 24.2892 267.997ZM57.7024 268.465C58.4922 270.315 59.7324 272.893 58.9758 274.751C57.1935 279.129 52.6812 272.79 47.773 268.121C50.5771 266.306 48.5979 266.858 52.7436 267.302C58.1061 267.841 56.5851 265.826 57.7024 268.465ZM53.0634 264.321C48.9909 263.763 45.0778 262.369 41.5701 260.226C46.1833 258.455 50.5692 256.141 54.6351 253.333C55.8382 256.23 58.4844 258.878 61.6902 262.386C59.0791 263.896 56.069 264.571 53.0634 264.321ZM76.6018 266.017C76.2957 268.685 74.1721 269.972 71.1028 267.369C68.4266 264.89 65.9069 262.248 63.5583 259.458C59.9079 255.499 53.5489 250.316 58.8178 245.263C59.5688 244.546 60.5205 244.075 61.5461 243.912C62.5717 243.749 63.6226 243.903 64.5586 244.353C68.6497 246.646 77.0757 261.821 76.6018 266.017ZM68.2987 244.271C72.6848 241.543 76.7213 238.29 80.3186 234.583C80.6027 237.813 80.2452 241.066 79.2666 244.157C78.288 247.248 76.7078 250.114 74.6168 252.592C72.8267 249.592 70.7076 246.801 68.2987 244.271ZM89.9671 249.803C91.7884 254.115 90.0295 255.949 88.4754 255.678C86.6034 255.394 85.0746 253.237 80.5058 248.853C81.4145 247.118 82.1282 245.287 82.6312 243.393C83.4873 242.613 84.3979 241.757 85.3418 240.833C87.1155 243.698 88.662 246.697 89.9671 249.803ZM83.4951 238.314C84.511 225.463 75.0867 210.358 67.0605 200.573C81.1278 207.069 93.1905 218.769 93.2373 221.748C92.7518 227.152 87.0597 234.125 83.4951 238.314Z" fill="black"/>
<path d="M230.363 124.68C236.071 118.135 236.044 119.282 240.93 121.345C258.757 128.86 318.102 159.261 318.297 159.37C328.764 165.396 333.434 165.983 328.893 176.706C324.213 187.766 311.616 212.297 304.192 221.47C300.735 225.37 297.691 229.617 295.109 234.145C291.115 241.713 280.484 247.027 283.727 248.413C297.084 254.113 300.121 259.82 303.683 271.788C303.868 272.41 303.808 272.671 303.163 273.043C300.846 274.385 295.363 277.127 293.097 275.682C291.221 274.483 290.686 270.245 286.987 265.103C284.834 262.313 281.972 260.151 278.7 258.843C275.427 257.536 271.863 257.13 268.38 257.668C261.945 259.103 264.97 259.087 202.08 293.676C184.614 303.282 180.24 301.316 175.414 311.076C171.582 318.822 171.462 327.737 165.885 329.783C163.624 330.611 158.525 330.214 156.525 328.154C153.11 324.644 156.361 312.281 157.776 307.584C159.348 302.371 158.155 303.836 163.155 299.324C167.031 295.825 162.092 293.191 102.718 251.422C101.843 250.956 100.845 250.774 99.8615 250.899C92.7752 266.417 102.545 277.189 88.0757 275.781C85.2911 275.512 84.5305 274.937 83.5906 272.856C76.7773 257.675 83.6492 238.671 100.751 229.566C109.331 224.999 89.7663 236.058 173.706 192.505C195.897 181.003 202.35 156.8 230.363 124.68Z" fill="#92FCFF"/>
<path d="M327.407 162.892C313.655 153.908 296.252 146.991 281.301 138.478C269.765 131.707 257.002 126.626 244.865 120.177C232.764 113.742 232.693 117.135 199.491 163.467C181.921 188.062 178.021 187.111 146.646 203.658C101.072 227.365 92.2992 229.882 89.1499 236.53C78.072 249.113 77.1847 268.843 82.1299 275.832C84.0292 278.402 86.7592 278.878 89.9494 278.562C102.722 277.043 95.4465 270.947 100.717 253.097C114.878 262.968 97.3926 249.002 161.869 297.557C155.196 302.576 153.223 312.071 152.498 320.372C152.219 325.208 152.498 329.909 158.621 331.963C163.784 333.764 169.515 331.592 171.315 327.4C172.863 323.802 174.271 312.19 182.454 304.791C186.997 303.58 191.382 301.839 195.519 299.604C198.74 297.986 244.317 272.958 266.83 259.489C269.257 259.05 271.747 259.106 274.152 259.653C276.557 260.201 278.826 261.229 280.823 262.675C291.123 270.222 286.673 283.439 301.169 277.3C304.798 275.766 306.503 274.18 305.459 270.105C302.702 259.797 296.158 250.8 285.868 247.216C302.962 232.458 330.104 181.077 333.071 171.69C334.581 166.835 330.314 164.904 327.407 162.892ZM93.9586 268.529C93.6388 273.307 94.0737 273.418 89.4736 273.853C87.9643 273.993 86.8372 273.991 85.9636 272.903C83.1829 268.974 83.0386 254.162 89.458 243.173C91.9098 246.162 94.7448 248.815 97.8898 251.063C95.6207 256.627 94.2922 262.529 93.9586 268.529ZM170.523 315.774C168.236 321.22 167.61 324.549 167.138 325.483C165.894 328.388 159.806 328.798 157.753 325.873C156.251 324.129 156.61 306.059 164.695 299.62C167.963 302.021 171.676 303.748 175.617 304.704C179.369 305.452 175.254 304.39 170.523 315.774ZM295.355 259.298C297.935 263.196 299.822 267.511 300.932 272.053C299.563 272.794 298.126 273.402 296.642 273.87C291.074 275.13 294.528 266.63 283.255 259.05C272.372 252.083 268.277 259.988 282.781 249.659C287.855 251.519 292.241 254.881 295.355 259.298ZM329.263 170.551C327.409 176.887 300.83 231.224 282.658 245.574C274.858 251.853 202.135 291.576 193.6 295.796C184.926 300.076 181.022 301.33 176.533 300.4C170.098 299.066 171.863 298.957 118.197 259.107C109.592 252.882 91.9735 242.976 93.3307 238.944C94.959 234.264 108.57 228.843 112.993 226.624C194.276 184.309 183.261 195.314 215.953 148.039C219.186 143.384 234.179 121.53 238.596 122.324C240.799 122.714 316.335 160.979 321.418 163.947C329.437 168.779 329.723 169.023 329.263 170.551Z" fill="black"/>
<path d="M308.652 147.82C308.775 139.386 307.171 131.015 303.938 123.224C300.704 115.433 295.911 108.385 289.852 102.516C269.061 81.8714 236.325 95.1451 236.325 95.1451L233.226 98.8306C233.226 98.8306 231.309 95.1451 223.199 96.9137C215.089 98.6843 202.6 117.634 201.116 123.465C199.051 131.577 204.914 139.235 204.914 139.235C204.914 139.235 204.261 138.989 201.049 144.876C197.838 150.765 203.124 167.827 203.124 167.827C203.124 167.827 193.764 153.308 193.622 142.6C193.581 139.41 193.343 128.755 190.864 126.766C190.305 125.803 187.204 123.705 188.657 116.86C190.01 110.23 196.198 110.026 198.668 106.568C199.54 105.138 199.862 103.44 199.575 101.79C199.288 100.14 198.411 98.6503 197.108 97.5982C187.943 90.6328 180.097 104.228 179.683 103.633C177.141 99.757 174.035 96.2804 170.469 93.3179C162.006 86.9512 154.663 88.7257 152.859 92.0251C151.506 94.4314 153.397 96.8864 154.852 99.2596C146.744 98.2144 138.014 100.262 141.171 106.475C142.157 108.425 144.93 108.703 151.387 111.689C145.595 113.03 139.492 113.931 140.2 118.28C141.325 124.282 149.626 121.435 157.151 125.996C158.56 126.664 159.716 127.769 160.445 129.148C161.174 130.526 161.438 132.103 161.197 133.644C160.384 139.026 158.547 141.604 163.369 147.625C167.211 152.302 169.872 157.832 171.13 163.752C171.934 169.372 180.165 183.223 180.165 183.223L167.517 192.524L154.452 189.1C154.452 189.1 157.303 173.917 153.294 166.31C149.285 158.705 146.012 154.365 135.459 152.81C124.906 151.256 120.079 151.991 120.161 159.928C120.243 167.864 121.634 197.07 121.797 202.633C121.961 208.196 130.141 210.078 133.413 210.238C147.627 210.95 129.428 207.789 129.018 220.904C128.72 230.473 127.556 249.291 127.556 249.291C121.949 249.449 116.53 251.347 112.051 254.723C104.593 260.365 103.637 270.023 107.371 274.04C111.106 278.057 142.471 278.525 142.471 278.525C142.471 278.525 153.754 279.481 156.911 274.89C160.068 270.3 159.969 255.958 159.969 255.958C159.969 255.958 172.4 268.771 182.249 270.875C192.099 272.979 209.596 264.565 217.724 259.688C225.851 254.811 258.839 226.222 258.839 226.222C258.839 226.222 279.398 227.846 289.15 222.97C298.902 218.093 304.928 208.15 304.832 199.831C304.775 194.822 304.263 189.829 303.301 184.913C315.662 170.674 313.461 151.315 308.652 147.82Z" fill="white"/>
<path d="M223.277 109.39C219.26 112.5 215.466 115.889 211.922 119.53C208.539 123.582 206.435 128.548 205.875 133.798C205.314 139.047 206.322 144.344 208.773 149.019C209.77 150.843 210.218 153.187 211.394 154.901C218.56 165.339 227.343 175.2 239.864 177.131C249.458 178.607 260.947 175.586 267.061 168.046C268.958 165.706 270.181 163.424 272.162 161.152C279.704 152.49 281.35 139.207 269.935 122.86C266.351 118.274 262.191 114.17 257.558 110.647C248.003 102.496 232.271 101.872 229.648 102.871C226.43 104.072 225.898 107.182 223.277 109.39Z" fill="#92FCFF"/>
<path d="M168.73 250.569C180.387 267.205 196.225 260.46 196.576 261.659C197.379 263.037 178.215 270.483 165.785 252.621C154.007 235.693 164.383 218.854 165.684 220.019C166.69 220.602 157.498 234.552 168.73 250.569Z" fill="black"/>
<path d="M310.653 149.292C313.237 144.232 308.213 124.609 304.571 118.131C292.34 96.3884 273.23 87.9391 248.76 90.0841C239.454 91.6441 236.065 92.2096 232.212 96.1798C221.924 91.3516 212.564 100.06 205.743 109.206C198.456 118.956 194.733 129.72 202.172 139.413C197.477 143.929 197.672 149.762 199.021 156.251C192.547 137.352 197.184 134.324 194.341 127.746C192.976 124.529 188.15 117.548 194.012 113.182C196.246 111.493 200.22 110.132 201.634 106.224C204.875 96.7862 191.057 86.2816 180.484 101.213C167.215 77.4227 146.164 85.0784 149.333 95.9302C138.039 94.5106 132.353 106.688 141.652 111.3C140.435 111.682 139.345 112.389 138.499 113.344C137.653 114.299 137.083 115.466 136.851 116.721C136.141 127.852 150.991 126.296 155.376 128.93C161.335 132.395 154.526 136.863 157.184 142.933C159.255 147.896 163.128 147.198 167.423 158.578C170.333 166.325 171.267 172.197 177.979 182.393C173.827 184.106 170.009 186.533 166.696 189.565C162.959 188.353 159.155 187.359 155.302 186.59C158.869 173.961 155.591 155.78 141.089 151.392C135.792 149.879 123.314 147.806 119.576 151.977C117.041 154.808 117.451 155.292 117.769 175.408C117.989 189.263 118.592 195.285 119.178 202.903C120.183 209.095 124.695 211.516 130.943 212.263C119.912 223.166 125.508 248.845 123.576 248.904C109.618 249.419 101.4 260.112 102.781 270.272C103.881 280.946 121.409 279.69 131.056 280.58C158.063 282.787 162.708 278.329 162.359 261.349C162.322 259.603 161.681 260.617 167.398 265.307C176.288 272.522 186.738 275.925 197.58 272.046C212.79 266.606 236.625 251.998 259.959 228.54C284.49 230.755 306.32 223.409 306.989 199.485C306.969 194.442 306.455 189.413 305.452 184.47C312.983 174.31 318.408 158.691 310.653 149.292ZM231.5 104.643C236.765 102.326 256.503 108.186 269.59 127.035C274.66 134.376 277.795 141.27 274.693 149.586C270.471 161.3 260.737 173.766 248.395 175.504C233.899 177.844 212.451 163.09 207.687 139.263C208.662 136.059 207.845 127.185 219.992 115.155C225.65 109.609 228.271 108.48 231.5 104.645V104.643ZM202.531 126.939C203.649 118.215 217.854 96.2363 229.751 99.0541C222.291 108.459 206.589 115.812 203.729 135.23C202.562 132.633 202.147 129.76 202.531 126.939ZM142.19 103.13C143.319 101.191 147.065 100.049 149.318 100.366C154.454 101.25 152.839 101.659 156.638 103.775C160.559 105.92 163.884 107.87 166.639 109.709C159.319 115.795 164.933 115.988 158.317 113.318C156.318 112.558 158.157 113.071 146.159 107.987C144.8 107.606 143.547 106.916 142.5 105.969C141.925 104.892 141.635 104.124 142.19 103.128V103.13ZM163.022 143.561C159.21 139.351 162.556 137.725 162.644 132.787C169.9 134.215 175.916 131.469 175.678 130.759C175.411 129.903 169.539 131.763 162.223 129.85C160.177 123.497 150.626 121.953 144.505 120.925C138.741 118.332 141.592 114.217 149.38 114.278C160.066 118.318 160.655 117.528 160.337 118.414C159.664 120.293 159.606 121.555 159.947 121.682C160.704 121.949 162.706 117.764 166.468 113.687C170.173 109.555 174.145 107.166 173.806 106.437C173.65 106.105 172.398 106.281 170.59 107.131C168.116 108.283 171.875 108.106 158.921 100.033C148.586 93.247 155.973 88.4617 163.82 91.1663C169.972 93.2782 174.82 99.1087 178.535 104.426C175.76 109.921 175.61 114.321 176.195 114.307C176.684 114.346 177.23 109.857 181.304 104.235C188.618 94.2707 195.585 96.2402 197.738 100.634C201.032 107.186 192.233 107.654 188.875 112.829C187.932 114.223 187.314 115.813 187.068 117.479C186.822 119.145 186.955 120.844 187.456 122.452C186.948 123.618 186.158 124.64 185.159 125.426C181.978 127.828 175.888 129.817 176.142 130.599C176.366 131.307 185.564 129.556 188.692 125.629C190.418 129.277 191.399 128.729 191.2 134.975C185.675 142.405 171.078 146.539 163.022 143.561ZM177.963 146.778C183.016 145.605 187.615 142.979 191.194 139.224C191.325 143.52 192.067 147.776 193.399 151.862C186.533 155.148 179.304 157.615 171.862 159.214C166.055 140.429 161.706 151.082 177.963 146.776V146.778ZM172.308 160.674C179.927 159.759 187.278 157.295 193.908 153.432C194.454 155.07 195.145 156.942 195.841 158.629C188.847 161.992 181.483 164.522 173.899 166.167C173.377 164.428 172.872 162.589 172.302 160.674H172.308ZM157.221 268.193C156.051 279.334 140.353 275.841 120.951 275.387C116.523 275.235 108.221 274.576 107.044 270.299C129.252 272.743 149.973 272.064 149.965 271.173C149.957 270.282 132.179 270.299 106.815 267.39C106.893 265.611 107.252 263.856 107.878 262.191C111.8 252.78 124.404 249.534 133.521 252.851C138.694 254.734 140.681 257.519 141.036 257.16C141.426 256.832 137.46 251.014 128.967 249.344C129.016 240.675 127.866 224.443 133.053 217.458C135.734 213.849 140.572 211.729 144.739 213.47C156.644 218.451 158.112 260.225 157.215 268.193H157.221ZM239.642 225.061C239.579 225.995 254.429 227.941 255.452 228.064C239.254 242.018 215.817 260.044 195.96 267.433C183.285 272.156 171.438 265.118 162.164 255.282C159.434 191 136.58 213.217 125.894 205.647C125.359 205.293 124.912 204.82 124.588 204.266C124.265 203.711 124.073 203.089 124.028 202.449C123.443 194.877 122.858 189.146 122.64 175.311C122.33 155.684 122.189 155.932 123.338 155.167C124.567 154.606 125.903 154.318 127.253 154.323C128.414 169.822 127.862 200.294 129.194 200.263C129.958 200.245 131.28 170.291 130.132 154.366C133.386 154.595 136.616 155.089 139.79 155.842C153.783 159.785 155.905 180.874 149.981 193.867C148.368 197.248 147.126 198.999 147.416 199.247C147.875 199.637 151.387 195.932 153.53 191.379C167.078 193.968 181.61 199.502 190.74 210.066C198.776 219.25 211.605 248.871 213.962 247.492C214.569 247.145 212.726 242.527 209.697 235.061C209.05 233.464 208.769 234.355 215.212 238.181C223.737 243.179 223.954 241.95 216.663 236.1C205.158 226.506 206.718 227.639 203.955 221.994C197.06 207.983 190.045 198.687 171.905 191.441C174.894 189.805 177.638 187.754 180.054 185.349C181.479 187.274 186.046 192.715 186.615 192.2C187.313 191.591 180.416 184.298 175.007 169.634C173.716 165.982 173.619 169.143 185.373 165.149C201.788 159.592 192.522 155.863 202.213 170.732C207.357 178.565 217.603 190.844 229.188 196.472C234.784 199.146 238.216 199.631 238.275 199.397C238.665 198.227 223.788 194.941 212.088 177.602C207.742 171.188 204.419 162.587 205.431 164.254C210.045 172.421 216.938 179.068 225.266 183.384C237.415 189.624 253.886 191 265.259 184.331C269.347 181.811 272.943 178.57 275.873 174.765C274.434 180.732 274.266 187.274 278.033 192.057C270.352 196.326 261.89 199.004 253.151 199.931C245.299 200.639 240.402 199.309 240.231 199.986C239.919 200.672 252.178 206.302 271.093 199.616C270.959 201.075 270.53 202.493 269.834 203.783C268.342 206.608 242.629 206.318 242.584 207.718C242.534 209.407 261.293 209.619 266.033 208.888C267.742 212.396 270.273 215.44 273.41 217.76C276.548 220.08 280.2 221.608 284.055 222.214C266.825 228.091 239.8 222.511 239.636 225.061H239.642ZM287.298 220.929C283.295 220.488 279.444 219.148 276.032 217.01C272.62 214.872 269.734 211.991 267.591 208.582C269.143 208.304 270.603 207.648 271.84 206.671C278.27 212.639 286.793 215.832 295.562 215.557C293.117 217.787 290.323 219.602 287.292 220.929H287.298ZM297.048 214.026C288.257 213.909 279.748 210.909 272.827 205.487C273.441 204.419 273.859 203.249 274.061 202.034C275.128 196.283 272.25 200.066 281.409 194.943C288.056 198.594 296.149 194.776 301.763 188.879C302.828 198.026 303.03 207.209 297.038 214.026H297.048ZM310.963 161.154C309.949 172.464 297.857 191.927 286.605 191.455C273.207 190.895 280.192 160.274 298.019 147.97C300.577 146.322 302.399 146.258 302.385 145.856C302.521 145.261 297.249 143.887 288.296 152.611C292.676 138.226 286.886 128.914 286.506 129.094C285.018 129.653 296.51 143.28 275.82 170.122C267.616 180.712 259.967 185.858 245.956 185.312C217.406 184.357 201.242 156.589 203.153 145.817C203.61 144.542 204.401 143.414 205.445 142.551C211.942 172.045 248.43 197.391 272.041 163.671C282.858 147.818 282.284 138.228 272.807 124.769C261.569 108.987 244.374 100.836 234.365 101.078C235.398 99.7187 236.664 98.5529 238.103 97.6345C241.908 96.9719 245.823 97.388 249.403 98.8357C272.517 107.053 285.79 128.78 286.258 128.558C288.242 127.934 274.221 103.999 250.544 95.5558C248.483 94.8382 248.524 95.0507 249.388 94.9045C276.657 92.5274 295.215 105.099 303.065 126.896C304.639 131.603 306.862 142.508 306.501 146.174C306.501 146.314 304.467 145.62 304.366 146.084C304.161 146.741 312.119 149.048 310.953 161.154H310.963Z" fill="black"/>
<path d="M115.888 112.48C113.333 124.935 113.339 124.715 113.38 124.912C113.77 126.862 119.747 119.417 126.519 118.672C123.653 122.251 121.43 126.3 119.948 130.639L129.113 128.857C131.716 128.35 134.119 129.11 133.284 130.083C128.884 133.403 124.714 137.018 120.804 140.904C104.588 156.784 105.204 159.604 102.622 163.192C101.304 164.717 100.072 166.312 98.9308 167.974C97.2616 170.947 96.7721 175.616 92.8994 174.12C89.3348 172.743 82.2115 171.622 81.956 166.786C81.5797 159.731 92.9248 130.84 115.886 112.479L115.888 112.48Z" fill="#92FCFF"/>
<path d="M73.3974 167.981C71.0769 162.897 82.2972 166.914 83.2995 166.924C86.4195 166.942 87.2093 163.17 92.3729 160.813C95.1399 159.549 94.67 169.886 95.7015 171.368C96.0603 171.805 96.5088 172.158 97.0178 172.406C99.2725 173.717 101.419 175.207 103.437 176.86C104.666 177.868 104.295 178.712 102.915 179.443C97.3025 182.405 95.0288 182.698 94.5627 183.226C94.3053 183.523 94.4301 183.294 91.8483 193.156C91.1717 195.743 86.517 189.735 84.5943 187.555C84.2568 187.029 83.7598 186.625 83.176 186.401C82.5922 186.178 81.9521 186.147 81.3495 186.313C80.0781 186.436 72.7442 187.157 71.931 186.169C70.527 184.461 76.8255 177.827 76.9289 176.001C77.0342 174.246 73.3974 169.644 73.3974 167.981Z" fill="#FDFE1F"/>
<path d="M133.973 129.395C134.349 128.32 126.05 126.721 120.426 130.007C120.563 129.812 128.511 117.566 127.988 117.137C127.559 116.143 117.932 120.612 113.825 125.046C114.104 124.225 117.335 112.176 116.38 111.876C116.111 111.519 94.9299 124.173 83.2689 156.256C82.1562 159.111 81.3712 162.083 80.9289 165.115C76.3834 164.091 73.7704 162.832 72.1539 165.359C70.8708 167.363 71.8945 168.401 75.5274 176.279C71.1165 183.708 69.8899 184.777 71.1204 186.945C72.5536 189.463 74.7045 188.538 82.873 187.573L88.528 194.008C88.8306 194.352 89.2016 194.628 89.6173 194.819C90.033 195.011 90.4841 195.113 90.9418 195.12C91.3994 195.127 91.8534 195.038 92.2746 194.859C92.6957 194.68 93.0748 194.415 93.3874 194.08C93.8067 193.634 94.0914 193.08 94.2123 192.479L95.8815 184.075L103.754 180.686C104.315 180.443 104.798 180.048 105.147 179.545C105.496 179.043 105.698 178.453 105.73 177.841C105.761 177.23 105.621 176.623 105.326 176.087C105.031 175.551 104.591 175.108 104.058 174.808L98.3151 171.595C114.652 142.988 134.932 130.528 133.973 129.395ZM102.664 178.133C92.9721 182.304 93.4713 181.99 93.3991 182.361C91.3965 192.561 91.5856 192.345 91.0006 192.345C90.3181 192.345 84.4525 184.576 83.7427 184.67C75.2407 185.781 74.1877 185.824 73.981 185.824C72.7213 185.824 73.8114 184.629 78.5382 176.659C78.7332 176.331 78.8892 176.903 74.4724 167.324C74.4324 167.239 74.417 167.145 74.4282 167.051C74.4394 166.958 74.4766 166.87 74.5355 166.796C74.5945 166.723 74.6729 166.668 74.7617 166.637C74.8506 166.606 74.9463 166.601 75.0379 166.622C82.3426 168.247 84.4759 168.783 84.6768 168.783C84.9634 168.783 84.4662 169.155 92.1882 162.016C92.2569 161.952 92.3424 161.908 92.4348 161.89C92.5273 161.872 92.623 161.88 92.7109 161.914C92.7989 161.948 92.8755 162.006 92.9321 162.081C92.9886 162.156 93.0228 162.246 93.0306 162.34C94.0231 172.87 93.8593 172.273 94.1889 172.457C101.552 176.583 104.048 177.538 102.664 178.133ZM96.5269 169.969L95.7976 162.089C95.7239 161.273 95.347 160.516 94.7415 159.965C94.136 159.414 93.3459 159.111 92.5275 159.115C90.7335 159.115 90.4488 159.852 84.0099 165.807L83.1987 165.624C83.6981 162.711 84.5169 159.862 85.6401 157.128C93.7131 135.984 101.825 126.77 115.352 113.167C112.763 118.292 112.232 126.088 113.182 126.14C113.519 126.575 116.823 124.553 120.865 122.088C127.538 117.982 125.252 118.672 122.398 123.17C119.919 127.037 119.005 130.729 119.512 130.896C119.72 131.423 122.873 130.549 126.766 130.085C129.554 129.713 131.982 129.793 133.185 129.672C124.474 134.254 107.102 150.119 96.525 169.969H96.5269Z" fill="black"/>
<path d="M308.779 33.5032C306.016 28.6282 302.929 27.9184 297.999 26.1575C290.131 23.3437 283.834 21.263 276.851 22.9088C255.105 28.0334 244.025 60.2026 255.222 73.7765C259.469 78.9284 276.407 84.3241 282.385 84.3241C302.58 84.3241 318.798 51.568 308.779 33.5032Z" fill="#FDFE1F"/>
<path d="M309.801 32.9326C306.735 27.2776 302.17 26.5171 298.395 25.0468C292.74 23.0266 285.625 20.5462 279.627 21.2131C252.795 25.0741 242.701 62.0207 254.706 74.9258C258.678 79.9588 278.57 86.6902 284.702 85.2608C305.696 82.4294 319.475 50.662 309.801 32.9326ZM298.542 38.6071C300.102 38.8898 302.274 39.1336 304.002 39.5821C305.897 40.0657 308.145 41.0153 309.676 41.4931C310.309 45.5429 310.216 49.6732 309.401 53.6903C301.049 52.9805 302.978 52.4813 297.67 50.7224C298.625 46.7581 298.92 42.665 298.542 38.6051V38.6071ZM309.249 39.2896C302.143 38.6461 303.504 38.2054 298.159 36.2281C297.485 32.441 295.589 28.9788 292.762 26.3708C291.734 25.544 289.642 24.6997 297.479 27.574C302.02 29.3485 307.003 29.9081 309.249 39.2837V39.2876V39.2896ZM252.182 63.9766C251.32 57.7001 252.065 51.3076 254.347 45.3974C256.628 39.4872 260.372 34.2524 265.228 30.1831C282.778 15.5581 305.234 25.856 294.174 56.5237C281.738 89.3441 254.793 81.238 252.182 63.9727V63.9746V63.9766ZM270.405 80.2669C274.38 80.1835 278.264 79.0644 281.674 77.0201C284.599 78.2057 285.683 77.1098 291.555 80.1167C284.244 83.9777 279.055 83.0651 270.405 80.263V80.2669ZM293.756 78.8083C288.944 77.5271 290.094 78.74 283.673 75.4621C286.428 73.0386 288.829 70.2396 290.804 67.1473C294.761 68.1223 293.45 66.5135 302.537 69.9065C300.208 73.4084 297.227 76.4293 293.756 78.8044V78.8083ZM303.752 68.0248C302.192 67.783 299.68 67.6348 297.74 67.1668C295.8 66.7007 293.501 65.6536 292.007 65.1466C294.218 61.2986 295.935 57.1875 297.118 52.9103C302.042 54.0803 298.516 52.2766 308.956 55.6715C307.828 60.0173 306.075 64.1763 303.752 68.0189V68.0228V68.0248Z" fill="black"/>
<path d="M265.834 75.3463C275.409 78.7315 285.406 65.6178 289.275 57.1762C295.036 44.4252 294.382 26.9805 280.551 26.5612C267.589 26.14 259.023 44.2731 259.707 44.5753C260.129 44.7703 263.04 36.4555 271.815 30.4534C273.763 29.0841 276.036 28.2481 278.407 28.0285C280.778 27.8089 283.166 28.2133 285.332 29.2015C302.841 38.23 277.413 86.8318 262.092 71.2942C251.699 61.2478 261.919 39.634 258.945 45.9676C254.167 56.1174 255.246 71.7076 265.834 75.3463Z" fill="black"/>
<path d="M268.42 52.202L264.91 55.2245L268.203 67.7201C268.58 67.412 267.078 68.6951 277.661 59.5652C277.724 59.5254 277.771 59.4636 277.791 59.3916C277.814 59.3203 277.809 59.2431 277.778 59.1752C277.403 57.7907 276.641 54.9047 276.608 54.8013C275.945 55.4156 277.647 53.9375 270.738 59.9142C270.233 60.3471 270.769 60.2301 268.42 52.202Z" fill="black"/>
<path d="M268.915 42.0811L270.12 46.6266C270.274 46.4959 274.264 43.0522 276.075 41.4805C276.345 41.2465 276.103 41.3011 278.291 49.2805L281.801 46.258L278.519 33.7897L268.915 42.0811Z" fill="black"/>
<path d="M272.203 54.5517L275.721 51.5039L274.516 46.9136L270.992 49.9556L272.203 54.5517Z" fill="black"/>
<path d="M283.86 54.1362L282.68 49.62L279.201 52.6269L280.396 57.1431L283.86 54.1362Z" fill="black"/>
<path d="M266.222 44.3709C262.66 47.4422 262.773 47.2238 262.853 47.5182C264.077 52.0949 263.933 51.9837 264.152 51.7926C265.579 50.5544 267.385 49.008 267.525 48.8676C266.256 44.0511 266.417 44.1974 266.222 44.3709Z" fill="black"/>
<path d="M227.015 59.2982C243.823 47.2706 234.465 1.74983 208.385 1.74983C201.694 2.26166 195.083 3.53411 188.68 5.54258C171.955 11.9366 172.605 57.2488 198.011 65.2126C204.785 67.3459 221.7 63.0968 227.015 59.2982Z" fill="#FDFE1F"/>
<path d="M212.431 0.954083C206.673 -0.245167 198.996 1.64048 193.21 3.07373C188.24 4.40558 184.726 4.93013 181.259 10.3823C169.876 28.2833 178.047 60.9985 198.512 66.5852C204.581 68.387 219.079 64.6703 225.75 61.4782C244.792 52.3678 237.97 5.46833 212.431 0.954083ZM193.865 5.70623C203.163 3.32138 200.69 4.00193 199.267 4.97498C196.151 7.36577 193.832 10.6439 192.615 14.3779C187.245 15.7429 188.382 16.3903 181.422 16.2421C184.761 7.68938 188.754 7.07318 193.865 5.70623ZM180.672 18.4007C187.311 17.0903 181.978 17.4491 191.878 16.7374C190.87 20.8653 190.508 25.1247 190.806 29.3636C185.658 30.4537 187.231 31.2902 178.973 31.0621C178.827 26.7759 179.404 22.4958 180.677 18.4007H180.672ZM179.09 33.1115C180.636 32.7878 182.686 32.2223 184.418 32C186.617 31.7192 189.45 31.8304 190.997 31.6471C191.471 36.1711 192.498 40.6171 194.058 44.8876C192.535 45.2269 190.119 46.0342 188.124 46.3013C186.194 46.5607 183.751 46.4339 182.183 46.4963C180.52 42.2052 179.48 37.6977 179.096 33.1115H179.09ZM183.049 48.5497C192.317 46.1804 190.892 47.5591 194.92 47.0638C196.3 50.4756 198.203 53.6518 200.56 56.4784C193.723 59.1128 195.197 58.0091 190.156 58.7833C187.122 55.8858 184.704 52.4049 183.049 48.5497ZM192.065 60.3803C193.313 59.8538 194.604 59.4307 195.921 59.1128C198.099 58.6682 202.371 58.5571 202.283 58.2412C205.238 60.8329 208.901 62.4817 212.8 62.9758C200.548 65.6044 196.695 63.8572 192.065 60.3706V60.3803ZM233.099 47.8223C231.654 52.5452 229.039 57.2233 224.572 59.2766C221.407 61.1016 217.777 61.9591 214.13 61.7434C190.712 59.5477 182.762 7.09658 207.478 3.17513C224.09 2.39513 239.723 24.6388 233.099 47.8126V47.8223Z" fill="black"/>
<path d="M229.274 28.9795C226.829 20.1616 234.289 44.2909 222.632 54.3295C210.088 65.4913 197.477 40.7419 198.31 23.6892C199.32 4.94189 217.03 0.31454 226.848 22.6654C228.155 25.7035 228.603 27.4995 228.749 27.4605C228.547 25.7308 228.117 24.0353 227.472 22.4178C220.672 4.00004 206.391 3.06209 200.525 11.566C192.665 22.5777 197.099 43.117 207.243 54.5226C218.36 66.9831 235.032 49.8816 229.274 28.9776V28.9795Z" fill="black"/>
<path d="M210.906 33.2067C211.892 33.626 212.941 33.8752 214.01 33.9438C216.686 33.9438 219.275 30.7497 220.35 28.634C220.633 28.0821 220.693 28.6106 219.603 25.9664C217.499 20.9322 214.937 16.102 211.949 11.5364C209.537 17.7028 207.679 24.072 206.398 30.5684C206.76 31.559 207.1 32.0211 210.906 33.2067ZM212.249 15.762C214.713 19.6782 216.786 23.8269 218.439 28.1484C215.444 33.3432 213.369 31.9763 211.473 31.3796C210.418 31.0808 209.391 30.6892 208.404 30.2096C209.323 25.3044 210.609 20.4751 212.249 15.762Z" fill="black"/>
<path d="M221.585 30.836C213.438 37.4016 219.33 38.5112 206.135 33.5855C206.681 35.8958 207.648 38.0858 208.988 40.0458C209.937 41.6546 215.893 51.5294 217.763 51.6191C221.36 51.5216 221.261 34.814 221.585 30.836ZM219.385 37.6824C218.872 43.5578 218.853 46.7246 217.597 49.2518C215.015 46.0453 212.687 42.6426 210.633 39.0747C207.999 34.5897 210.099 38.6516 215.194 38.5053C219.02 38.4098 219.814 32.7548 219.385 37.6824Z" fill="black"/>
<path d="M151.408 72.2172C171.002 55.2893 152.592 1.91192 120.454 1.91192C111.03 1.91192 93.1793 10.7825 92.1282 11.4104C84.5486 15.9188 82.1832 26.751 82.1637 35.4695C82.076 65.0666 104.965 88.2131 122.496 84.9624C131.945 83.186 146.219 76.6944 151.408 72.2172Z" fill="#FDFE1F"/>
<path d="M129.02 2.13965C118.613 -1.67845 107.784 3.05615 97.4573 7.59965C92.3756 9.95135 87.6 11.1838 84.014 19.3991C72.587 46.3306 95.0432 93.4718 126.939 85.0946C134.425 83.0354 146.297 78.1156 152.64 72.6244C169.781 57.7966 157.47 10.1347 129.022 2.13965H129.02ZM91.8023 14.5027C93.9278 12.6716 104.631 8.20415 107.057 7.2545C102.758 11.0555 99.9589 16.2682 99.1655 21.9517C92.8046 24.8006 94.2651 25.411 85.4999 26.7331C86.1733 22.0655 88.3924 17.7584 91.8023 14.5007V14.5027ZM85.026 29.6113C92.9118 26.5907 86.4066 28.1488 98.7735 25.0756C98.4118 30.4887 98.8813 35.9253 100.166 41.1962C93.9258 43.6942 96.0708 44.3981 85.65 45.9113C84.5297 40.5513 84.3188 35.0412 85.026 29.6113ZM86.2409 48.4678C88.1168 47.7209 90.5699 46.5626 92.7032 45.9074C95.4078 45.0748 98.9997 44.5951 100.893 44.0296C102.476 49.615 104.738 54.9852 107.628 60.0196C105.786 60.7762 102.923 62.3206 100.472 63.0889C98.0969 63.8377 94.9925 64.2121 93.0366 64.6294C90.0119 59.5933 87.7234 54.1503 86.2409 48.4658V48.4678ZM94.5771 67.0162C96.6203 65.9974 98.7192 65.0944 100.864 64.3115C103.691 63.4223 107.494 63.0733 109.187 62.5565C111.667 66.5488 114.754 70.1309 118.336 73.1743C110.292 77.9849 111.92 76.267 105.749 78.3418C101.298 75.3589 97.4976 71.5064 94.5752 67.0162H94.5771ZM108.498 79.9447C109.955 79.0114 111.485 78.1976 113.073 77.5111C115.879 76.4132 121.068 75.4246 120.888 75.0268C125.167 77.6621 130.143 78.9402 135.162 78.6928C120.253 84.6988 115.038 83.2948 108.498 79.9447ZM149.154 71.4739C144.887 74.3989 141.679 76.4659 136.555 76.852C125.635 77.7041 118.42 72.1934 112.229 63.2566C89.8815 30.8047 101.915 -8.67895 134.554 7.79465C161.386 23.4532 163.036 61.9423 149.156 71.4641V71.4739H149.154Z" fill="black"/>
<path d="M148.473 32.3333C146.435 28.0219 148.557 33.7588 149.425 37.1693C151.712 46.4396 151.667 58.3405 145.638 65.6666C132.288 82.4464 111.033 54.0719 108.362 32.4152C105.567 8.73443 126.738 -1.20667 144.047 24.9097C146.351 28.447 147.311 30.6095 147.482 30.5296C146.853 28.3962 145.943 26.3557 144.778 24.4612C132.196 2.74013 114.026 4.73303 108.508 16.6787C98.6193 37.9201 120.069 70.5514 133.725 72.6613C148.682 75.2645 157.856 52.2175 148.473 32.3333Z" fill="black"/>
<path d="M132.654 36.9077C133.912 35.7453 134.82 34.2549 135.277 32.6042C135.734 30.9535 135.722 29.208 135.241 27.564C134.76 25.9201 133.83 24.4429 132.556 23.2987C131.281 22.1545 129.712 21.3887 128.026 21.0874C127.72 18.0044 125.698 16.189 125.164 16.5634C124.645 16.9027 125.164 18.5465 125.673 20.4497C125.883 21.1985 126.096 20.6447 122.748 20.9567C121.716 15.7073 119.201 16.0661 120.575 21.2726C119.698 21.6041 118.844 21.9941 118.019 22.4426C118.982 26.2607 122.309 34.2323 123.927 40.7726C125.546 47.3129 127.065 55.9397 128.498 59.6876C131.406 58.6112 130.756 58.6249 131.172 59.8397C132.273 63.0826 135.169 64.7927 133.256 59.1299C133.118 58.7185 133.083 58.7984 133.328 58.7711C136.838 58.3811 136.242 57.6733 136.511 58.5527C138.293 64.2584 139.773 61.6084 138.617 57.9092C138.352 57.0356 138.268 57.2852 138.685 57.0161C146.444 52.1606 139.982 39.6104 132.654 36.9077ZM123.019 25.0127C125.708 24.1937 128.217 23.5249 130.579 24.7631C131.727 25.3483 132.63 26.3226 133.127 27.512C133.623 28.7015 133.681 30.0287 133.289 31.2566C131.979 35.0084 127.478 35.377 124.879 36.0224C124.144 32.1809 123.561 28.1503 123.019 25.0088V25.0127ZM131.144 54.5942C129.085 50.1328 127.344 45.5318 125.932 40.8253C128.03 40.0656 130.296 39.8917 132.486 40.3222C140.329 42.7558 145.448 55.9222 131.144 54.5942Z" fill="black"/>
<path d="M29.8898 47.9073C23.2071 50.1479 8.81027 60.126 6.47027 63.0608C-8.73973 82.0518 17.9558 140.004 52.6385 139.269C59.8671 139.117 74.7866 129.224 81.791 122.079C102.904 100.526 64.9703 36.141 29.8898 47.9073Z" fill="#FDFE1F"/>
<path d="M38.3144 99.249C43.3259 106.523 56.3168 120.153 65.0918 120.765C70.3568 121.132 74.0852 117.805 76.1892 113.043C84.0516 95.2593 65.0742 68.3298 70.659 76.1396C79.3833 88.3173 84.816 110.928 73.2545 120.371C69.296 123.605 63.1145 124.184 56.4591 119.997C28.3226 102.303 14.4444 60.0072 35.8632 53.5917C52.6995 48.549 69.9824 73.8405 69.2277 74.3553C68.7012 74.7141 62.3267 63.4529 49.0998 56.7936C41.5611 52.997 33.9951 55.0386 30.6372 59.2896C23.079 68.8622 30.6665 88.1535 38.3144 99.249Z" fill="black"/>
<path d="M27.4096 47.6294C20.6315 51.1016 14.1717 55.1629 8.10464 59.7662C-11.1321 75.4364 10.8639 132.593 46.4377 140.106C49.7956 140.711 53.2432 140.6 56.5563 139.783C62.0475 138.072 71.3334 133.022 81.4051 124.124C83.0852 122.588 84.5143 120.798 85.6405 118.82C100.318 93.3023 62.2405 32.474 27.4096 47.6294ZM14.0755 60.0743C16.9147 58.0599 19.7013 56.0904 22.5093 54.3471C18.7735 59.5107 17.0884 65.8775 17.7805 72.213C11.9676 76.3373 13.4047 76.737 5.06264 79.4885C4.54784 66.3494 9.31949 63.4692 14.0755 60.0743ZM5.26739 82.5383C7.03409 81.4463 9.47744 79.5762 11.6497 78.3965C13.6329 77.3201 16.2283 76.3724 18.0847 75.5358C19.0301 81.7038 20.8544 87.7045 23.5018 93.3549C18.1452 96.8298 19.6681 97.5494 9.98444 100.656C7.49512 94.8926 5.90428 88.7818 5.26739 82.5363V82.5383ZM11.1505 103.208C12.8763 102.118 15.0661 100.541 17.0376 99.5189C19.5726 98.2085 23.0592 97.1087 24.8805 96.2039C27.8646 102.2 31.5174 107.838 35.7693 113.013C34.026 114.058 31.4481 116.061 29.1568 117.268C26.9592 118.424 24.0088 119.384 22.1368 120.208C17.7604 115.037 14.068 109.323 11.1505 103.208ZM24.1336 122.441C33.0276 115.755 32.2378 117.941 37.8597 115.456C41.3782 119.517 45.4639 123.049 49.9906 125.943C43.1481 132.193 44.4526 130.202 38.47 133.515C33.0423 130.746 28.1774 126.991 24.1239 122.441H24.1336ZM51.4336 136.637C48.0359 136.612 44.6692 135.988 41.4886 134.792C47.9236 128.845 49.6942 129.976 52.978 127.54C57.9569 129.827 63.5397 130.449 68.8998 129.315C64.6566 132.084 56.4432 136.834 51.4141 136.635H51.4336V136.637ZM82.6668 117.106C81.6849 118.738 80.4702 120.218 79.0612 121.499C74.9662 125.035 73.728 126.482 68.7262 127.427C57.1569 129.674 48.7582 123.707 40.7359 115.197C24.198 96.9644 8.92364 61.8956 30.3346 50.2833C60.273 38.5833 97.2645 92.5164 82.6668 117.106Z" fill="black"/>
<path d="M58.5627 90.3966C50.8056 95.7494 51.3984 95.7084 50.4078 95.1936C43.3722 91.5393 43.4599 91.8026 43.263 91.2371C43.066 90.6716 42.093 91.6505 57.6715 80.8358C58.2565 80.4321 58.2156 80.6271 65.3448 84.2561C66.9496 85.0731 66.0351 85.2369 58.5627 90.3966Z" fill="black"/>
<path d="M40.3615 87.0324C39.9188 86.658 40.1333 87.0324 39.1915 78.9204C39.0628 77.8108 38.2009 78.7254 53.7229 68.1096C54.7739 67.392 54.8188 69.7593 54.9397 70.8493C55.5422 76.3093 55.8016 76.869 55.1873 77.2843C39.5815 87.9391 40.7905 87.3951 40.3615 87.0343V87.0324Z" fill="black"/>
<path d="M68.859 89.0747C69.2802 89.4647 69.1262 89.1916 70.029 97.3426C70.1285 98.2357 71.0469 97.3193 55.4216 108.023C54.9282 108.36 54.5538 107.828 54.4875 107.225C53.651 99.5578 53.4053 99.2303 54.0059 98.8266C69.7229 88.008 68.4905 88.7393 68.859 89.0766V89.0747Z" fill="black"/>
<path d="M339.679 249.876L332.411 246.666C327.171 258.089 287.951 349.076 286.988 350.406C286.545 349.56 273.307 297.805 273.287 297.415C273.287 297.366 273.133 298.337 273.125 298.267C273.078 298.296 273.154 297.315 273.055 297.411C262.814 310.54 261.924 312.067 256.172 319.959C255.546 317.668 248.193 291.389 248.132 291.081C245.012 292.75 222.047 312.229 221.298 311.474C220.475 310.647 232.608 296.849 251.012 282.029C251.513 283.661 254.031 291.727 254.031 291.727C259.272 307.161 258.475 305.72 259.183 304.357L276.487 280.814L288.786 327.911C288.786 327.911 322.294 250.761 325.557 243.647L318.369 240.475C317.986 240.303 317.659 240.027 317.426 239.677C317.193 239.328 317.063 238.92 317.051 238.5C317.04 238.08 317.147 237.665 317.361 237.304C317.575 236.942 317.887 236.648 318.26 236.456L335.087 227.899C335.385 227.748 335.713 227.666 336.048 227.659C336.382 227.652 336.713 227.721 337.018 227.86C337.322 227.998 337.591 228.204 337.805 228.461C338.019 228.718 338.172 229.02 338.253 229.344L342.738 247.308C342.836 247.711 342.82 248.134 342.69 248.529C342.561 248.923 342.324 249.274 342.005 249.541C341.687 249.808 341.301 249.981 340.89 250.04C340.479 250.099 340.059 250.042 339.679 249.876Z" fill="#FDFE1F"/>
<path d="M336.092 227.651C338.432 227.651 337.947 228.125 342.736 247.301C342.838 247.705 342.824 248.13 342.695 248.526C342.567 248.922 342.33 249.274 342.011 249.542C341.692 249.811 341.305 249.985 340.892 250.044C340.48 250.103 340.059 250.044 339.678 249.875L332.411 246.666C327.173 258.089 287.951 349.076 286.987 350.406C286.48 349.431 273.363 297.411 273.055 297.411C259.914 314.483 265.42 307.272 256.172 319.958C255.546 317.667 248.192 291.391 248.132 291.081C245.263 292.616 222.002 312.18 221.298 311.474C219.8 309.974 239.534 291.728 243.099 288.569C243.46 288.25 249.052 283.608 251.012 282.031C251.513 283.663 254.031 291.728 254.031 291.728C259.276 307.182 258.475 305.72 259.182 304.358L276.487 280.816L288.785 327.912C288.785 327.912 322.294 250.763 325.557 243.649L318.369 240.476C317.984 240.306 317.655 240.03 317.421 239.68C317.186 239.331 317.055 238.922 317.043 238.501C317.031 238.08 317.14 237.665 317.355 237.303C317.57 236.941 317.884 236.648 318.26 236.457C336.555 227.148 335.338 227.651 336.092 227.651ZM336.092 224.377C334.23 224.377 334.669 224.434 316.776 233.532C316.083 233.885 315.473 234.381 314.985 234.987C314.498 235.593 314.145 236.296 313.949 237.048C313.753 237.801 313.719 238.586 313.849 239.353C313.979 240.12 314.27 240.85 314.703 241.496C315.282 242.36 316.095 243.043 317.047 243.462L321.2 245.297C318.455 251.318 293.222 309.426 289.571 317.868L277.91 273.348L259.65 298.091C255.339 285.147 256.92 290.112 252.722 276.446C242.979 284.019 233.786 292.274 225.213 301.149C218.597 308.217 216.357 311.143 218.973 313.777C222.632 317.459 226.732 311.478 246.129 296.539C246.519 297.904 254.807 327.38 254.807 327.38L271.672 304.493C285.5 358.282 282.518 348.924 286.525 356.581C290.755 350.788 291.215 350.634 294.021 343.173C296.262 337.208 333.715 251.687 334.041 250.967C338.487 252.931 339.066 253.344 340.579 253.344C341.414 253.343 342.237 253.152 342.986 252.785C343.735 252.419 344.392 251.887 344.905 251.229C345.419 250.572 345.776 249.806 345.95 248.99C346.123 248.174 346.109 247.329 345.909 246.519L341.424 228.558C341.13 227.366 340.445 226.306 339.479 225.548C338.513 224.79 337.32 224.378 336.092 224.377Z" fill="black"/>
</svg>
