<svg width="117" height="98" viewBox="0 0 117 98" fill="none" xmlns="http://www.w3.org/2000/svg">
<path d="M115.758 72.0605C115.014 66.2714 113.345 65.8518 110.98 65.4504C103.681 64.2468 107.194 67.174 104.276 62.5498C101.751 58.5309 98.4442 55.0685 95.1131 51.7308C92.7992 49.4126 91.3746 45.9084 88.0363 45.8963C85.5988 45.8793 83.2909 47.939 83.5513 52.3689C83.808 58.7755 87.3273 61.2687 87.9757 63.5693C84.7406 63.3042 81.5325 62.7755 78.3833 61.9886C73.4824 60.7965 68.7067 56.2436 63.7416 58.7192C61.9054 59.634 60.2386 61.5793 61.5367 63.3308C62.113 64.1178 62.6912 64.4454 66.1712 66.7938C64.9694 68.8033 64.324 70.5675 66.3928 74.346C68.7322 78.6124 70.6254 79.635 73.5453 80.1696C73.4005 81.3243 73.511 82.4968 73.8692 83.6042C75.1818 87.3209 79.9477 89.0082 83.7722 89.8928C88.0962 90.8929 93.5675 92.1437 97.9205 90.9365C99.3051 90.5539 98.6174 90.161 100.535 92.1201C102.136 93.7548 103.585 95.1909 105.742 94.8004C110.607 93.9158 117.287 84.0473 115.758 72.0605Z" fill="white"/>
<path d="M115.851 68.6592C115.241 66.8429 114.338 65.5534 112.51 65.0823C110.443 64.6467 108.321 64.5366 106.22 64.756C103.713 59.4815 99.7612 55.1812 95.746 51.0945C93.535 48.8193 91.927 44.9972 88.0431 44.9688C83.4007 44.921 82.0221 49.8933 82.8625 54.5019C83.6653 58.9742 86.2305 61.8354 86.8323 62.7962C83.7035 62.2955 80.6055 61.6188 77.5529 60.7693C73.7756 59.4755 69.6641 56.4501 65.4709 57.1585C63.2133 57.5678 60.688 59.1564 60.2037 61.3408C59.6098 64.0113 62.2979 65.3033 64.9194 67.073C63.9047 69.0945 63.6413 71.2468 65.5751 74.7922C67.3683 78.0864 69.3039 80.2502 72.7712 80.9518C72.6624 82.0805 72.8248 83.2187 73.245 84.2719C73.6652 85.325 74.331 86.2624 75.1869 87.0061C79.0985 90.5382 92.7037 93.8971 99.0286 91.2538C101.4 93.6755 103.587 97.3656 108.246 94.6357C115.637 89.9739 118.566 77.0747 115.851 68.6592ZM111.826 88.8842C110.419 91.1993 107.669 94.3046 105.021 94.3409C103.154 94.3663 101.385 92.1777 99.9628 90.8052C104.274 88.444 106.336 82.1899 106.147 82.1064C106.046 82.0598 105.651 82.753 104.916 83.9778C101.982 88.7649 99.5136 91.0825 93.1959 90.89C89.6911 90.7852 79.8947 89.2934 76.1307 85.9684C75.4335 85.3851 74.8817 84.6474 74.5191 83.8137C74.1559 82.9804 73.9917 82.0739 74.0396 81.1662C81.1915 82.1954 85.2775 83.0618 85.3611 82.7209C85.4089 82.5308 83.8705 81.9411 81.3047 81.2485C73.4214 79.1356 71.55 80.2332 68.7851 77.0032C67.6541 75.6713 66.0001 72.9917 65.6622 70.9259C65.4705 69.8909 65.6312 68.8215 66.1187 67.8885C72.7361 72.3548 71.7317 72.4123 82.854 73.4585C89.3248 74.1057 89.3424 73.6401 83.0029 72.4389C70.9725 70.2273 75.1239 72.3118 63.318 64.2353C62.3742 63.5888 61.4012 62.7823 61.6228 61.6617C62 60.1687 64.0082 58.9015 65.7161 58.5952C69.3251 57.9855 73.1823 60.7929 77.0873 62.1503C83.124 64.1155 93.6397 64.6065 93.6609 63.9908C93.67 63.7607 91.4523 63.5185 88.3676 63.0427C87.7979 61.4377 83.8633 57.644 84.0776 51.6915C84.1545 49.9303 84.396 48.2938 85.8 47.1859C86.3638 46.7417 87.0464 46.4745 87.7619 46.4179C88.4774 46.3613 89.1935 46.5179 89.8201 46.868C91.9391 47.9766 92.3023 49.653 95.4675 52.8212C102.118 59.602 108.857 67.4913 107.413 77.22C107.27 78.7941 106.693 80.4578 106.815 80.5038C107.026 80.5831 110.266 74.1353 106.642 65.6866C108.171 65.6357 112.103 65.7871 113.268 66.7709C115.651 68.6798 117.126 80.1957 111.826 88.8842Z" fill="black"/>
<path d="M60.994 59.6464C60.3413 55.9 56.4163 57.9445 50.3899 55.8164C46.0792 54.321 45.6233 52.4605 39.56 54.5081C38.0748 55.0094 39.6811 54.8465 39.8021 49.7107C39.9063 44.2061 36.5825 41.8322 33.9373 42.1949C31.7245 42.4976 30.6553 44.6505 29.3579 46.4819C25.4226 52.0053 15.0092 56.6362 10.9868 62.8606C8.46635 66.7638 10.9401 65.6486 6.94794 65.8877C5.24063 65.9925 4.00555 66.251 2.93576 67.4407C1.022 69.5669 1.08254 72.2236 1.49968 75.0987C2.77108 83.7606 6.8438 98.0493 14.8694 94.533C16.8806 93.6364 17.9571 92.3692 19.071 91.2189C23.234 93.2313 27.5331 91.3212 32.1253 89.2815C34.1014 88.4024 33.4391 88.538 34.2037 88.8408C37.1988 90.0159 39.4982 86.9234 44.7776 85.5309C46.4606 85.0913 48.3823 84.8141 49.8087 83.8236C51.8817 82.3839 52.6602 78.7797 49.7887 75.465C53.2396 72.8962 51.4445 68.2538 48.263 66.0627C47.2096 65.3265 47.8259 66.0445 51.0637 66.1644C55.9798 66.34 61.798 63.9825 60.994 59.6464Z" fill="white"/>
<path d="M61.9093 59.4961C61.8247 58.8509 61.5699 58.2398 61.171 57.7257C60.7721 57.2116 60.2435 56.8129 59.6395 56.5707C57.905 55.8889 56.6033 56.3533 53.3957 55.7231C46.8958 54.4607 46.3455 51.3991 40.0884 53.8057C41.4651 48.6129 40.6636 42.7318 35.7329 41.3907C31.3133 40.1617 29.5255 45.0608 27.8957 46.8505C22.6284 52.9175 11.9184 57.2124 9.06684 65.4184C6.11537 65.2906 3.72938 65.1574 1.94941 67.5132C-0.0987511 70.197 0.36864 73.6341 0.863881 76.8368C1.88282 83.1859 3.99395 90.6745 8.88763 94.7532C12.1569 97.1749 16.3126 95.2273 18.8693 92.0197C22.5685 93.8033 26.1054 92.9012 30.2024 91.0843C34.1376 89.325 33.2095 89.3813 33.8785 89.6555C35.3558 90.2609 37.0425 89.9213 38.4919 89.2638C40.4026 88.4041 41.9592 87.0776 46.354 86.0732C49.5404 85.2777 51.9082 84.1964 52.3017 80.9071C52.6831 77.7837 50.7149 75.9123 50.8063 75.836C52.8999 74.0851 53.0204 71.1106 51.7562 68.6798C50.5666 66.3871 49.5718 66.6771 51.0176 66.7909C56.5754 67.1917 62.769 64.5635 61.9093 59.4961ZM48.4893 83.9524C46.3358 84.8799 44.1339 84.7394 40.4535 86.6096C38.7728 87.453 37.2314 88.5639 35.4841 88.55C32.2953 88.544 30.6812 83.6182 35.1778 79.3862C40.1677 80.8484 41.0214 80.3937 43.7749 79.1895C46.1197 78.1639 48.2187 77.6523 49.9744 76.4766C51.5825 78.5205 51.9463 82.4685 48.4893 83.9524ZM60.0252 62.1812C58.1205 65.3548 51.9548 66.2872 48.3253 65.2156C44.8888 63.2382 40.7998 63.3739 40.7816 63.6463C40.7489 64.081 51.9324 65.1841 51.0612 72.7544C50.955 73.2673 50.7319 73.7488 50.4091 74.1614C48.5263 76.1593 46.1929 76.5662 44.0733 77.4719C40.6224 78.9455 40.5376 79.2966 36.3111 78.1893C27.2479 75.8021 30.0964 71.601 33.1629 70.7692C35.9654 70.0215 38.1329 71.4957 39.6973 70.8297C40.1544 70.6481 44.6921 68.3123 44.545 67.9939C44.3972 67.6754 39.7942 69.6285 39.3243 69.769C38.197 70.1002 35.8637 68.6387 32.8087 69.3858C28.5023 70.4755 25.8336 76.1448 34.0904 79.0363C30.6177 82.2675 30.4076 86.3693 32.3849 88.593C28.3286 90.3941 23.4294 92.7741 19.4348 90.8022C16.6759 89.5381 15.0715 86.7271 13.5373 84.4452C12.4899 82.8711 12.3834 83.1096 13.036 84.7104C14.1658 87.4348 15.6152 89.8838 18.0466 91.5317C15.7883 94.0086 12.295 95.7243 9.68437 93.6949C3.5314 88.2515 1.26225 74.0682 1.95063 70.6354C2.28301 68.8669 3.3528 67.3267 4.7356 66.8163C6.04955 66.4438 7.41615 66.2916 8.77986 66.3659C6.95147 73.4325 11.4111 81.1989 11.5648 81.1256C11.7907 81.0263 9.99072 77.372 9.41193 73.1485C7.78817 61.155 17.9073 57.6199 26.3034 50.3898C30.9858 46.3389 30.654 44.5323 32.7512 43.1695C35.1893 41.6244 39.3946 43.6575 39.2808 49.7021C39.1851 53.6041 37.9343 56.5489 35.6754 59.7134C34.1903 61.9589 32.0361 63.6801 29.5182 64.6332C27.5724 65.3954 26.264 65.6805 26.2967 65.8828C26.3409 66.154 32.4116 66.2278 36.7374 60.5047C38.0215 58.8417 39.0304 56.9835 39.7257 55.0008C43.8427 53.5895 45.0535 53.9897 47.6 55.2012C53.5247 58.1302 57.4563 57.2499 59.0843 57.9196C60.679 58.4765 60.8685 60.7717 60.0252 62.1812Z" fill="black"/>
<path d="M29.2902 77.9683C27.8118 71.0283 24.7943 69.7175 25.1733 69.2544C25.3126 69.0503 29.1013 71.0755 30.512 77.7086C31.6133 82.8838 30.5937 87.8265 30.2347 87.7799C29.8224 87.7266 30.4072 83.2107 29.2902 77.9683Z" fill="black"/>
<path d="M20.8613 82.8482C25.2918 79.4911 24.4333 73.4695 23.9787 73.5246C23.8243 73.5386 23.8146 74.345 23.6275 75.591C22.4275 83.4652 16.4229 83.6044 16.6602 84.3019C16.7008 84.423 17.5078 84.377 18.7883 83.9634C20.1063 83.6843 21.4711 83.7152 22.7751 84.0537C25.1968 84.6022 26.7212 86.0516 26.9434 85.8457C27.2534 85.5575 24.8371 82.6273 20.8613 82.8482Z" fill="black"/>
<path d="M57.3401 13.771C55.4887 9.92718 32.4528 6.62396 31.1578 11.853C30.7515 13.4956 28.0265 36.8875 27.9399 37.6915C26.9646 46.8638 25.9601 54.8954 31.8007 60.311C35.7148 64.0319 37.413 62.1702 36.9117 66.0541C36.8591 66.467 34.5221 87.3337 34.2842 87.789C33.6467 88.9913 30.1975 87.9052 25.5315 89.9685C21.6913 91.6673 44.2943 94.5946 46.6755 92.963C48.2272 91.9204 41.7146 90.3778 39.0144 89.2838C38.3278 89.0028 37.8641 88.8382 37.9507 88.0124C40.7962 61.7404 39.6828 63.9127 42.7178 62.772C45.8883 61.4667 48.658 59.3476 50.747 56.6287C52.665 54.0545 53.3231 51.6128 53.9673 48.4258C56.1359 37.7 56.3224 28.7076 56.5234 28.9237C57.7143 15.1151 57.9897 15.0303 57.3401 13.771Z" fill="white"/>
<path d="M31.8778 88.2982C31.1694 88.3732 25.9712 89.0695 25.3585 89.6053C22.8835 91.7691 32.8216 92.5041 36.0389 92.963C38.8426 93.3632 44.636 94.7478 46.7628 93.2984C47.0153 93.1265 47.0765 92.96 46.8839 92.6458C46.2083 91.5481 44.8679 91.094 43.634 90.7205C37.0651 88.7292 38.1294 89.5278 38.4158 86.6435C39.0927 79.8264 39.6981 72.9899 40.5033 66.1867C40.7909 63.7535 41.7263 63.455 44.2303 62.4706C48.0155 60.983 51.691 57.6592 53.0091 53.7215C54.3931 49.5846 56.9129 31.9993 57.0745 28.9595C57.112 28.2505 56.8784 27.9109 56.1876 28.0967C53.9559 28.6961 53.494 30.5863 53.0575 30.8097C52.6004 31.044 52.067 30.5675 51.5597 30.6438C50.8138 30.7582 50.6733 31.9049 49.9638 32.161C49.3444 32.3838 48.6457 31.7977 48.0264 32.0272C47.542 32.2046 47.3544 32.7846 46.9826 33.1424C46.0926 34.0003 45.1088 33.1388 44.8212 33.0964C44.0463 32.9819 43.7448 34.2267 42.9838 34.4102C42.2118 34.5972 41.5186 33.5825 40.7509 33.7854C40.1921 33.9331 39.9227 34.665 39.353 34.7637C38.5962 34.8951 38.0586 33.8199 37.2945 33.8853C36.6516 33.9397 36.2926 34.771 35.6502 34.84C34.8813 34.923 34.3461 33.8713 33.5754 33.9385C32.6321 34.0233 32.8005 35.133 30.4665 33.9664C28.7338 33.1 27.9933 33.7315 27.8402 35.3419C26.9151 45.0893 27.1094 42.3273 27.1336 48.2412C27.1191 49.2765 27.1609 50.3111 27.2584 51.3416C27.5491 53.6666 28.3874 55.8895 29.7042 57.8277C31.0211 59.7658 32.779 61.3638 34.8335 62.4905C37.4308 63.8939 37.0094 64.0968 36.8356 66.3568C36.7145 67.9164 36.7369 67.5961 34.1572 87.0431C34.0834 87.5844 34.4436 88.0263 31.8778 88.2982Z" fill="#92FCFF"/>
<path d="M57.4378 12.2938C54.3562 9.55965 39.0806 6.51858 32.539 9.25935C30.6391 10.0597 30.3334 11.0914 30.0434 12.6613C30.0307 12.7309 26.6609 39.753 26.5258 47.4377C26.3926 61.4491 35.8198 62.9718 36.3132 64.0785C36.7431 64.8855 36.4113 65.0793 33.9436 85.3896C33.6741 87.6133 33.817 87.5691 33.0838 87.6363C21.8138 88.7534 22.2842 91.347 28.169 92.6184C31.1743 93.2475 40.3774 94.7199 44.9823 94.3681C45.9573 94.3228 46.8929 93.9697 47.6547 93.3595C49.9729 90.7973 39.5656 89.0083 38.9038 88.1703C41.1239 65.9511 41.0979 65.8185 41.4073 64.8692C41.6864 63.9284 42.5467 64.2032 45.1452 62.7587C52.6174 58.5964 54.2194 53.4169 55.5634 45.6371C57.1067 36.7979 58.7117 15.7199 58.7117 15.6539C58.6983 14.3213 58.4368 13.1686 57.4378 12.2938ZM41.9479 62.6279C39.3954 63.6862 39.9748 62.6848 37.6494 86.796C37.3551 89.9576 37.3691 89.0046 43.6322 91.2877C44.604 91.6195 45.5443 92.0371 46.442 92.5355C46.6237 92.7141 45.3068 93.035 44.2861 93.0707C38.6029 93.3443 24.0575 91.0219 25.8381 90.2899C27.8206 89.5314 29.9032 89.0663 32.0201 88.9096C34.397 88.6595 34.5696 88.7836 34.9413 86.644C37.4889 64.4739 38.0508 64.0876 36.576 62.9809C36.0753 62.6085 31.6526 61.0829 29.2188 56.1232C27.6762 53.0004 27.6029 50.2766 27.6519 47.4571C27.7658 42.9315 28.221 38.6784 28.7659 34.1213C29.1958 34.2605 29.6402 34.352 30.09 34.3931C30.9981 34.4658 30.9443 35.1632 31.8657 35.2335C32.7896 35.2825 32.8259 34.5881 33.7377 34.6359C34.6501 34.6559 34.635 35.3679 35.5625 35.3727C36.49 35.3776 36.4833 34.6819 37.3963 34.6535C38.3093 34.625 38.3456 35.3194 39.2731 35.2546C40.2007 35.1899 40.1401 34.4954 41.0477 34.3883C41.9552 34.2811 42.0539 34.9731 42.9772 34.8175C43.9004 34.6619 43.7709 33.982 44.6627 33.7816C45.5545 33.5812 45.7258 34.266 46.6297 34.0069C47.5336 33.7477 47.3314 33.0927 48.1947 32.796C49.0581 32.4993 49.3069 33.1562 50.1769 32.796C51.0469 32.4358 50.7684 31.8061 51.5924 31.409C52.4164 31.0118 52.7252 31.6124 53.5613 31.1813C54.3713 30.7042 54.0178 30.1037 54.8054 29.6393C55.2626 29.3773 55.6993 29.0813 56.1119 28.7536C53.9814 51.5007 53.0267 58.0157 41.9479 62.6279ZM57.1145 17.6367C56.9807 18.5836 56.9716 18.8548 56.1858 27.9816C55.9618 27.7528 55.1009 28.0712 54.1879 28.6422C53.4402 29.1089 53.7792 29.6859 52.9982 30.1466C52.1918 30.562 51.883 29.962 51.0899 30.3446C50.2968 30.7273 50.5747 31.3557 49.7368 31.7026C48.8989 32.0495 48.6512 31.3896 47.8194 31.6784C46.9875 31.9672 47.1903 32.6241 46.3179 32.8723C45.4455 33.1205 45.2748 32.4388 44.4138 32.6301C43.5529 32.8214 43.6831 33.5019 42.7883 33.6533C41.8934 33.8046 41.7948 33.1139 40.9163 33.2174C40.0378 33.3209 40.0996 34.0123 39.1944 34.0777C38.2893 34.1431 38.2524 33.4474 37.363 33.4723C36.4736 33.4971 36.4809 34.1952 35.5728 34.1903C34.6646 34.1855 34.6792 33.4747 33.7855 33.4553C32.8913 33.4087 32.855 34.1019 31.9475 34.0535C30.7324 33.9608 31.3662 32.8941 28.8767 33.2234C28.884 33.1629 31.359 12.7999 31.5479 12.0116C32.456 8.17382 48.4393 9.14614 55.7771 12.8907C57.4838 13.7928 57.4433 15.0787 57.1145 17.6367Z" fill="black"/>
<path d="M54.945 14.5C53.9418 13.4768 52.2485 13.0216 50.833 12.7673C50.5757 12.7225 47.0896 12.2006 47.0551 12.3816C46.9485 12.9562 52.5039 13.2329 54.2464 15.1636C55.4009 16.4168 54.9051 18.1744 50.6447 18.0854C42.1911 18.0085 30.5717 14.8972 34.7685 12.6692C36.3935 11.827 39.4757 12.0353 40.7689 11.9518C43.0599 11.8712 43.1252 11.6969 40.7883 11.4674C38.8963 11.3421 36.2222 10.9449 34.3387 11.8077C33.1884 12.3647 32.5508 13.432 33.0872 14.5757C35.2062 18.3838 51.5994 20.6875 54.7798 18.3178C56.0076 17.4309 56.2376 15.8005 54.945 14.5Z" fill="black"/>
<path d="M95.8979 68.3153C91.3571 41.9955 87.3425 27.2848 86.8449 24.3793C86.837 23.8083 86.6258 23.2588 86.2491 22.8294C82.1873 19.1557 58.5265 24.0403 57.3962 32.6979C57.154 34.5639 67.3416 61.5769 69.8959 67.498C70.9251 69.8852 72.2764 74.8406 74.5946 76.0896C76.6313 77.1867 84.899 77.3211 92.9282 72.4328C95.8924 70.6299 96.2532 70.3732 95.8979 68.3153Z" fill="white"/>
<path d="M67.9588 63.182C69.4264 65.6613 69.4518 67.529 69.7848 68.6309C70.0366 69.467 70.2661 69.8327 72.6073 74.2656C74.0561 77.0088 74.9788 76.6758 78.0471 76.7267C80.6383 76.7697 81.5138 77.4859 85.9449 76.0165C88.5174 75.1635 93.563 73.1758 95.5434 71.3353C95.7692 71.1766 95.9396 70.951 96.0303 70.6903C96.121 70.4296 96.1275 70.1469 96.0489 69.8823C95.5494 66.3145 95.2842 62.5687 94.4324 59.0724C93.5848 55.5893 92.9031 52.073 92.2644 48.5464C90.4832 48.0409 89.4891 48.8237 88.8964 48.7752C88.1347 48.7147 87.6189 47.7048 86.8676 47.8423C86.4292 47.9222 86.1253 48.3835 85.6815 48.4295C84.9363 48.507 84.5312 47.4124 83.7865 47.3398C83.1502 47.2792 82.6265 48.0021 81.9927 47.9149C81.4677 47.8423 81.1905 47.2695 80.7745 46.9402C79.824 46.1907 78.9443 47.0068 78.6555 47.0413C78.0216 47.1182 77.8043 46.1331 77.2122 45.8964C76.3864 45.5622 75.4607 46.8512 74.7033 46.3808C74.3358 46.1531 74.2759 45.6288 73.9574 45.337C73.2188 44.6607 72.0709 45.6676 71.6065 45.6573C70.837 45.6391 70.7589 44.3326 70.0233 44.105C69.5196 43.9494 69.0117 44.3956 68.4861 44.3592C67.6912 44.3041 67.3292 43.2404 66.5627 43.0273C65.8574 42.8287 64.9601 43.3906 64.4358 42.8759C64.0913 42.5399 64.1573 41.9145 63.7844 41.6094C63.3073 41.2183 62.5735 41.6699 61.9826 41.498C61.0055 41.2195 60.994 39.5225 59.0088 39.4934C61.7144 47.6667 60.6985 44.3054 62.5941 49.2105C63.4641 51.4573 64.5872 57.4862 67.9588 63.182Z" fill="#FFC5F6"/>
<path d="M75.3134 32.836C74.5166 32.5835 73.1339 33.2065 69.7749 34.0426C68.127 34.4525 62.9984 35.6433 61.3661 35.1808C60.1934 34.8484 59.4009 34.0117 59.6237 32.8317C60.3502 28.9794 70.7031 25.4013 70.8477 25.8088C70.9083 25.9904 61.0398 29.9257 60.6481 32.9867C60.263 35.966 70.1255 32.4921 73.8343 31.6675C75.6791 31.257 76.0623 31.7081 78.4671 33.1847C78.8358 33.3954 79.1924 33.6267 79.535 33.8773C79.532 33.6158 78.9611 31.4296 78.5004 29.8712C79.8359 29.3145 81.0848 28.5696 82.2092 27.6589C83.8905 26.433 84.255 25.4503 82.2807 24.8479C79.4527 23.984 73.1151 25.5745 73.0424 25.2881C72.9443 24.9048 77.9089 24.0282 79.4333 23.8254C83.4437 23.292 86.8299 25.4467 82.8558 28.5174C81.9422 29.2806 80.9519 29.9469 79.9007 30.5057C80.135 31.0633 80.4268 32.6495 81.6565 36.9087C81.309 36.6593 76.7622 33.2955 75.3134 32.836Z" fill="black"/>
<path d="M96.8558 68.1493C94.4571 55.6169 92.9308 46.857 87.8955 26.4268C87.0908 23.1684 87.4196 22.5333 85.3 21.7105C77.9513 18.9407 55.634 24.4719 56.4713 33.6683C56.5282 34.588 67.2636 65.0223 70.9368 72.9043C72.7924 76.8893 74.286 77.7302 78.1045 77.683C84.2213 77.629 90.1737 75.696 95.1551 72.1457C96.9521 70.8877 97.1942 70.146 96.8558 68.1493ZM57.7857 33.4946C57.6313 31.8545 58.8149 30.0158 60.0863 28.7861C67.0766 22.2015 84.6346 20.6861 86.1518 23.3494C86.4031 23.792 91.4566 47.2893 91.6007 47.9564C89.5222 47.4152 90.0526 48.4378 88.8884 48.3094C88.0202 48.1883 88.1195 47.5024 87.2622 47.3728C86.4049 47.2432 86.2935 47.9256 85.4283 47.776C84.5632 47.6265 84.6891 46.9399 83.8336 46.7813C82.9782 46.6227 82.845 47.2996 81.9853 47.1294C81.1255 46.9593 81.2666 46.2746 80.4111 46.0935C79.5557 45.9125 79.4104 46.5912 78.5531 46.4035C77.6958 46.2158 77.8484 45.5347 76.9941 45.344C76.1398 45.1533 75.9861 45.8284 75.1306 45.634C74.2751 45.4397 74.4295 44.761 73.5734 44.5654C72.7173 44.3699 72.5714 45.0498 71.7214 44.8306C70.8714 44.6114 71.067 43.9316 70.246 43.6894C69.4287 43.4351 69.2125 44.0914 68.3843 43.8105C67.5627 43.5078 67.8055 42.8636 67.0094 42.5494C66.2187 42.223 65.9432 42.8708 65.1453 42.5124C64.3473 42.154 64.6476 41.5213 63.8811 41.1423C63.1146 40.7633 62.795 41.3664 62.0261 40.9504C61.1095 40.434 61.8136 39.5168 59.5959 38.8732C59.1267 37.5013 58.7671 36.4678 57.7857 33.4946ZM95.5898 69.5067C95.5245 70.2096 94.9311 70.5965 94.3402 71.0015C93.2808 71.7578 92.1679 72.4362 91.0104 73.0315C84.1811 76.5769 76.8433 76.6386 74.9229 75.7904C73.6019 75.0131 72.9347 73.7471 72.259 72.2941C70.0795 67.6323 62.4699 47.2523 60.116 40.391C61.1615 41.0776 60.63 41.5171 61.4521 41.9803C62.2434 42.4083 62.5655 41.7986 63.3526 42.1946C64.1396 42.5905 63.8424 43.2147 64.6615 43.5871C65.4807 43.9594 65.7573 43.3067 66.571 43.6422C67.3896 43.9661 67.1468 44.6108 67.9914 44.922C68.8426 45.2108 69.0593 44.5539 69.8997 44.8155C70.7473 45.0649 70.5517 45.7424 71.4211 45.9706C72.2905 46.1989 72.4582 45.5135 73.3107 45.7133C74.1631 45.9131 74.0112 46.5876 74.8672 46.7831C75.7233 46.9787 75.8783 46.2988 76.7344 46.4931C77.5904 46.6875 77.4391 47.3655 78.2994 47.5544C79.1597 47.7433 79.3074 47.0622 80.1659 47.2457C81.0244 47.4291 80.8846 48.1078 81.7497 48.2852C82.6149 48.4626 82.7499 47.7754 83.6126 47.9389C84.4754 48.1024 84.3519 48.7865 85.2249 48.9378C86.0979 49.0892 86.2124 48.3978 87.0799 48.5364C87.9475 48.6751 87.8494 49.3574 88.7303 49.4779C89.6748 49.582 89.4084 48.9124 90.8699 48.9935C91.1847 49.0135 91.5008 49.005 91.8144 48.9681C92.0184 49.9114 95.6722 68.5864 95.5898 69.5067Z" fill="black"/>
<path d="M84.7978 53.4321C88.5884 49.2655 84.8523 38.0542 77.4116 37.1999C75.232 36.9505 72.326 38.4108 70.3402 39.4564C64.5747 42.4871 69.0845 57.1197 77.0822 57.0338C78.9379 57.0138 83.7008 54.6369 84.7978 53.4321Z" fill="#FDFE1F"/>
<path d="M76.7178 36.789C74.9088 36.8017 72.7183 37.8709 71.0837 38.6713C69.7669 39.3475 68.7225 39.7078 67.9694 41.6379C65.7644 47.9313 70.342 57.0497 76.7911 57.3984C78.7333 57.5461 82.8454 55.4919 84.638 54.0994C89.7817 50.1133 84.6544 36.4875 76.7178 36.789ZM73.3879 38.4939C72.3914 39.4486 71.7709 40.7296 71.6395 42.1034C70.1913 42.8239 70.5376 42.974 68.3998 43.3894C68.8902 40.332 70.2821 39.8567 73.3879 38.4939ZM68.3151 44.085C68.5911 43.9639 69.8958 43.321 69.9745 43.321C70.477 43.1393 71.1103 42.9952 71.5723 42.8602C71.5372 44.1649 71.7048 45.4672 72.0693 46.7204C70.4177 47.4609 71.1115 47.5329 68.6263 47.9973C68.3041 46.7198 68.1989 45.3973 68.3151 44.085ZM68.794 48.6057C71.8163 47.2599 70.7719 47.9089 72.274 47.3949C72.7099 48.7219 73.3068 49.9904 74.0515 51.1722C73.6162 51.3726 72.9411 51.7655 72.3617 51.9804C72.2836 52.0591 70.8609 52.3546 70.5903 52.4242C69.8117 51.2438 69.2064 49.9579 68.7927 48.6057H68.794ZM70.9814 52.9818C71.0631 52.9412 72.346 52.2698 72.4659 52.2698C73.1391 52.0355 74.046 51.9065 74.4487 51.7661C75.0832 52.7008 75.8594 53.5311 76.7493 54.2271C74.8936 55.4447 75.3241 55.0015 73.7754 55.5936C72.6766 54.9205 71.7254 54.0321 70.9789 52.9818H70.9814ZM74.4553 55.9484C74.7974 55.7111 75.1564 55.5004 75.5306 55.3181C75.5911 55.3181 77.3317 54.6921 77.3929 54.6588C78.4508 55.2293 79.6512 55.4816 80.8493 55.3853C77.3462 56.9685 76.0724 56.7003 74.4541 55.9496L74.4553 55.9484ZM83.7995 53.7604C74.663 60.3595 66.1712 37.0505 77.5902 37.6118C78.9704 37.8074 80.2763 38.3572 81.3808 39.2077C85.8991 42.6035 87.8734 50.8192 83.7983 53.7616L83.7995 53.7604Z" fill="black"/>
<path d="M83.592 44.1123C82.3594 41.7602 86.0555 48.429 83.2403 52.1524C80.1635 56.3632 74.7951 49.6405 73.9512 44.5289C73.04 38.8378 78.0523 36.2847 82.4538 42.3711C83.0429 43.1987 83.2953 43.7091 83.3353 43.6879C83.1623 43.1816 82.9235 42.7002 82.6251 42.2561C79.3861 37.1596 75.0367 37.8195 73.8307 40.7425C72.1894 44.5446 74.8333 50.4294 78.6317 53.2053C82.7632 56.2233 86.6936 50.0383 83.592 44.1117V44.1123Z" fill="black"/>
<path d="M78.5859 46.5955C79.9142 46.8147 80.5802 45.7552 80.9259 44.4529C79.8694 42.8382 78.6397 41.3436 77.2588 39.9958C76.9355 42.0032 76.7902 44.0352 76.8247 46.0682C77.1486 46.5822 77.9872 46.4969 78.5859 46.5955ZM77.6233 41.2472C78.6181 42.2629 79.5103 43.3742 80.2872 44.5649C80.1351 45.058 79.8671 45.5075 79.5056 45.8757C79.2198 46.1306 78.7791 46.0198 78.4055 45.9871C78.0694 45.9661 77.7357 45.9157 77.4084 45.8363C77.3637 44.3034 77.4355 42.7692 77.6233 41.2472Z" fill="black"/>
<path d="M77.3056 47.6508C77.4188 47.9911 80.8468 51.66 81.5745 51.66C81.6485 51.6508 81.7215 51.6346 81.7924 51.6115C82.1291 50.6641 82.1804 49.6388 81.9402 48.6625C81.7912 47.6163 81.8148 47.3862 81.6247 46.5338C81.5218 46.0844 81.448 45.6287 81.4038 45.1698C81.0599 45.5247 80.7814 45.9374 80.581 46.3891C79.8787 47.8506 79.5929 47.3832 76.9424 46.9945C77.2584 47.5776 77.2523 47.5679 77.3056 47.6508ZM78.2016 47.8004C78.7818 47.9581 79.3894 47.9877 79.9822 47.8869C81.1325 47.6078 80.9981 45.8545 81.1864 47.3681C81.4116 49.1807 81.6151 50.1095 81.3995 50.9583C80.2297 50.0154 79.1583 48.9565 78.2016 47.7979V47.8004Z" fill="black"/>
<path d="M71.9112 13.5758C72.3031 13.2859 72.7243 13.0381 73.1681 12.8365C75.8483 11.7964 77.3341 14.3108 76.1886 15.4496C75.43 16.2045 73.2825 16.5666 70.9867 17.7102C70.7518 17.8271 67.1955 19.6307 66.9425 19.6979C67.1846 19.2577 67.4014 18.8036 67.5927 18.3393C69.2946 15.7801 69.7196 15.0415 71.9112 13.5758Z" fill="#FFC5F6"/>
<path d="M62.632 18.5383C62.9057 16.8534 63.2175 15.0819 64.303 13.7645C65.6289 12.1552 67.7019 12.8127 66.976 15.5614C66.4341 17.6132 65.2039 19.5699 62.477 21.5696C61.8413 22.0358 62.2482 20.8976 62.632 18.5383Z" fill="#FFC5F6"/>
<path d="M64.9117 13.9166C62.8623 16.4055 62.6171 21.8423 62.1128 21.7569C61.8591 21.7139 62.1994 13.7525 65.1884 12.4872C66.7401 11.8303 68.6859 13.5418 66.863 17.1006C65.189 20.3699 62.2351 21.9845 62.1128 21.7569C61.9971 21.5874 66.6293 17.9742 66.5875 14.4439C66.573 13.23 65.657 13.0115 64.9117 13.9166Z" fill="black"/>
<path d="M75.8562 13.6102C74.0127 11.8635 70.6598 14.8786 69.01 16.8438C67.5412 18.5929 66.9328 19.917 66.7845 19.8455C66.6761 19.8074 67.0496 18.3507 68.4397 16.4024C74.0956 8.47556 79.2127 13.4534 76.412 15.8757C75.7079 16.3757 74.9214 16.7481 74.0884 16.9758C70.8148 18.209 66.8995 20.0774 66.7845 19.8455C66.5883 19.4508 72.1728 16.7778 73.7402 16.1034C74.6235 15.7225 76.1069 15.332 76.1886 14.3627C76.1946 14.2202 76.1677 14.0782 76.1101 13.9477C76.0524 13.8173 75.9656 13.7018 75.8562 13.6102Z" fill="black"/>
<path d="M57.1026 8.57033C57.1026 8.57033 57.5186 3.38726 55.7755 1.53586C54.8674 0.572618 53.6947 0.861407 53.7582 2.49122C53.8563 5.0092 54.963 3.68331 51.4255 1.66905C50.2528 1.00308 47.8293 0.0755609 47.1494 1.21256C46.6826 1.99174 47.5732 3.68028 48.218 4.21367C49.1607 4.80074 50.1583 5.29468 51.1967 5.68849C52.2683 6.0911 52.7005 5.7787 55.2343 7.35584C55.5533 7.55442 57.1032 8.57033 57.1032 8.57033H57.1026Z" fill="#92FCFF"/>
<path d="M57.3762 6.63746C57.3235 4.61715 57.4162 3.11326 56.5758 1.82854C55.371 -0.0113572 53.1049 0.611023 53.3519 2.56353C53.3677 2.67675 53.3919 2.78875 53.4246 2.89833C52.4268 1.65919 51.0565 0.774364 49.5165 0.374906C46.6964 -0.246264 45.9142 1.51735 46.9471 3.30881C47.7947 4.78606 49.3143 5.29099 50.843 5.82134C52.9427 6.59931 54.9859 7.52198 56.9579 8.58271C57.1546 8.66202 57.2158 8.6608 57.2818 8.35748C57.3742 7.78911 57.4058 7.21253 57.3762 6.63746ZM51.127 5.04397C49.8283 4.5457 48.431 4.07529 47.7245 2.86019C47.4593 2.4037 47.2565 1.60272 47.6421 1.29334C47.923 1.0209 48.9632 1.11171 49.3531 1.18618C52.1865 1.70988 54.0409 4.49424 54.5876 4.96285C54.7311 5.13539 54.8395 5.23468 54.874 5.21894C55.1053 5.1142 54.122 3.22708 54.093 2.49451C54.0476 1.3224 55.2124 1.35873 55.8293 2.32863C56.4826 3.35785 56.4148 4.56387 56.7423 6.68771C56.8725 7.53531 56.9645 8.15164 57.0511 8.43619C55.2859 6.97352 53.2819 5.82599 51.127 5.04397Z" fill="black"/>
<path d="M109.182 12.5198C109.182 12.5198 110.104 38.101 110.448 44.1056L112.664 44.0099C112.78 44.005 112.895 44.0327 112.996 44.0899C113.097 44.1471 113.181 44.2315 113.236 44.3335C113.292 44.4355 113.317 44.5511 113.311 44.667C113.304 44.783 113.265 44.8947 113.197 44.9895C110.029 49.454 110.149 49.4661 109.699 49.4661C109.298 49.4661 109.486 49.5381 105.731 45.3231C105.653 45.2353 105.601 45.1273 105.582 45.0115C105.563 44.8957 105.577 44.7769 105.622 44.6686C105.668 44.5606 105.744 44.4679 105.841 44.4009C105.937 44.334 106.051 44.2956 106.168 44.2903L108.359 44.1958C107.867 35.6163 107.765 29.2532 107.363 18.5505C104.321 22.7654 102.302 25.531 99.3792 29.545C97.5998 22.9023 97.7148 23.4272 97.285 21.7168C97.176 21.2846 97.6985 20.7936 94.6496 24.4255C94.3226 24.8148 93.5925 25.7411 92.8787 26.6402C90.7803 22.981 87.6423 16.1929 88.1454 15.9647C88.4009 15.849 89.9757 18.9948 92.3907 22.9876C93.1378 24.2233 93.0203 24.0381 93.1935 23.7668C93.5876 23.1505 94.6144 21.9505 98.0751 17.3021C98.359 18.3815 98.9227 20.5907 99.1721 21.4735C99.723 23.4229 100.233 24.9026 100.233 24.9026C100.233 24.9026 108.788 12.86 109.182 12.5198ZM109.69 10.8621C109.69 10.8621 109.312 10.6042 100.535 22.8962C99.895 20.7566 99.7691 20.1476 98.4765 15.2321C93.0234 22.5578 96.8497 17.4207 93.0851 22.3689C89.4247 16.2952 89.073 14.5673 87.7761 15.128C86.8238 15.5397 87.1102 16.535 88.1146 19.0457C89.4244 22.233 90.9762 25.3153 92.7564 28.2658C97.2596 22.5941 96.7225 23.2183 96.8442 23.6724L98.9905 31.632L106.546 21.2422C106.86 30.0742 106.982 35.8524 107.394 43.3216L106.129 43.3761C105.912 43.3854 105.699 43.4407 105.505 43.5383C105.311 43.6359 105.14 43.7737 105.003 43.9424C104.866 44.1111 104.766 44.3069 104.711 44.517C104.655 44.727 104.645 44.9465 104.68 45.1609C104.728 45.4478 104.855 45.7154 105.048 45.9322C110.426 51.9677 109.338 52.0077 113.944 45.5193C114.11 45.2849 114.206 45.0088 114.223 44.7223C114.24 44.4358 114.176 44.1504 114.038 43.8983C113.901 43.6463 113.696 43.4376 113.447 43.2961C113.197 43.1546 112.913 43.0858 112.626 43.0976L111.312 43.1545C110.901 35.7004 110.273 15.4609 110.278 15.114C110.322 11.4688 109.688 10.8621 109.688 10.8621H109.69Z" fill="black"/>
<path d="M112.662 44.0096L110.446 44.1053C110.126 38.5311 109.179 12.5195 109.179 12.5195C108.895 12.7665 100.142 25.0173 100.247 24.8702C100.198 24.9374 100.307 24.605 100.276 24.665C100.267 24.6529 100.186 24.915 100.17 24.8799C98.8627 20.4966 99.2011 21.5864 98.0726 17.303C93.55 23.3815 93.7831 22.836 93.0475 23.993C92.3089 23.1308 88.4196 15.8415 88.1435 15.9638C87.7494 16.1375 89.9035 20.9198 90.3037 21.7638C91.1683 23.5958 91.8778 24.8987 92.8768 26.6393C94.1312 25.0579 96.7515 21.8624 97.2328 21.389C97.3824 22.3359 98.6399 26.7894 99.3773 29.5441C102.318 25.5053 104.261 22.8438 107.361 18.5495C107.777 29.6894 107.871 35.7128 108.357 44.1949L106.166 44.2893C106.049 44.2945 105.935 44.3328 105.839 44.3998C105.743 44.4668 105.667 44.5597 105.621 44.6678C105.576 44.7759 105.561 44.8947 105.58 45.0105C105.599 45.1264 105.651 45.2344 105.729 45.3222L109.234 49.2575C109.328 49.3619 109.455 49.4316 109.593 49.4552C109.731 49.4789 109.874 49.455 109.997 49.3877C110.079 49.3423 110.149 49.2793 110.203 49.2036L113.194 44.9886C113.262 44.894 113.301 44.7823 113.308 44.6663C113.315 44.5504 113.289 44.4348 113.233 44.3329C113.178 44.2308 113.095 44.1462 112.994 44.089C112.893 44.0318 112.778 44.0043 112.662 44.0096Z" fill="#FFC5F6"/>
<path d="M23.9111 6.91772C24.4203 6.91772 24.3252 7.00551 26.9915 11.8217C27.0488 11.9239 27.0757 12.0403 27.0692 12.1573C27.0628 12.2743 27.0231 12.387 26.9549 12.4823C26.8867 12.5776 26.7927 12.6514 26.6841 12.6953C26.5754 12.7391 26.4565 12.7511 26.3413 12.7298L24.2871 12.3545C23.6816 14.5219 23.1331 18.907 22.6391 21.1017C21.7606 25.0037 21.3677 27.4841 20.864 30.4011C18.4241 27.9794 18.9872 28.5448 18.2606 27.7856C14.8515 24.2239 13.9784 22.3453 13.887 22.4373C13.9088 21.936 13.7569 24.6671 13.3548 28.5188C13.057 31.3746 11.5501 42.1852 11.2673 44.8733C10.8163 49.1718 10.6262 51.6765 10.0286 51.6765C9.35054 51.6765 11.0645 37.8261 12.17 15.7745C14.3768 19.4023 16.1889 22.582 19.5048 26.0802C19.5175 26.0117 22.0319 12.7123 22.2335 11.9833L19.9807 11.5765C19.8669 11.556 19.7612 11.5039 19.6755 11.4263C19.5899 11.3486 19.5278 11.2485 19.4962 11.1373C19.4647 11.0261 19.465 10.9082 19.4971 10.7972C19.5293 10.6861 19.5919 10.5863 19.6779 10.5091C23.7997 6.80511 23.5818 6.91772 23.9111 6.91772ZM22.8922 6.39826C18.9829 9.90975 18.2721 10.1658 18.6184 11.3864C18.9381 12.5119 19.9661 12.4992 21.1177 12.7074C20.6666 14.758 21.223 12.5718 18.9514 24.1016C16.161 20.848 15.0864 18.8217 11.4048 12.774C9.60361 48.7135 7.74858 52.587 10.0238 52.587C11.5604 52.587 11.5882 50.5201 12.1676 44.9695C12.7494 39.3996 13.9912 32.2955 14.6002 24.9401C16.8246 27.8032 18.6748 29.5135 21.4609 32.2797C22.248 27.7112 24.9482 13.4642 24.9615 13.4025C25.4519 13.5229 25.9502 13.6035 26.4533 13.6446C26.7186 13.6435 26.979 13.5734 27.209 13.4411C27.439 13.3088 27.6306 13.119 27.7649 12.8903C27.8993 12.6615 27.9718 12.4017 27.9754 12.1365C27.979 11.8712 27.9134 11.6096 27.7852 11.3773C25.168 6.65012 25.1026 6.00534 23.9105 6.00534C23.534 6.0051 23.1709 6.14519 22.8922 6.39826Z" fill="black"/>
<path d="M26.9915 11.8202L24.4524 7.23593C24.4073 7.15476 24.3446 7.08478 24.2688 7.03118C24.193 6.97758 24.1061 6.94175 24.0145 6.92633C23.923 6.91092 23.8291 6.91633 23.74 6.94215C23.6508 6.96797 23.5686 7.01355 23.4994 7.07549L19.6755 10.5095C19.5895 10.5867 19.5268 10.6865 19.4947 10.7975C19.4626 10.9086 19.4623 11.0264 19.4938 11.1376C19.5254 11.2488 19.5875 11.349 19.6731 11.4266C19.7588 11.5043 19.8645 11.5563 19.9783 11.5769L22.2311 11.9837C21.6365 14.1233 21.0977 18.48 20.6103 20.6486C19.3571 26.2185 19.589 26.1774 19.454 26.0321C15.9661 22.2833 14.7867 20.0807 12.1676 15.7749C11.0421 38.2545 9.34269 51.6768 10.0262 51.6768C10.6244 51.6768 10.8133 49.1697 11.2649 44.8736C11.5477 42.1855 13.0528 31.3726 13.3524 28.5192C13.7962 24.2424 13.8604 22.3129 13.8973 22.4461C13.8525 22.3856 15.1954 24.771 20.8664 30.4015C21.8587 24.6438 24.0837 13.085 24.2871 12.3536L26.3413 12.726C26.4561 12.7466 26.5745 12.7343 26.6826 12.6905C26.7907 12.6467 26.8842 12.5731 26.9523 12.4783C27.0203 12.3835 27.0601 12.2714 27.0671 12.155C27.074 12.0385 27.0478 11.9224 26.9915 11.8202Z" fill="#92FCFF"/>
<path d="M50.071 43.2852C54.0983 38.5695 50.157 27.9139 43.9302 26.1582C41.015 25.336 38.6581 26.2999 35.1309 27.9745C29.2685 30.7546 32.4972 45.5319 40.6905 46.8638C41.2354 46.9837 41.7997 46.9904 42.3476 46.882C44.3758 46.5054 48.4564 44.9265 50.071 43.2852Z" fill="#FDFE1F"/>
<path d="M42.0271 25.4466C40.1103 25.3813 37.7467 26.4153 35.9685 27.1969C34.5415 27.8569 33.4148 28.1935 32.5345 30.2108C29.9203 36.7888 34.3787 46.6609 41.2067 47.3129C43.2549 47.5551 47.6987 45.562 49.6748 44.1562C55.2926 40.158 50.4837 25.4812 42.0271 25.4466ZM38.4205 27.1098C37.3213 28.0793 36.6069 29.4114 36.4075 30.8634C35.0223 31.4822 35.1887 31.7419 32.9142 32.0858C33.5577 28.9133 34.9563 28.4617 38.4205 27.1098ZM32.7937 32.8177C33.2326 32.65 34.4828 32.0797 34.587 32.0797C35.1276 31.9114 35.8063 31.7837 36.3021 31.6602C36.2077 33.0427 36.3286 34.4316 36.6605 35.7771C34.9351 36.4673 35.6283 36.5944 32.9529 36.9813C32.6662 35.6123 32.6123 34.2047 32.7937 32.8177ZM33.1043 37.6339C36.3336 36.3541 35.1627 37.0013 36.8488 36.5012C37.253 37.9281 37.8309 39.2999 38.5695 40.586C38.3679 40.6689 36.8785 41.3731 36.7411 41.3731C36.1356 41.5583 35.3425 41.6594 34.8424 41.766C34.0685 40.4794 33.4831 39.0885 33.1043 37.6357V37.6339ZM35.2329 42.3726C35.2935 42.3454 36.7023 41.6818 36.8391 41.6818C37.5657 41.4627 38.5343 41.3652 38.9642 41.2338C39.5975 42.2537 40.386 43.1685 41.3012 43.9455C39.2808 45.1564 39.7513 44.7059 38.0863 45.2654C36.9503 44.5037 35.9797 43.5204 35.2329 42.3744V42.3726ZM38.7892 45.6722C39.1622 45.4361 39.5521 45.2284 39.9571 45.051C40.0177 45.051 41.8908 44.4674 41.9611 44.4329C43.0591 45.0806 44.3197 45.4 45.5936 45.3531C41.8267 46.8758 40.4838 46.5434 38.7886 45.674V45.6722H38.7892ZM48.797 43.7597C38.8153 50.3588 30.8218 25.2638 42.9158 26.3566C44.3713 26.6252 45.7325 27.2659 46.8669 28.2165C51.5135 32.0162 53.2499 40.8185 48.7976 43.7615V43.7597H48.797Z" fill="black"/>
<path d="M49.002 33.5152C47.8008 30.9724 51.4237 38.2066 48.2755 42.0293C43.5707 47.9456 35.1128 32.1003 40.308 28.3612C40.969 27.9373 41.7393 27.7157 42.5244 27.7235C43.3096 27.7314 44.0753 27.9684 44.7277 28.4054C47.8335 30.4408 48.5388 33.1489 48.7477 33.0545C48.9293 32.9721 46.1686 26.7241 41.7732 27.3065C36.1518 28.0476 37.4456 38.2521 43.3424 42.9484C47.6222 46.3515 52.0243 39.917 49.002 33.5152Z" fill="black"/>
<path d="M45.2267 34.8014C44.9106 34.6391 44.9167 34.7287 45.0638 34.5846C45.3569 34.2767 45.5611 33.8952 45.6549 33.4805C45.7487 33.0659 45.7285 32.6336 45.5965 32.2295C45.4645 31.8255 45.2255 31.4646 44.905 31.1854C44.5845 30.9061 44.1944 30.7188 43.776 30.6433C43.6973 29.8562 43.1809 29.3925 43.0447 29.4875C42.9085 29.5826 43.0447 29.9943 43.1749 30.4804C43.2281 30.673 43.2899 30.5276 42.4302 30.61C42.165 29.2671 41.522 29.3634 41.875 30.6905C41.651 30.7765 41.4324 30.8776 41.2217 30.9932C41.4682 31.968 42.2994 34.0095 42.7311 35.6744C42.7311 35.7349 43.5926 39.7053 43.8983 40.5057C44.5189 40.2763 44.396 40.3114 44.5165 40.309C44.7314 41.3255 45.6892 41.9394 45.0838 40.2775C45.3664 40.251 45.6451 40.1923 45.9144 40.1025C46.3461 41.6766 46.8892 41.0912 46.4236 39.87C48.4046 38.6906 47.0647 35.7979 45.2267 34.8014ZM42.4968 31.6447C43.6241 31.302 44.5522 31.2287 45.0832 32.2907C45.2112 32.5893 45.2257 32.9244 45.1239 33.2329C45.0221 33.5414 44.811 33.8021 44.5304 33.9659C44.0403 34.2108 43.5114 34.3686 42.9672 34.4321C42.7819 33.4591 42.6336 32.4402 42.4968 31.6447ZM44.5722 39.2028C44.0459 38.0634 43.6008 36.8881 43.2402 35.6859C43.7761 35.4915 44.3549 35.447 44.9143 35.5569C46.8898 36.169 48.2399 39.5413 44.5722 39.2028Z" fill="black"/>
<path d="M89.532 91.3943C99.0408 92.484 101.852 89.7481 104.915 84.872C106.405 82.4999 106.114 78.7795 105.751 76.0636C104.766 68.6913 98.9597 64.7378 92.6741 63.995C87.215 63.3508 81.4901 63.5712 76.4965 61.2705C73.1061 59.7097 69.7974 56.9678 66.1364 57.6876C64.6228 57.9849 61.5103 59.6886 61.1162 61.0586C60.9654 61.7995 61.0501 62.569 61.3583 63.2594C61.6387 63.7437 61.9129 63.8751 64.5932 65.7301C66.0819 66.7594 65.5879 67.2255 65.2295 68.0265C64.7808 69.0297 64.6482 71.2032 65.5618 73.3065C65.9808 74.2721 66.6141 75.1009 67.119 76.0151C68.6362 78.7602 69.904 78.9382 73.0116 80.2374C73.3295 80.37 73.4027 80.4675 73.3949 80.878C73.2629 88.0583 82.4115 90.5757 89.532 91.3943Z" fill="white"/>
<path d="M106.148 82.1066C105.579 81.8469 103.488 88.8941 97.7787 90.4234C93.2743 91.6748 87.1286 90.1897 82.5043 89.0309C78.0932 87.8104 73.9315 85.7174 74.0398 81.164C81.1536 82.1841 85.279 83.0547 85.3614 82.7187C85.4086 82.5286 83.8314 81.928 81.2021 81.2239C75.2501 79.6371 73.0427 79.8823 71.1017 78.8821C68.2713 77.4466 64.3814 71.534 66.1063 67.8772C71.7011 71.6533 71.8894 72.246 77.6276 72.8781C78.2221 72.9386 87.6699 74.1119 87.7334 73.6439C87.7988 73.1596 78.6871 71.6751 77.7989 71.5467C72.1551 70.7149 72.72 70.5895 65.0244 65.3907C62.6208 63.7664 60.19 62.5034 62.4816 60.2646C64.382 58.3423 66.8564 58.1704 69.4634 58.9647C73.3036 60.1326 76.6335 63.3704 88.7614 64.146C91.7801 64.3276 93.6491 64.1811 93.6557 63.991C93.6715 63.5956 88.0343 63.2869 80.7038 61.5904C74.0562 59.997 74.3317 58.9441 69.8866 57.5704C66.7832 56.6253 63.7718 56.9044 61.4475 59.2384C59.5465 61.1291 59.4726 63.3631 62.4834 65.4319C64.5419 66.8456 63.9806 66.4454 64.8882 67.0575C62.53 71.5413 66.9406 78.402 70.4375 80.1814C71.1737 80.5446 71.9566 80.8037 72.7636 80.9527C72.2599 88.2723 80.6063 90.375 87.7607 91.6784C94.7334 92.9093 100.437 92.5981 104.168 86.5874C105.376 84.6579 106.309 82.1787 106.148 82.1066Z" fill="black"/>
<path d="M60.2712 56.3367C64.2622 46.7812 64.4638 46.5596 64.9294 46.3169C65.5718 45.9827 66.3927 46.4985 66.65 47.1741C67.2234 48.6817 65.6148 52.2973 65.3363 56.5456C65.1546 59.3227 64.4281 62.13 64.4318 64.8926C64.4511 72.9049 62.676 74.5995 65.4555 94.6694C65.837 97.4223 61.0922 97.636 59.1657 97.8086C56.5666 98.0453 53.7653 97.8213 51.4768 96.4651C50.0528 95.6242 56.876 64.4676 60.2712 56.3367Z" fill="#FFC5F6"/>
<path d="M55.1678 83.4842C55.2084 84.3857 56.2455 86.0312 57.5465 86.0833C58.7925 86.1329 61.5902 84.4704 62.7278 81.6243C63.1922 80.4625 63.0989 79.2946 61.2433 78.355C58.4886 76.9577 55.08 81.5547 55.1678 83.4842Z" fill="#FDFE1F"/>
<path d="M64.6952 71.6813C64.1806 87.1452 65.9218 95.5867 65.4895 95.6599C65.2837 95.6944 64.6583 92.1103 64.5881 91.629C61.4453 70.0382 66.1985 47.6276 66.8517 47.7729C67.1799 47.8462 65.1735 57.3278 64.6952 71.6813Z" fill="black"/>
<path d="M56.3621 70.8084C52.4123 85.6771 51.6143 96.2437 51.2159 96.208C50.8999 96.1795 51.607 89.4726 51.7142 88.5923C54.7171 63.8684 64.3071 46.0797 64.8108 46.3424C65.1922 46.5428 60.9966 53.3618 56.3621 70.8084Z" fill="black"/>
<path d="M63.2188 80.3796C63.1401 79.1802 62.0685 78.3587 60.969 77.8465C58.3874 76.6828 54.3771 81.7818 55.0073 83.9407C55.2679 84.7213 55.7508 85.4088 56.3968 85.9187C56.645 86.1045 56.9326 86.2292 57.2383 86.2819C59.7527 86.7959 63.4071 82.8709 63.2188 80.3796ZM62.3579 81.6001C61.4981 81.1763 61.5859 81.0552 60.9866 80.3741C61.1201 80.0958 61.1928 79.7923 61.1998 79.4837C61.2067 79.1751 61.1479 78.8686 61.0271 78.5845C62.33 79.3201 62.8858 80.1804 62.3579 81.6001ZM58.3481 78.9514C60.1414 77.7224 61.1282 78.4065 60.7698 79.7845C60.4296 81.2423 58.4643 83.1821 57.44 83.5986C53.9345 84.9736 55.8222 80.6908 58.3481 78.9514ZM56.7643 85.3956C56.3168 85.0537 55.9494 84.6181 55.6878 84.1193C56.1714 84.2743 56.6912 84.2743 57.1748 84.1193C57.2922 84.2646 57.9079 84.7641 57.9079 84.8355C58.0605 85.0783 58.1949 85.3326 58.3093 85.5954C58.0527 85.6766 57.7814 85.7007 57.5145 85.6659C57.2475 85.631 56.9915 85.5382 56.7643 85.3938V85.3956ZM58.83 85.401C58.7223 85.2702 58.1035 84.7611 58.1035 84.6896C57.9507 84.4451 57.816 84.1897 57.7003 83.9256C58.2574 83.6592 58.761 83.2929 59.186 82.8449C59.8689 83.4037 59.8144 83.0961 60.5531 84.1593C60.0488 84.6622 59.4671 85.0808 58.83 85.3992V85.401ZM60.8812 83.8202C59.7914 83.0653 60.1971 83.2178 59.5662 82.4562C60.0317 81.9851 60.4323 81.4541 60.7577 80.8772C61.3006 81.1593 61.7842 81.543 62.1823 82.0076C61.8323 82.6672 61.3946 83.2763 60.8812 83.8184V83.8202Z" fill="black"/>
<path d="M60.0571 71.1832C60.7068 72.0841 60.866 72.6598 60.349 73.5728C60.2442 73.824 60.0629 74.0357 59.8308 74.1778C59.5987 74.3199 59.3277 74.3851 59.0564 74.3641C58.8763 74.35 58.7012 74.2982 58.5424 74.2121C53.3005 72.3087 56.7382 66.5831 60.0571 71.1832Z" fill="#FDFE1F"/>
<path d="M60.7333 71.989C60.3385 71.0124 59.0883 69.5721 57.9198 69.2646C57.5739 69.1923 57.2146 69.2193 56.8833 69.3425C56.5521 69.4657 56.2625 69.68 56.0478 69.9608C54.3823 71.6633 57.766 74.9102 59.5393 74.4785C60.0188 74.2948 60.4097 73.9344 60.6318 73.4714C60.8538 73.0084 60.8901 72.4779 60.7333 71.989ZM58.5676 69.939C59.5363 70.5251 60.5456 71.7553 60.5002 72.6943C59.9716 73.6236 57.4972 71.9333 57.0855 70.5511C56.8337 69.7786 57.3277 69.1998 58.5676 69.939ZM56.8797 69.8125C56.8157 69.9946 56.791 70.1882 56.807 70.3806C56.8231 70.573 56.8796 70.7599 56.9729 70.9289C56.6278 71.3715 56.6823 71.4496 56.1617 71.7474C55.7742 70.872 56.1029 70.3144 56.8797 69.8125ZM56.2876 71.992C56.5187 71.6863 56.8064 71.4279 57.1352 71.231C57.3606 71.5792 57.6311 71.896 57.9398 72.173C57.6044 72.632 57.8187 72.5654 57.1703 73.0757C56.8285 72.7569 56.5315 72.3932 56.2876 71.9944V71.992ZM57.3889 73.2749C57.8127 72.5793 57.7848 72.7797 58.1929 72.4013C58.4753 72.665 58.8036 72.8749 59.1616 73.0206C58.7505 73.9633 58.8383 73.5359 58.5101 73.9857C58.1011 73.8107 57.7226 73.5716 57.3889 73.2773V73.2749ZM60.0933 73.5934C59.9663 73.7996 59.776 73.9593 59.5507 74.0483C59.3255 74.1374 59.0774 74.1511 58.8437 74.0874C59.2372 73.1793 59.2263 73.5014 59.4964 73.1187C59.8044 73.1968 60.129 73.1775 60.4257 73.0636C60.3525 73.2619 60.2394 73.4431 60.0933 73.5958V73.5934Z" fill="black"/>
<path d="M60.9116 65.5532C62.5378 66.0909 64.6198 63.1769 64.2069 61.8438C64.0445 61.4745 63.779 61.1599 63.4424 60.9376C63.1058 60.7152 62.7123 60.5945 62.3089 60.5899C61.5315 60.6408 60.3243 61.7288 59.8872 63.2908C59.7312 63.7271 59.7509 64.207 59.942 64.6291C60.1331 65.0512 60.4808 65.3826 60.9116 65.5532Z" fill="#FDFE1F"/>
<path d="M64.3551 61.7898C64.2359 61.4509 64.029 61.1497 63.7554 60.9169C63.4819 60.6841 63.1515 60.528 62.7979 60.4645C61.4278 60.0637 59.9276 62.3087 59.6696 63.6963C59.6052 64.0084 59.6327 64.3326 59.749 64.6293C59.8653 64.9261 60.0653 65.1827 60.3247 65.3679C62.1907 67.0849 64.7062 63.4287 64.3551 61.7898ZM63.9428 62.5914C63.3634 62.3995 63.4021 62.302 63.0201 61.9739C63.0765 61.7962 63.0945 61.6087 63.0727 61.4236C63.051 61.2385 62.9901 61.0602 62.8942 60.9004C63.7363 61.2316 64.1377 61.6966 63.9428 62.5914ZM60.4525 62.4364C61.6633 60.4385 62.9789 60.4427 62.8415 61.6384C62.6314 63.9657 58.6071 66.2766 60.4525 62.4364ZM61.3001 65.4272C60.8348 65.3305 60.427 65.0531 60.1661 64.6559C60.4682 64.7081 60.779 64.6643 61.0549 64.5306C61.4436 64.8938 61.2898 64.507 61.8571 65.3176C61.6815 65.3927 61.492 65.4296 61.3007 65.4272H61.3001ZM62.1519 65.159C61.6676 64.7134 61.9503 65.2238 61.3509 64.372C61.6555 64.1716 61.9208 63.9171 62.1337 63.6212C62.1658 63.5801 62.6744 63.8822 62.7174 63.9149C62.8469 64.0238 62.9668 64.1437 63.0764 64.2727C62.8177 64.6155 62.5058 64.9147 62.1525 65.159H62.1519ZM63.2453 64.042C62.5394 63.6842 62.7495 63.7072 62.345 63.3367C62.5836 63.0158 62.7791 62.6646 62.925 62.2923C63.0812 62.368 63.3034 62.4515 63.4669 62.5496C63.6067 62.6422 63.7418 62.7421 63.8713 62.8493C63.7177 63.2733 63.5073 63.6745 63.2459 64.042H63.2453Z" fill="black"/>
<path d="M11.9565 66.2086C12.2349 67.1685 12.7693 68.0346 13.5023 68.7141C14.2353 69.3936 15.1394 69.8608 16.1176 70.0658C18.9886 70.5501 21.5429 68.4166 24.1414 67.104C29.1531 64.5721 32.9237 65.2556 36.5853 59.6324C43.8033 48.5482 37.8235 40.9107 33.5297 42.0362C31.6935 42.5206 30.9203 44.1552 29.9396 45.5671C24.4459 53.477 9.45003 57.9632 11.9565 66.2086Z" fill="white"/>
<path d="M44.4423 68.035C38.5551 70.5536 38.7307 70.5173 38.3529 70.55C37.5864 70.6208 35.1901 69.6733 32.8495 70.1995C29.4373 70.9665 28.2725 74.4895 31.1707 76.924C32.2881 77.756 33.5396 78.3908 34.8711 78.8008C28.5837 84.5754 32.6824 91.1249 38.144 88.5875C41.4333 87.0594 39.5432 87.1896 46.1236 85.6173C48.9933 84.932 51.3563 83.6799 51.6935 80.5444C52.0144 77.5778 49.959 76.433 50.1073 75.7694C50.2108 75.3032 51.7135 73.8926 51.8751 72.1974C52.0465 70.3865 50.4669 67.0512 47.2012 65.2434C46.4747 64.842 45.4522 64.1621 44.7456 64.8384C43.9682 65.5849 43.9888 67.1511 44.4429 68.035H44.4423Z" fill="white"/>
<path d="M50.7804 75.8597C54.324 72.8053 52.7559 66.0868 45.3091 63.9878C43.3796 63.4635 40.8047 63.3545 40.7842 63.6464C40.7484 64.124 48.1165 64.5503 50.4825 69.3216C51.4058 71.1452 51.4512 73.4991 49.8426 74.7469C48.2897 76.1394 45.7862 76.7194 43.1829 77.8576C40.2471 79.1435 40.0867 78.9692 38.1203 78.6004C33.6704 77.765 27.9588 75.4583 30.9417 72.109C33.022 69.7085 36.6557 70.8025 38.2674 71.0193C39.136 71.0687 39.9964 70.8281 40.7133 70.3351C45.9545 67.5974 45.8262 67.1488 40.2804 69.4004C38.0404 70.2915 38.9231 69.6607 35.8941 69.2641C29.4463 68.4165 25.471 74.9116 32.2258 78.2644C35.0217 79.6394 34.1771 78.1433 32.2864 81.2437C29.2641 86.3469 32.5406 91.9629 38.4878 89.2663C40.3985 88.4066 41.9551 87.0801 46.3499 86.0757C49.5362 85.2801 51.9041 84.1988 52.2976 80.9096C52.3982 80.009 52.3156 79.0974 52.0549 78.2296C51.7941 77.3618 51.3606 76.5557 50.7804 75.8597ZM50.2779 82.6611C49.3395 83.8877 47.545 84.3369 46.0193 84.6947C41.4846 85.6634 39.6683 87.1406 37.8944 87.9471C32.3009 90.5316 30.3387 83.9403 35.1779 79.3863C40.2847 80.8823 40.9295 80.4034 44.6286 78.819C45.5749 78.4134 48.2539 77.6281 49.9746 76.4766C51.2865 78.1446 51.6153 80.9192 50.2773 82.6611H50.2779Z" fill="black"/>
<path d="M40.3596 46.4569C39.1185 41.6135 33.6945 38.8769 30.0129 43.8887C28.5598 45.8636 28.5816 46.5017 25.3698 49.3127C17.5102 56.1704 6.33697 60.6681 8.60975 73.2756C9.32234 77.186 11.402 81.2019 11.5673 81.1256C11.7931 81.0263 9.99315 77.3719 9.41436 73.1484C7.7906 61.1549 17.9097 57.6198 26.3058 50.3898C30.9882 46.3388 30.6564 44.5322 32.7536 43.1694C35.1917 41.6244 39.397 43.6574 39.2832 49.702C39.1875 53.604 37.9367 56.5488 35.6779 59.7134C34.1927 61.9589 32.0386 63.6801 29.5207 64.6331C27.5748 65.3953 26.2665 65.6805 26.2992 65.8827C26.3246 66.0389 27.682 66.0904 29.8197 65.5194C37.3815 63.3847 42.0579 53.1342 40.3596 46.4569Z" fill="black"/>
</svg>
