<svg width="103" height="117" viewBox="0 0 103 117" fill="none" xmlns="http://www.w3.org/2000/svg">
<path d="M32.2792 78.9878C36.24 77.1672 37.5628 75.2541 38.8942 75.578C39.2204 75.7009 39.508 75.9087 39.7271 76.1798C39.9463 76.451 40.0891 76.7758 40.1407 77.1206C41.262 81.731 35.192 89.4956 30.176 90.144C29.7031 90.2045 27.9619 90.1949 27.678 89.8146C27.4037 89.4478 27.7633 88.9337 27.6834 86.0277C27.5811 82.3231 26.8903 81.6498 27.5145 80.8392C28.1896 79.9601 29.5736 80.2313 32.2792 78.9878Z" fill="#FFC5F6"/>
<path d="M27.9206 89.0214C27.7402 90.3312 27.2351 91.5752 26.4512 92.64C26.0508 93.165 25.508 93.5639 24.8874 93.7893C24.2669 94.0147 23.5946 94.0571 22.9506 93.9114C22.3748 93.7352 22.2241 93.6414 21.7089 94.0555C18.8064 96.3809 18.3185 96.9755 14.296 96.763C10.2735 96.5505 2.81343 96.3271 3.75669 92.6358C4.08301 91.3595 5.56873 90.851 6.6246 90.0627C7.73133 89.2369 5.50093 88.8706 5.21577 86.975C5.07228 86.0221 5.61475 84.9959 5.22122 84.1168C4.85251 83.294 3.40493 82.7001 4.16838 80.7609C4.69147 79.4289 8.40032 74.7066 11.8573 73.4788C12.1118 73.4365 12.3439 73.3081 12.5149 73.1149C12.6859 72.9218 12.7852 72.6758 12.7963 72.4181C13.0991 71.0256 13.1305 69.5665 13.6712 68.2503C14.9698 65.0888 18.5092 65.0984 19.4228 68.5784C20.0748 71.0607 19.12 71.8272 20.8074 76.4611C21.1155 77.3087 21.0786 77.4904 22.0055 77.1077C25.1211 75.8218 29.5249 80.7566 27.9206 89.0214Z" fill="white"/>
<path d="M18.4963 83.8184C17.4828 81.3216 17.3787 79.0682 17.0106 79.0518C16.3017 79.0216 16.1981 84.9505 19.838 87.9062C17.4544 87.6907 15.913 90.535 16.3089 90.8728C16.6383 91.1532 17.9321 89.949 18.5417 89.4858C19.3609 88.8701 20.6819 88.6933 20.6813 88.307C20.938 88.0431 19.4693 86.3309 18.4963 83.8184Z" fill="black"/>
<path d="M38.6283 74.4232C35.7622 74.3499 35.0375 79.2575 27.3721 79.6141C26.0783 77.1428 23.7795 75.5826 21.4008 77.0374C19.6105 74.1229 20.8559 71.172 20.2081 68.533C20.0749 67.8465 19.7602 67.2083 19.2967 66.6848C18.8332 66.1613 18.2379 65.7715 17.5727 65.5561C16.7021 65.3237 15.7882 65.3048 14.9088 65.501C13.4557 65.9321 13.0749 67.4384 12.8503 68.9102C11.7278 76.2431 13.2027 69.5761 8.7116 74.8367C6.51268 77.4776 4.74846 77.787 3.97049 79.6408C3.63822 80.4476 3.55597 81.3356 3.73442 82.1897C3.91286 83.0438 4.34376 83.8246 4.97126 84.4309C4.73163 84.8515 4.57937 85.3161 4.52361 85.797C4.46785 86.2778 4.50973 86.765 4.64675 87.2292C4.975 88.2829 5.55329 89.2415 6.33227 90.0233C2.83107 90.6087 2.65005 94.8159 4.85199 96.017C5.84187 96.5619 6.93588 96.4342 7.98085 96.4408C11.4584 96.4293 17.9099 99.8918 22.6026 94.116C25.3433 95.1047 27.1748 93.5535 28.0314 90.7534C40.358 91.3891 44.7649 74.5679 38.6283 74.4232ZM5.65963 83.6639C5.26535 83.1862 5.0121 82.608 4.92835 81.9943C4.84461 81.3806 4.93369 80.7557 5.18558 80.1899C5.79101 78.8525 7.5964 78.482 9.84739 75.7818C10.5479 74.9421 10.9801 74.1386 11.9906 74.0521C13.6168 73.9358 15.335 75.9289 13.5351 79.4925C11.6818 79.9217 9.87221 81.6115 8.30657 82.4784C7.25312 83.0651 6.54114 82.9537 5.65963 83.6639ZM21.4462 93.2072C17.807 97.8182 12.5197 95.6065 9.57131 95.2608C8.5611 95.1682 7.54534 95.1519 6.53266 95.2118C5.09598 95.1924 4.45725 94.3158 4.49721 93.2563C4.6183 90.108 8.1982 90.7171 11.2919 91.1803C18.4015 92.2906 10.1041 90.1583 8.12797 89.9803C7.29611 88.7168 5.39688 87.1184 6.11916 85.4129C6.48786 84.5877 7.25252 84.4782 8.00385 84.2305C10.2403 83.498 13.1924 80.1705 14.9717 81.0072C15.4726 81.3413 15.8722 81.8065 16.127 82.352C16.3818 82.8975 16.4821 83.5024 16.4169 84.101C15.9108 88.0811 9.87402 89.2726 9.91217 89.5777C9.92246 89.6709 10.3771 89.7412 11.1908 89.6334C15.8212 89.0116 19.5155 84.911 17.0138 81.006C16.7738 80.5832 16.4407 80.2205 16.0398 79.9454C15.639 79.6703 15.1808 79.4899 14.6999 79.418C16.3128 76.5307 15.467 74.109 13.7312 73.0925C14.5049 67.7974 14.2882 66.7355 16.2135 66.8456C19.725 67.0218 18.7956 70.7452 18.9034 73.2632C19.108 78.1448 21.3856 78.5994 22.4966 81.6665C23.2038 83.5167 24.2239 89.8132 21.4462 93.2072ZM26.2969 91.5175C25.6243 93.0311 24.5956 93.4827 23.2243 93.2357C24.5623 91.0525 24.8802 88.3577 24.7149 85.8149C24.4727 81.8288 23.7801 80.3843 21.9959 77.8893C26.4573 75.7927 28.5576 86.3774 26.2969 91.5175ZM28.3354 89.505C28.8456 86.7465 28.7378 83.9092 28.0199 81.1973C27.7542 80.3358 27.7293 81.3033 31.1076 80.5731C35.2784 79.7358 37.6317 76.1257 38.5677 76.2474C41.2165 76.3612 38.6585 88.8663 28.3354 89.505Z" fill="black"/>
<path d="M62.0621 9.54068C69.2152 7.07053 77.5054 11.4345 79.2423 18.8001C80.7771 25.3085 76.7238 32.1547 70.3177 34.195C63.5975 36.3351 55.848 32.6917 53.6957 25.719C51.6015 18.9266 55.6706 11.7487 62.0621 9.54068Z" fill="white"/>
<path d="M66.3648 35.2247C60.6084 35.2247 55.0803 31.6406 53.2924 25.8406C52.3128 22.4811 52.6627 18.8735 54.2696 15.7649C55.8765 12.6562 58.6173 10.2846 61.9246 9.14103C69.3557 6.57462 77.8686 11.1389 79.6528 18.702C81.5224 26.6319 75.2992 35.2241 66.3648 35.2241V35.2247ZM54.0983 25.5923C56.1803 32.3447 63.6961 35.8616 70.1893 33.7935C80.3073 30.5708 82.7968 16.5309 72.6286 10.9325C62.1813 5.17971 50.8707 15.1269 54.0983 25.5923Z" fill="black"/>
<path d="M61.4984 30.1883C63.0425 30.7315 64.6568 31.0496 66.2916 31.1328C73.8843 31.4464 76.3508 16.037 71.1816 13.8623C70.667 13.6456 66.5307 12.5498 64.5825 13.1849C57.6327 15.4479 56.1289 28.3629 61.4984 30.1883Z" fill="#FDFE1F"/>
<path d="M73.0967 15.162C72.128 13.4825 71.0328 13.4147 69.7838 13.1138C68.1691 12.7742 65.9641 12.308 64.3955 12.8819C57.5662 15.2903 55.6361 28.0413 61.18 30.4303C62.8002 31.1283 66.4473 31.8355 67.933 31.3893C73.538 29.5881 75.9289 20.3438 73.0967 15.162ZM73.4999 20.9311C71.4112 21.0909 71.8955 20.9008 70.3571 20.6157C70.4685 19.4048 70.3959 18.1831 70.141 16.9934C70.5599 17.0067 71.1339 16.9885 71.6007 17.0303C71.7623 17.0303 72.8721 17.267 73.133 17.3094C73.4503 18.4888 73.5738 19.7118 73.4999 20.9305V20.9311ZM72.955 16.7258C71.1321 16.8529 71.3912 16.6798 69.9666 16.3559C69.6402 15.1596 68.8704 14.1326 67.8137 13.4837C70.9244 13.9911 72.0681 14.1557 72.9544 16.7258H72.955ZM61.0886 29.6323C58.4629 28.2641 58.2322 23.9564 58.8249 21.0697C60.9136 10.8985 71.8907 10.2059 69.633 22.4192C68.846 26.3115 66.8777 30.5187 62.8807 30.2329C62.2653 30.0904 61.665 29.8892 61.088 29.6323H61.0886ZM64.1763 30.5217C65.2795 30.3248 66.2982 29.8013 67.1005 29.019C67.9027 29.2261 68.2157 28.8979 69.8141 29.4713C68.028 30.9879 66.6458 30.9679 64.1775 30.5217H64.1763ZM70.3099 29.0081C68.5887 28.8156 69.1765 29.0759 67.5625 28.4996C68.2242 27.6483 68.76 26.7063 69.1535 25.7025C70.2663 25.7939 69.8934 25.4282 72.3018 25.9568C71.8312 27.0884 71.1564 28.1238 70.3111 29.0112L70.3099 29.0081ZM72.5312 25.3871C70.1041 25.4076 71.4735 25.4912 69.3866 25.0977C69.8343 23.8508 70.1389 22.5572 70.2948 21.2417C71.6231 21.3476 70.704 21.0201 73.4575 21.4905C73.3194 22.825 73.0084 24.1358 72.5324 25.3901L72.5312 25.3871Z" fill="black"/>
<path d="M64.551 29.036C66.1554 28.2568 68.9501 24.0176 68.8375 19.124C68.677 12.839 62.9073 12.46 60.5431 19.1609C60.1272 20.3457 59.8348 21.3513 60.7163 19.2275C62.9394 13.9633 66.2777 13.9288 67.5189 15.9339C69.7928 19.4927 67.1241 27.2833 64.3579 28.6431C62.1336 29.7801 59.5781 27.0847 59.9988 22.0984C60.1617 20.4244 60.1417 19.9794 59.8172 22.0754C59.035 27.4032 62.0785 30.2862 64.551 29.036Z" fill="black"/>
<path d="M63.5359 22.3956C63.723 22.5007 63.9313 22.5625 64.1454 22.5766C64.3595 22.5906 64.5741 22.5565 64.7734 22.4767C66.7664 21.832 66.3953 22.4562 65.9237 19.4399C65.7475 18.3473 65.4563 17.2764 65.0549 16.2451C64.0086 17.6357 63.1139 19.1341 62.3862 20.7149C62.3135 20.859 62.3159 20.8021 62.3795 20.9468C62.6332 21.5216 63.0317 22.0207 63.5359 22.3956ZM64.8963 17.4408C65.2872 18.8107 65.572 20.2088 65.7481 21.6225C65.4603 21.7384 65.1629 21.829 64.8593 21.8931C64.3229 22.0221 63.7011 22.3877 62.9304 20.8409C63.473 19.6456 64.1321 18.5067 64.8981 17.4408H64.8963Z" fill="black"/>
<path d="M62.7288 27.5247C63.267 27.5283 66.5339 23.3109 66.0961 22.8502C65.7934 22.5293 64.72 23.3951 63.7271 23.3054C63.2294 23.2594 62.9013 22.3785 62.4612 21.9735C62.4218 21.9376 62.3727 21.9141 62.3201 21.9058C62.2674 21.8975 62.2135 21.9048 62.165 21.9268C62.1165 21.9489 62.0755 21.9846 62.0471 22.0297C62.0187 22.0748 62.0042 22.1273 62.0053 22.1806C62.0143 22.5959 61.7171 27.518 62.7288 27.5247ZM62.5205 22.9355C63.1526 23.8558 63.5618 24.1706 65.3509 23.5077C64.6074 24.6964 63.7599 25.8168 62.8184 26.8557C62.4714 26.0414 62.4896 23.4205 62.5205 22.9361V22.9355Z" fill="black"/>
<path d="M69.576 15.5646C71.5134 14.7582 71.9263 13.9015 72.4215 12.0907C72.8792 10.4251 73.2013 7.81998 72.559 6.20893C71.7477 7.71221 72.1206 8.33096 70.6107 9.4843C68.9615 10.7436 68.4796 8.56284 68.4844 6.48743C68.4844 5.55204 69.2891 4.53068 68.7315 3.07886C68.7078 3.01832 66.8946 0.800633 66.0536 0.928378C65.9713 1.00466 66.4532 1.55621 66.538 1.84076C67.0568 3.61346 64.6412 4.39809 64.5243 4.46832C63.4176 5.13429 62.8527 4.96053 62.6548 5.592C62.5518 5.84626 62.5255 6.12513 62.5793 6.39414C62.6331 6.66314 62.7646 6.91048 62.9575 7.10557C63.4418 7.81937 63.1694 7.60686 63.4975 8.07849C63.9437 8.72146 64.3264 8.61914 64.4378 9.64898C64.5473 10.657 63.4297 10.9979 62.5815 10.7787C61.9791 10.6231 61.7908 10.0425 61.4354 9.93958C60.7767 9.74827 60.454 8.5592 60.2246 8.37152C60.026 8.05927 59.855 7.73028 59.7136 7.3883C59.6276 6.81436 59.2292 8.54952 59.2292 8.6924C59.2747 15.0664 64.3488 17.7417 69.576 15.564V15.5646Z" fill="#FFC5F6"/>
<path d="M72.9102 6.79934C72.6789 6.11823 72.4398 5.79372 72.4016 5.81309C72.2666 5.79917 72.2563 6.75211 71.5583 7.97568C70.4013 9.91729 68.5529 9.79197 69.0027 7.4084C69.1965 6.3604 69.5361 5.21251 69.2934 4.13C68.6982 1.23 65.7365 0.462917 65.6826 0.76987C65.602 0.872187 66.7778 1.87417 66.0458 3.19159C65.1722 4.78507 62.5731 3.82789 62.277 6.18422C62.0445 7.85581 63.8572 8.4461 64.1272 9.64061C64.3167 10.4022 63.4613 10.9356 62.2504 10.2176C60.1266 8.95042 59.8892 7.00881 59.6931 7.07844C59.6022 7.03061 58.6003 8.6241 59.1482 11.1179C59.495 12.8234 60.4676 14.3374 61.8745 15.3621C63.2814 16.3867 65.0208 16.8477 66.7505 16.6545C72.2182 16.1611 74.1749 10.5052 72.9102 6.79934ZM72.6529 9.74959C71.1653 19.5987 57.5438 16.6515 59.6652 7.38357C59.794 8.26875 60.172 9.09901 60.755 9.77744C62.785 12.2318 65.3532 11.3516 64.9173 9.47473C64.6261 8.0114 62.9194 7.43625 63.0786 6.28109C63.2058 5.11443 64.4759 5.11201 65.4495 4.61555C65.7669 4.46801 66.0457 4.24857 66.2636 3.97461C66.4816 3.70066 66.6327 3.37971 66.7051 3.0372C66.7771 2.69452 66.7682 2.33979 66.679 2.00117C66.5899 1.66254 66.4231 1.34937 66.1917 1.08651C66.7999 1.40327 67.3277 1.85459 67.7351 2.40613C68.1425 2.95766 68.4187 3.59487 68.5426 4.26925C68.8453 5.87727 67.6508 7.61606 68.3004 9.12176C69.2261 11.2353 72.4046 9.71629 72.5033 6.44698C72.76 7.52888 72.8103 8.64892 72.6529 9.74959Z" fill="black"/>
<path d="M32.0278 4.49248C39.1809 2.02172 47.4711 6.38626 49.208 13.7519C50.7428 20.2597 46.6895 27.1059 40.2834 29.1461C33.5632 31.2863 25.8137 27.6429 23.6614 20.6701C21.5672 13.8772 25.6363 6.7029 32.0278 4.49248Z" fill="white"/>
<path d="M36.3304 30.1761C30.574 30.1761 25.0464 26.5913 23.258 20.7919C22.2791 17.4327 22.6293 13.8256 24.2361 10.7174C25.8429 7.60923 28.5834 5.23787 31.8902 4.09421C39.3237 1.52659 47.8348 6.09213 49.6184 13.6551C51.4879 21.5838 45.2641 30.1761 36.3304 30.1761ZM36.2002 4.22075C23.3119 4.22075 18.5005 21.7086 30.2065 27.8282C40.2064 33.0555 51.1779 23.9535 48.7932 13.8495C47.4612 8.18025 42.0124 4.22075 36.2002 4.22075Z" fill="black"/>
<path d="M41.7914 25.0657C40.066 25.6106 38.2769 25.9284 36.4691 26.0102C28.0391 26.3238 25.3026 10.915 31.0402 8.73971C31.7147 8.48361 36.2645 7.4453 38.3659 8.06223C46.0688 10.3205 47.7695 23.2349 41.7914 25.0657Z" fill="#FDFE1F"/>
<path d="M36.624 7.4707C34.6842 7.56151 32.7601 7.86302 30.8851 8.36916C25.5912 10.4409 26.7985 23.7289 34.2537 26.1524C36.3122 26.9455 42.2236 25.7631 43.4774 24.5735C48.2355 20.7804 44.9286 7.53306 36.624 7.47009V7.4707ZM32.9914 8.70093C35.3399 8.23475 34.7502 8.35765 34.3373 8.60769C33.4257 9.24178 32.7472 10.1574 32.4059 11.2141C30.7537 11.5501 31.1503 11.7329 29.0573 11.5876C30.0853 8.9431 31.5105 9.02665 32.9914 8.70093ZM28.846 12.2064C29.3104 12.1392 30.0006 11.9763 30.5679 11.9158C33.388 11.9158 31.5814 11.1015 31.964 15.4757C30.2282 15.7651 30.8597 15.9733 28.4398 15.7917C28.3632 14.582 28.5015 13.3684 28.8484 12.207H28.846V12.2064ZM28.4937 16.3899C31.5856 15.9019 30.5951 16.2524 32.0403 16.138C32.214 17.4488 32.5488 18.7329 33.0356 19.9619C30.5533 20.3948 32.303 20.2707 29.5156 20.2507C28.993 19.0189 28.6489 17.7189 28.4937 16.3899ZM29.7905 20.8537C29.9164 20.8283 31.0619 20.5728 31.3174 20.5728C32.0887 20.5183 33.3038 20.6654 33.2996 20.5813C33.7402 21.5925 34.3289 22.5325 35.0462 23.3705C33.2051 23.9717 33.9189 23.6762 31.9912 23.8742C31.0743 23.0145 30.3276 21.9895 29.7905 20.8531V20.8537ZM32.5718 24.3549C34.2392 23.8052 34.7962 24.0927 35.5602 23.9154C35.4997 23.649 36.337 24.9827 38.723 25.3962C35.1885 25.9557 34.0551 25.4622 32.5718 24.3549ZM44.6622 21.4755C44.3992 22.4716 43.8287 23.3593 43.0318 24.0122C42.8262 24.1749 42.6049 24.3169 42.3713 24.436C34.4281 28.2133 30.3596 14.8533 33.463 10.1073C37.2754 4.42479 47.2692 12.5048 44.6622 21.4755Z" fill="black"/>
<path d="M43.4144 15.8987C42.6601 13.4504 45.0666 20.6271 41.4674 23.1808C37.7628 25.9337 34.0024 18.5753 34.1526 13.8772C34.373 8.54094 39.6577 7.68608 42.6546 14.077C43.0596 14.9524 43.2074 15.4695 43.2485 15.4592C43.1737 14.9571 43.0347 14.4668 42.835 14.0001C40.716 8.65779 36.5035 8.23641 34.8585 10.3675C32.3914 13.4025 33.8995 19.323 36.9418 22.8073C40.3631 26.7093 45.2779 21.9536 43.4144 15.8987Z" fill="black"/>
<path d="M40.3909 17.3272C39.4059 19.6975 39.5185 19.5316 39.4295 19.4275C37.7694 17.4822 38.1079 17.8812 37.9281 17.6572C37.8887 17.7419 37.6574 18.3044 37.4141 18.8808C37.3705 18.9831 37.1955 18.7233 39.8031 21.7735C39.8739 21.8576 39.7008 22.1973 41.3118 18.3292C40.3134 17.1656 40.4212 17.2546 40.3909 17.3272Z" fill="black"/>
<path d="M37.6825 15.9104C38.6209 13.6515 38.5592 13.7175 38.6155 13.7853C39.0066 14.2442 39.7936 15.1645 40.1405 15.5695L40.6733 14.2981L38.2135 11.4223L36.7604 14.9157C37.7842 16.1077 37.6534 15.9854 37.6825 15.9104Z" fill="black"/>
<path d="M39.2182 17.7897L39.754 16.5025L38.8513 15.4473L38.3173 16.7338L39.2182 17.7897Z" fill="black"/>
<path d="M35.8459 17.1218L36.7329 18.1637L37.2602 16.8984L36.3703 15.8558L35.8459 17.1218Z" fill="black"/>
<path d="M42.1977 16.0665C41.7999 15.6039 41.3743 15.102 41.338 15.0669C40.7537 16.4703 40.7882 16.3311 40.8318 16.3813C41.7436 17.4487 41.6928 17.4317 41.7267 17.35C42.2643 16.0465 42.2606 16.1397 42.1977 16.0665Z" fill="black"/>
<path d="M26.3847 10.3786C27.8141 11.7765 30.3805 11.9806 32.6987 10.2327C33.8623 9.35481 33.9992 8.69913 34.0349 7.37264C34.0561 6.66268 34.0027 5.95245 33.8757 5.25364C33.6534 4.78925 33.3807 4.35071 33.0626 3.94591C32.9318 3.92109 32.9348 4.09908 32.8537 4.35942C32.6327 5.06716 32.06 5.78762 31.5096 5.67925C30.0215 5.38622 30.9508 3.0529 29.2532 1.94315C28.6968 1.57989 27.3407 1.03803 27.7651 1.64649C28.1755 2.23436 28.2536 2.22649 27.9061 2.85735C27.1663 4.2014 26.5451 3.79939 26.3889 4.70875C26.1776 5.93656 27.5925 5.95714 28.0472 7.00151C28.1683 7.28727 27.7033 8.04708 26.9072 8.09491C25.726 8.16635 24.7543 6.53714 24.7518 6.83138C24.7409 8.29834 25.9149 9.91846 26.3847 10.3786Z" fill="#FFC5F6"/>
<path d="M34.2843 5.80493C33.8787 4.24414 32.8537 3.35961 32.7502 3.47161C32.6115 3.51581 32.8507 5.38356 31.5738 5.34844C30.1814 5.3442 31.7518 1.53969 28.4311 1.20489C26.8569 1.04505 27.8159 1.5633 27.8674 2.19416C27.9497 3.08111 25.7623 3.70046 26.1274 5.47498C26.3369 6.56051 27.6488 6.76999 27.6694 7.20469C27.7699 7.67026 26.8757 8.14128 25.8719 7.56007C25.0189 7.05636 24.8257 6.35345 24.7046 6.39765C24.3135 6.26809 24.0241 9.68876 27.314 11.2804C31.0247 13.1452 35.3408 9.72993 34.2843 5.80493ZM33.3157 8.58446C31.2136 12.6408 25.4572 11.0461 24.8082 7.14596C25.7012 9.10028 28.6399 8.95195 28.491 7.1054C28.3754 6.0798 27.1046 5.99141 26.9369 5.30424C26.6341 4.02861 28.7574 3.36687 28.3293 2.08518C28.0987 1.42587 27.3734 1.30841 28.3257 1.66562C29.918 2.25409 29.8284 2.98969 30.0427 4.52082C30.435 7.19318 33.4476 6.19059 33.0874 4.12911C33.4855 4.79702 33.7142 5.55213 33.7537 6.32867C33.7932 7.10522 33.6422 7.87963 33.3138 8.58446H33.3157Z" fill="black"/>
<path d="M30.5265 40.1227C29.088 42.1497 28.6969 44.9256 28.8749 47.3921C29.1249 50.8497 30.8728 56.5438 34.1875 56.8253C32.6694 58.7558 31.7079 61.0646 31.4068 63.502C31.0157 65.8432 31.7513 68.1704 32.792 70.1048C33.0227 70.5328 33.7685 70.7841 33.9968 71.0831C34.0731 71.183 34.0156 71.1304 35.2028 72.0028C35.959 72.5586 35.8827 73.4449 36.0086 73.948C36.6286 76.4218 35.7804 76.8498 34.153 80.4594C33.3121 82.4784 32.8117 84.6229 32.6721 86.8055C32.6854 87.6767 33.2545 87.7088 31.2796 89.2878C29.1352 91.0042 27.4467 93.5058 26.0863 95.8924C25.4458 97.2208 25.0648 98.6592 24.9638 100.13C24.5557 104.01 24.5006 107.274 27.5066 110.112C28.82 111.219 30.3474 112.043 31.9934 112.534C45.7548 116.666 58.9998 116.631 72.1479 113.632C77.7408 112.356 78.7834 109.007 79.855 103.885C81.055 98.1476 77.6712 81.4699 71.3251 75.4901C71.0412 75.2225 69.4701 74.1696 69.2951 73.8215C69.1135 73.4619 69.0348 73.3977 69.3339 72.7923C69.9393 71.5814 74.4195 66.6338 74.325 58.2063C74.3087 56.8023 73.9151 56.8198 74.9631 55.678C82.3342 47.6464 79.9731 39.0687 77.3273 37.6405C74.1252 35.9077 71.4952 39.912 70.8541 39.8242C70.6119 39.7916 70.0779 39.2109 69.912 39.0311C61.186 29.5501 52.4049 33.7657 52.1839 32.4495C51.8999 30.7797 43.7387 26.5563 38.1137 29.3752C37.8196 29.4697 37.5591 29.6474 37.3638 29.8867C37.1685 30.1261 37.0466 30.4169 37.013 30.724C36.941 31.2901 37.4368 31.5904 37.4974 31.8937C37.5955 32.3672 36.5287 32.1407 34.9183 33.0925C34.3255 33.443 33.7583 33.796 33.6469 34.3306C33.5137 34.7059 33.4622 35.1055 33.4949 35.5021C33.5476 35.7606 33.6929 36.1239 33.9792 36.1911C35.787 36.6149 37.7934 36.7965 39.3754 38.0933C39.5207 38.2144 39.534 38.3113 39.3524 38.4493C36.157 40.8892 36.3858 41.629 35.8882 42.0534C35.2482 42.5983 35.2573 41.8337 34.9534 41.0115C34.3413 39.3593 32.1 37.905 30.5265 40.1227Z" fill="#FFC5F6"/>
<path d="M36.6241 75.1164C37.7235 77.8736 38.5542 79.2297 41.5759 80.2626C47.3565 82.2423 53.2274 79.9768 55.6872 75.3411C57.1245 72.6324 58.5866 66.6901 56.2872 63.4286C55.9106 62.8946 55.5752 62.9443 54.9329 63.2633C50.9927 65.2268 50.2965 62.6416 48.6364 63.0999C48.0352 63.2664 46.1687 65.0482 44.5921 64.0002C43.8105 63.4801 43.4812 62.3734 42.5942 62.0628C42.2956 61.9822 41.9881 61.9399 41.6788 61.9369C39.5035 61.7552 38.6184 60.4269 38.3913 60.4233C38.1552 60.4184 37.9342 60.6903 37.8755 60.8525C37.6001 61.455 37.374 62.0789 37.1992 62.7179C36.2608 67.5092 33.9699 68.4567 36.6241 75.1164Z" fill="white"/>
<path d="M49.1566 45.5266C48.3296 39.6703 42.7941 39.8356 40.2731 43.5626C37.6698 47.4125 38.3963 54.7146 43.9953 54.6613C47.7036 54.6256 49.7178 49.5188 49.1566 45.5266Z" fill="white"/>
<path d="M61.1866 47.8207C60.2669 42.0321 54.0722 42.0691 51.1915 45.8566C48.2625 49.7066 49.0822 57.0086 55.3799 56.9554C59.5555 56.919 61.8204 51.8129 61.1866 47.8207Z" fill="white"/>
<path d="M61.6121 47.751C60.5223 40.7099 52.2243 41.3649 49.6894 47.1559C49.7082 37.8807 41.1583 39.4003 39.1422 44.3334C36.772 49.0836 38.9297 55.7475 44.1067 55.2529C44.7097 55.2304 45.3022 55.0887 45.85 54.8357C46.3977 54.5828 46.8899 54.2237 47.298 53.7793C49.5611 51.4102 48.6015 50.1079 49.0579 52.4776C49.2228 53.522 49.6574 54.5054 50.3188 55.3304C50.9801 56.1555 51.8453 56.7936 52.8289 57.1819C53.8124 57.5701 54.8802 57.6949 55.9268 57.544C56.9734 57.3931 57.9625 56.9717 58.7963 56.3215C61.1574 54.3944 62.0886 50.8242 61.6121 47.751ZM44.6159 53.993C38.38 55.2038 37.5227 43.9477 43.5722 41.7451C50.428 39.2956 50.1568 52.9486 44.6159 53.993ZM55.9483 56.2718C50.3487 56.6756 49.0561 50.9864 51.232 46.9876C52.7244 44.2026 56.8662 42.7871 59.0421 44.6821C62.5772 47.6378 60.4509 55.664 55.9471 56.2718H55.9483Z" fill="black"/>
<path d="M42.7173 47.0034C40.984 47.0034 40.9616 52.5952 42.7173 52.5952C44.473 52.5952 44.4397 47.0034 42.7173 47.0034Z" fill="black"/>
<path d="M54.3778 49.204C52.415 49.204 52.4132 54.7951 54.3778 54.7951C56.3424 54.7951 56.3418 49.204 54.3778 49.204Z" fill="black"/>
<path d="M70.4611 53.5451C72.7865 56.4935 78.2711 47.9388 72.6285 46.3205C73.0674 45.2507 73.9144 43.1008 74.8407 42.8592C76.6128 42.3961 76.1818 45.7817 76.3543 45.8258C76.5426 45.8743 77.3448 43.5858 76.2629 42.4627C76.0516 42.2582 75.7933 42.1088 75.5106 42.0279C75.2279 41.9469 74.9297 41.9367 74.6422 41.9983C73.4882 42.2526 72.8113 43.6027 72.3185 44.678C71.2051 47.0434 69.2345 51.4073 70.4611 53.5451ZM72.1696 47.5023C75.9233 48.2996 72.5329 53.2187 71.661 53.1182C71.2548 53.2193 70.5785 51.8372 72.1696 47.5023Z" fill="black"/>
<path d="M63.908 44.8086C63.7506 44.4272 61.3894 45.4795 58.889 43.2345C56.5883 41.2651 56.4557 38.5473 56.0531 38.5527C55.774 38.5564 55.5555 40.4647 56.5326 42.2459C57.6569 44.472 60.1731 45.9505 62.2545 45.6133C63.4242 45.4437 63.9764 44.934 63.908 44.8086Z" fill="black"/>
<path d="M44.7162 38.2609C48.4203 37.4417 49.7183 40.5948 50.1566 40.4689C50.3122 40.4241 50.3649 39.898 50.0035 39.1515C49.7505 38.6669 49.4037 38.2374 48.9833 37.8879C48.5629 37.5384 48.0773 37.276 47.5546 37.1158C47.032 36.9556 46.4827 36.9008 45.9387 36.9547C45.3947 37.0086 44.8668 37.17 44.3857 37.4296C43.6676 37.845 43.417 38.3105 43.5205 38.4346C43.638 38.5757 44.0624 38.3983 44.7162 38.2609Z" fill="black"/>
<path d="M57.101 59.004C53.6761 53.0666 34.0669 51.7492 37.2212 59.3273C38.1342 61.5474 40.3845 62.3187 42.6767 62.9599C43.7701 65.0486 46.6307 65.7975 48.8369 63.6955C50.0109 64.1114 51.2368 64.3626 52.4798 64.442C55.9507 64.5334 58.8277 62.1958 57.101 59.004ZM56.2873 61.1678C56.1558 61.5719 55.9317 61.9398 55.6329 62.242C55.334 62.5442 54.9687 62.7724 54.5661 62.9084C52.992 63.5744 51.2084 63.2911 49.5501 62.8878C49.7582 62.6017 50.0569 62.3943 50.3977 62.2994C51.0703 62.1262 52.7117 62.2388 52.6868 61.9264C52.6735 61.7557 51.0976 61.3549 50.2409 61.4185C49.1003 61.5311 48.7031 62.3417 47.9348 62.9411C46.2608 64.2943 44.2853 63.6628 43.5757 62.1323C43.1774 61.3143 43.1974 59.2153 40.7012 58.895C40.2665 58.8424 40.0237 58.895 40.0092 58.9798C39.9946 59.0646 40.2077 59.1729 40.554 59.3655C41.9465 60.138 41.9768 60.2736 42.2928 61.8417C41.3161 61.5425 40.3955 61.0838 39.5684 60.4843C38.4562 59.61 37.7794 58.2109 38.5628 57.0333C40.9542 53.4674 57.0356 56.5296 56.2873 61.1678Z" fill="black"/>
<path d="M63.427 53.4573C63.1291 53.4035 62.6738 55.1023 61.3147 56.6019C59.9779 58.121 58.3111 58.6882 58.3874 58.9782C58.4637 59.2682 60.5264 59.0654 62.0993 57.306C63.654 55.5921 63.7212 53.5106 63.427 53.4573Z" fill="black"/>
<path d="M37.8557 54.6827C38.0373 54.5325 37.6105 53.7049 37.3623 52.5897C37.0959 51.4781 36.9385 50.5028 36.6921 50.5064C36.3022 50.5016 36.1508 52.9699 37.246 54.2855C37.5203 54.6185 37.7691 54.7541 37.8557 54.6827Z" fill="black"/>
<path d="M47.8564 72.4066C46.8968 67.3077 43.4561 66.5388 42.347 72.8129C41.1391 80.2166 49.0703 79.6627 47.8564 72.4066ZM44.1548 76.4236C42.9185 75.2279 43.619 71.243 44.3249 69.8565C45.1077 68.32 46.6861 68.6402 46.9319 72.5253C47.1462 76.4315 45.1665 77.4262 44.1548 76.4236Z" fill="black"/>
<path d="M69.7689 73.5801C71.8234 71.3145 73.3591 68.628 74.2688 65.7079C75.1785 62.7879 75.4404 59.7045 75.0361 56.6729C76.3142 55.7042 77.3556 54.458 78.082 53.0282C79.9467 49.1153 81.8811 42.6754 79.6519 38.8824C78.1462 36.2839 74.6637 35.8286 71.8055 38.1359C70.0141 39.598 71.8001 39.4957 68.2196 36.2082C64.0815 32.3601 57.4617 31.1153 52.6376 32.2584C48.1665 25.0108 36.3734 27.3629 36.3643 30.5517C36.3429 31.0401 36.5088 31.5183 36.8281 31.8885C34.7502 32.4442 31.9441 33.9366 32.9352 35.8183C34.2762 38.0584 36.0719 36.2706 39.1414 38.5003C37.877 39.2775 36.7952 40.3186 35.9702 41.5523C35.2437 38.4949 32.2383 37.5565 30.31 39.3861C26.1435 43.2899 28.4822 56.0808 33.3372 57.2505C29.5654 61.1628 29.3311 70.2194 34.769 72.164C34.8884 73.4471 35.2383 74.6982 35.8019 75.8571C33.3547 79.2978 31.7267 83.9317 32.0833 88.1528C22.8045 93.8868 20.4549 109.222 30.8531 112.877C45.7467 117.948 63.6389 117.156 73.0515 114.116C77.2429 112.751 79.6168 110.526 80.4922 104.364C81.5983 96.1596 78.7062 80.5528 69.7689 73.5801ZM29.8541 43.5036C30.8174 38.556 34.6183 38.8194 35.099 43.0495C33.1574 47.0623 33.4189 51.9372 34.2562 56.3175C30.5698 56.22 29.147 47.0672 29.8541 43.5036ZM79.1136 104.168C78.2836 109.754 76.2893 111.554 72.6023 112.732C63.2012 115.732 45.7515 116.377 31.2939 111.582C22.2124 108.455 24.1419 94.807 32.2177 89.2177C32.3909 90.2082 32.6415 90.7664 32.7911 90.7446C33.4498 90.6568 32.3745 83.7114 36.6241 77.2647C40.8578 83.3838 50.3909 82.8662 54.6689 78.5101C56.9731 78.4235 59.0201 77.9949 60.6245 76.3378C62.4516 74.4519 62.8204 71.8159 62.5534 71.7366C62.2258 71.6155 61.6797 73.8156 59.7872 75.443C58.6998 76.3384 57.3551 76.8634 55.9487 76.9414C57.5804 74.4562 58.3704 71.5126 58.204 68.5441C58.1143 66.3071 57.5719 65.0115 57.406 65.0508C56.9108 65.1368 58.7507 78.8425 47.885 80.1781C49.7401 78.7541 49.8097 76.3717 49.4803 76.4244C49.3144 76.4111 49.2382 77.2163 48.5661 78.1941C46.561 81.0232 42.794 80.5105 41.3155 77.5281C40.8003 76.4286 40.5648 75.6416 40.4074 75.684C40.1906 75.7385 40.3232 78.0573 41.5371 79.4746C40.9036 79.2057 40.3064 78.8583 39.7596 78.4405C32.7971 73.1521 38.111 62.8707 37.2591 62.554C36.9243 62.4245 34.7957 66.6449 34.7163 70.6862C30.5843 68.2317 31.5136 59.6135 35.6336 56.326C36.133 55.927 36.4479 55.726 36.4025 55.6188C36.3734 55.5444 36.0362 55.5553 35.4828 55.7726C34.9912 51.9536 34.7412 47.6726 36.127 44.0612C37.9221 39.2856 41.6364 38.0747 41.3942 37.6025C41.3512 37.5177 41.0068 37.6025 40.3965 37.8447C38.0353 35.633 35.5694 35.8122 34.8405 35.6046C32.3885 34.9174 38.203 31.435 44.2658 33.537C46.768 34.4028 48.4148 35.7838 48.5788 35.5955C48.7974 35.3473 44.8252 31.0984 38.8987 31.544C34.1303 30.3519 45.4125 26.1448 51.1701 31.9877C52.9125 33.7544 53.4961 35.7499 53.7601 35.6712C53.9006 35.6312 53.7492 34.4888 53.1238 33.1617C56.3341 32.9064 59.5615 33.3539 62.5812 34.473C66.0872 35.6906 68.4981 38.1534 70.166 39.914C68.1832 42.7444 67.0977 47.6308 67.5409 47.7459C67.8708 47.8342 68.9176 44.801 70.41 42.1814C73.6908 36.4661 78.4973 37.1309 79.0967 41.7999C79.5683 45.4785 77.6207 51.0709 76.3051 53.2171C74.3762 56.3714 70.4052 58.4607 70.6958 58.9166C70.8913 59.2272 73.264 57.8789 73.8089 57.532C74.5069 71.3624 63.5844 77.1757 63.9095 77.7061C64.0354 77.9543 66.6909 76.6629 69.098 74.2727C77.9343 81.4216 80.0696 97.4049 79.1136 104.169V104.168Z" fill="black"/>
<path d="M34.4721 103.407C34.2609 103.205 34.0019 103.06 33.7193 102.986C33.4367 102.912 33.1399 102.911 32.8568 102.983C31.4038 103.51 31.135 106.232 31.9251 107.557C32.5705 108.673 33.811 108.409 33.7069 108.189C33.6705 108.073 32.8762 108.198 32.496 107.257C32.0407 106.228 32.407 103.542 33.4974 103.857C34.7004 104.369 34.6683 107.14 33.785 108.05C33.5367 108.307 33.9442 108.255 34.2445 108.054C35.3046 107.34 35.5825 104.583 34.4721 103.407Z" fill="black"/>
<path d="M24.3727 60.4869L11.0333 62.8196C10.2056 62.9646 9.46941 63.4323 8.98654 64.12C8.50368 64.8077 8.31372 65.659 8.45844 66.4867L12.895 91.8494C13.0398 92.677 13.5074 93.4132 14.195 93.8961C14.8826 94.379 15.7338 94.569 16.5615 94.4242L29.9003 92.0909C30.3102 92.0193 30.7019 91.8676 31.0532 91.6446C31.4044 91.4216 31.7083 91.1316 31.9474 90.7911C32.1866 90.4506 32.3563 90.0664 32.447 89.6603C32.5377 89.2543 32.5474 88.8343 32.4758 88.4244L28.0392 63.0618C27.8944 62.2342 27.4268 61.498 26.7392 61.0151C26.0516 60.5322 25.2004 60.3422 24.3727 60.4869Z" fill="#92FCFF"/>
<path d="M33.0981 88.3149L28.6621 62.9535C28.4872 61.9612 27.9258 61.0788 27.1011 60.5C26.2764 59.9211 25.2557 59.693 24.2631 59.8658L10.9242 62.1985C9.93212 62.3737 9.04995 62.9352 8.47115 63.7598C7.89234 64.5845 7.66414 65.6049 7.83656 66.5976L12.2719 91.9596C12.4266 92.8403 12.8864 93.6384 13.5707 94.214C14.2549 94.7897 15.1199 95.1061 16.0141 95.1078C16.49 95.1078 15.5745 95.241 30.0098 92.7176C30.502 92.6319 30.9724 92.45 31.3941 92.1822C31.8158 91.9143 32.1805 91.5659 32.4672 91.1568C32.7541 90.7479 32.9575 90.2863 33.0657 89.7987C33.174 89.311 33.185 88.8068 33.0981 88.3149ZM29.6193 90.9703C29.0175 91.8264 30.0982 91.4153 16.4524 93.8007C15.7899 93.9151 15.1091 93.7624 14.5589 93.376C14.0088 92.9897 13.634 92.4012 13.5167 91.7392L9.08132 66.3772C8.9659 65.7152 9.11781 65.0344 9.50372 64.4843C9.88963 63.9341 10.478 63.5595 11.1398 63.4427L23.6946 61.2468C24.1947 61.4029 24.6423 61.6936 24.9883 62.0871C25.3343 62.4806 25.5653 62.9617 25.6561 63.4778C30.4348 90.7869 30.5698 89.6208 29.6193 90.9715V90.9703ZM31.4289 90.4254C31.1048 90.8893 30.6339 91.2306 30.0921 91.3941C31.3357 89.688 31.0305 90.5223 26.2816 63.367C25.951 61.4762 24.478 61.0664 24.9193 61.0664C25.5156 61.068 26.0923 61.2791 26.5486 61.6628C27.005 62.0465 27.3121 62.5783 27.4161 63.1654C32.2045 90.5586 32.2759 89.223 31.4289 90.4285V90.4254Z" fill="black"/>
<path d="M17.357 64.3162C17.6444 64.3168 17.9225 64.4185 18.1423 64.6036C18.3622 64.7887 18.5099 65.0454 18.5594 65.3285L19.5886 71.2217C19.6165 71.3798 19.6129 71.5418 19.578 71.6985C19.5432 71.8552 19.4778 72.0035 19.3855 72.1348C19.2933 72.2662 19.1761 72.3781 19.0405 72.4641C18.905 72.5501 18.7538 72.6085 18.5957 72.636L13.3242 73.5581C13.1661 73.5858 13.0041 73.582 12.8475 73.5471C12.6908 73.5121 12.5426 73.4466 12.4112 73.3544C12.2799 73.2621 12.168 73.1449 12.082 73.0094C11.996 72.8738 11.9375 72.7227 11.91 72.5646L10.8807 66.6713C10.8252 66.3521 10.8986 66.0238 11.0849 65.7586C11.2711 65.4935 11.555 65.3131 11.8742 65.2571C17.6137 64.2526 17.205 64.3162 17.357 64.3162ZM17.0059 63.5419C8.69392 64.9895 9.55908 63.8131 11.1174 72.7032C11.186 73.0986 11.3704 73.4647 11.6475 73.755C11.9245 74.0453 12.2816 74.2467 12.6734 74.3336C12.9331 74.3912 13.2019 74.3972 13.4641 74.3512L18.7356 73.4291C19.2651 73.3363 19.7361 73.0371 20.0451 72.5972C20.3541 72.1573 20.4759 71.6127 20.3835 71.0831L19.3543 65.1899C19.3119 64.926 19.2171 64.6732 19.0754 64.4466C18.9337 64.22 18.748 64.0241 18.5293 63.8704C18.3106 63.7168 18.0633 63.6086 17.8021 63.5521C17.5408 63.4957 17.2709 63.4922 17.0083 63.5419H17.0059Z" fill="black"/>
<path d="M16.8471 67.3174C16.4968 67.3323 16.1664 67.4839 15.9266 67.7398C15.6869 67.9956 15.5571 68.3352 15.565 68.6857C15.573 69.0362 15.718 69.3696 15.969 69.6143C16.2201 69.8591 16.5571 69.9956 16.9076 69.9946C17.2579 69.9798 17.5884 69.8281 17.8281 69.5723C18.0678 69.3165 18.1976 68.9768 18.1897 68.6263C18.1818 68.2759 18.0367 67.9424 17.7857 67.6977C17.5347 67.453 17.1977 67.3164 16.8471 67.3174Z" fill="white"/>
<path d="M14.7634 67.5521C14.7594 67.3764 14.7209 67.2032 14.6499 67.0424C14.579 66.8816 14.4771 66.7363 14.3501 66.6149C14.223 66.4935 14.0733 66.3983 13.9094 66.3347C13.7456 66.2711 13.5708 66.2404 13.3951 66.2444C13.2194 66.2484 13.0462 66.2869 12.8854 66.3579C12.7246 66.4288 12.5793 66.5307 12.4579 66.6577C12.3364 66.7848 12.2412 66.9345 12.1776 67.0984C12.1141 67.2622 12.0834 67.437 12.0874 67.6127C12.0954 67.9675 12.2441 68.3047 12.5007 68.5499C12.7573 68.7952 13.1008 68.9284 13.4556 68.9204C13.8105 68.9124 14.1476 68.7637 14.3929 68.5071C14.6381 68.2505 14.7714 67.907 14.7634 67.5521Z" fill="white"/>
<path d="M13.9773 69.6907C13.6271 69.7056 13.2966 69.8572 13.0569 70.1131C12.8172 70.3689 12.6874 70.7085 12.6953 71.059C12.7032 71.4095 12.8483 71.7429 13.0993 71.9877C13.3503 72.2324 13.6873 72.3689 14.0379 72.3679C14.3882 72.3531 14.7186 72.2014 14.9583 71.9456C15.198 71.6898 15.3279 71.3502 15.3199 70.9997C15.312 70.6492 15.167 70.3158 14.9159 70.071C14.6649 69.8263 14.3279 69.6898 13.9773 69.6907Z" fill="white"/>
<path d="M16.8398 67.0038C14.6748 67.0528 14.7135 70.3131 16.8773 70.3131C19.0926 70.3113 19.0526 66.9548 16.8398 67.0038ZM16.9003 69.6798C16.7008 69.6781 16.5061 69.618 16.3404 69.5069C16.1746 69.3959 16.045 69.2387 15.9674 69.0549C15.8899 68.871 15.8679 68.6685 15.9042 68.4723C15.9404 68.276 16.0333 68.0947 16.1714 67.9507C16.356 67.7569 16.6097 67.6437 16.8767 67.6353C17.1393 67.6446 17.3883 67.7546 17.572 67.9425C17.7558 68.1304 17.8601 68.3817 17.8636 68.6445C17.8673 68.9074 17.7694 69.1617 17.5903 69.3542C17.4112 69.5467 17.1646 69.6627 16.9021 69.678L16.9003 69.6798Z" fill="black"/>
<path d="M13.4633 69.2377C15.6489 69.1869 15.5781 65.8831 13.3864 65.9285C11.1687 65.9805 11.311 69.3352 13.4633 69.2377ZM12.4026 67.6091C12.3977 67.339 12.5001 67.0779 12.6874 66.883C12.8746 66.6882 13.1314 66.5755 13.4016 66.5696C13.6714 66.5636 13.9327 66.6644 14.1286 66.8502C14.3244 67.0359 14.4389 67.2915 14.4471 67.5613C14.452 67.8315 14.3496 68.0926 14.1624 68.2874C13.9751 68.4823 13.7183 68.595 13.4482 68.6008C13.1783 68.6069 12.917 68.506 12.7212 68.3203C12.5253 68.1345 12.4108 67.8789 12.4026 67.6091Z" fill="black"/>
<path d="M13.9701 69.3747C11.8057 69.4256 11.8433 72.6846 14.0077 72.6846C16.2357 72.6846 16.1509 69.3214 13.9701 69.3747ZM14.7481 71.7359C14.5723 71.9176 14.3354 72.0278 14.0832 72.0453C13.8309 72.0627 13.5811 71.9861 13.382 71.8302C13.1829 71.6743 13.0486 71.4503 13.0049 71.2012C12.9612 70.9521 13.0113 70.6957 13.1455 70.4814C13.2359 70.3397 13.3597 70.2224 13.506 70.1398C13.6523 70.0571 13.8167 70.0117 13.9847 70.0074C14.1868 70.0028 14.3857 70.0582 14.5563 70.1666C14.727 70.275 14.8616 70.4315 14.9433 70.6164C15.025 70.8013 15.0501 71.0063 15.0153 71.2054C14.9806 71.4046 14.8876 71.589 14.7481 71.7353V71.7359Z" fill="black"/>
<path d="M17.2618 65.0665C17.1444 65.0671 17.0298 65.1023 16.9324 65.1678C16.8349 65.2332 16.759 65.326 16.7141 65.4344C16.6692 65.5429 16.6573 65.6622 16.6799 65.7774C16.7025 65.8926 16.7586 65.9985 16.8412 66.0819C16.9246 66.1645 17.0305 66.2206 17.1457 66.2432C17.2609 66.2659 17.3802 66.254 17.4887 66.209C17.5971 66.1641 17.6899 66.0882 17.7554 65.9908C17.8208 65.8933 17.856 65.7787 17.8566 65.6613C17.8567 65.5832 17.8414 65.5058 17.8115 65.4336C17.7817 65.3614 17.7378 65.2958 17.6826 65.2405C17.6273 65.1853 17.5617 65.1415 17.4895 65.1116C17.4173 65.0817 17.3399 65.0664 17.2618 65.0665Z" fill="black"/>
<path d="M18.2844 79.6947C18.5647 79.8425 20.4948 80.4213 20.7358 80.2118C21.8298 79.3708 23.301 78.9767 22.4189 77.7404C21.871 76.9733 21.475 78.4609 20.7237 77.4292C20.2799 76.7832 21.1154 76.2389 20.6256 75.7255C20.4046 75.4937 19.7459 74.8083 19.6799 74.867C19.6043 74.8356 17.4701 79.3478 18.2844 79.6947ZM20.2533 79.8067C19.6527 79.6955 19.0628 79.5335 18.4897 79.3224C18.4291 79.2619 18.5236 79.2619 20.2297 78.5723C20.5197 80.0416 20.6353 79.8861 20.2533 79.8067ZM20.5899 79.794C20.4325 77.9892 19.8955 78.608 22.2482 78.5226C22.1119 78.9053 21.0246 79.4828 20.5899 79.794ZM20.384 75.9278C20.5572 76.1421 20.3235 76.3025 20.2079 76.822C20.1664 77.1232 20.2342 77.4292 20.3991 77.6847C20.5639 77.9402 20.8148 78.1281 21.1063 78.2145C21.2976 78.2599 21.4508 78.275 22.0447 77.945C22.1271 78.048 22.1931 78.163 22.2403 78.2859C22.2972 78.4675 22.3051 78.4179 21.8673 78.3755C21.3759 78.2988 20.8775 78.2761 20.381 78.3077C19.7671 74.577 19.4135 74.7272 20.384 75.9278ZM19.6654 75.1262C19.7259 75.8581 20.0317 77.5588 20.1879 78.3616C19.6012 78.5965 19.0297 78.8671 18.4757 79.1716C18.5096 78.5335 19.3948 76.532 19.6654 75.1262Z" fill="black"/>
<path d="M22.649 79.2764C20.5258 80.8506 20.7407 80.6919 20.6511 80.6774C19.8463 80.6115 19.0658 80.3692 18.365 79.9678C18.3362 79.9508 18.3031 79.9424 18.2696 79.9436C18.2361 79.9448 18.2037 79.9555 18.1761 79.9745C18.1489 79.9939 18.1277 80.0207 18.1152 80.0517C18.1026 80.0827 18.0992 80.1166 18.1053 80.1495C18.3226 81.2465 21.2045 84.0067 21.3576 83.8123C21.6949 84 23.9991 78.2757 22.649 79.2764ZM19.0667 81.0164C18.6429 80.4522 18.629 80.7271 19.8398 80.9595C20.1389 81.0494 20.449 81.0973 20.7613 81.1018C20.8521 81.9543 21.0162 82.797 21.2511 83.6216C20.9399 83.2244 20.0094 82.266 19.0667 81.0164ZM22.5976 79.8371C22.2828 81.1271 21.8641 82.3895 21.3455 83.6119C21.3001 82.5597 20.8279 81.0958 20.8884 81.0691C20.992 81.0195 22.7302 79.7354 22.5982 79.8389L22.5976 79.8371Z" fill="black"/>
<path d="M22.8007 63.9433C22.0524 63.864 21.5038 62.5151 21.1878 61.969C21.1102 61.7684 20.9716 61.5971 20.7915 61.4794C20.6114 61.3616 20.399 61.3033 20.184 61.3128C18.9447 61.1717 17.4154 61.01 16.4467 60.1334C14.9331 58.7603 15.7244 56.4651 17.4989 55.7682C19.6355 54.9285 22.0433 54.9564 24.3015 54.831C26.2044 54.7257 28.6649 54.9158 29.2582 57.1656C30.1621 60.5911 25.1649 60.9525 24.6297 61.3618C23.9746 61.8625 24.1011 64.0814 22.8007 63.9433Z" fill="white"/>
<path d="M23.7101 62.7846C24.3761 63.0226 24.1581 63.1267 24.4972 62.161C24.7212 61.5271 24.8647 61.5586 25.2079 61.4745C26.6719 61.1167 28.7515 60.5572 29.4514 59.1472C30.2433 57.5501 29.5119 54.8698 26.1215 54.4539C25.3193 54.3552 20.0115 54.2874 17.2877 55.4063C14.6444 56.4918 14.3314 60.1994 17.6891 61.2414C18.6015 61.4672 19.529 61.6264 20.4644 61.7166C20.7592 61.7996 20.8277 62.0339 21.2109 62.7223C22.3661 64.811 23.6326 64.6596 24.2223 62.9644L23.7113 62.7828C22.8213 65.1803 21.6807 62.0339 21.266 61.4509C20.6121 60.5336 17.3513 61.2208 16.2821 59.2846C15.7172 58.2621 16.1441 56.5977 18.2019 55.9626C19.9235 55.5237 21.6925 55.2972 23.4691 55.2882C24.8683 55.2228 26.957 55.0339 28.1346 56.0432C29.0028 56.7878 29.4708 58.5103 28.1909 59.5413C27.3849 60.1117 26.4753 60.5191 25.5131 60.7407C24.2514 61.0973 24.2604 60.955 23.7101 62.7846Z" fill="black"/>
<path d="M19.5929 57.2697C19.3182 57.2697 19.0548 57.3788 18.8606 57.573C18.6664 57.7672 18.5573 58.0306 18.5573 58.3053C18.5573 58.58 18.6664 58.8434 18.8606 59.0376C19.0548 59.2318 19.3182 59.3409 19.5929 59.3409C19.8631 59.3339 20.1198 59.2219 20.3087 59.0286C20.4975 58.8352 20.6034 58.5758 20.604 58.3056C20.604 58.0351 20.4983 57.7753 20.3094 57.5818C20.1205 57.3882 19.8633 57.2762 19.5929 57.2697Z" fill="black"/>
<path d="M22.6564 57.1595C22.3819 57.1595 22.1185 57.2686 21.9244 57.4627C21.7302 57.6569 21.6212 57.9202 21.6212 58.1948C21.6212 58.4694 21.7302 58.7327 21.9244 58.9269C22.1185 59.121 22.3819 59.2301 22.6564 59.2301C22.931 59.2301 23.1943 59.121 23.3885 58.9269C23.5826 58.7327 23.6917 58.4694 23.6917 58.1948C23.6917 57.9202 23.5826 57.6569 23.3885 57.4627C23.1943 57.2686 22.931 57.1595 22.6564 57.1595Z" fill="black"/>
<path d="M25.6692 57.0106C25.3946 57.0106 25.1313 57.1197 24.9371 57.3138C24.743 57.508 24.6339 57.7713 24.6339 58.0459C24.6339 58.3204 24.743 58.5838 24.9371 58.7779C25.1313 58.9721 25.3946 59.0812 25.6692 59.0812C25.9438 59.0812 26.2071 58.9721 26.4012 58.7779C26.5954 58.5838 26.7045 58.3204 26.7045 58.0459C26.7045 57.7713 26.5954 57.508 26.4012 57.3138C26.2071 57.1197 25.9438 57.0106 25.6692 57.0106Z" fill="black"/>
<path d="M88.2337 30.1333C93.7098 28.2419 100.057 31.5833 101.387 37.2222C102.562 42.2049 99.4589 47.4473 94.5538 49.0093C89.4076 50.6476 83.4744 47.859 81.8276 42.5179C80.2245 37.3203 83.3394 31.8248 88.2337 30.1333Z" fill="white"/>
<path d="M91.5278 49.9157C89.6723 49.9591 87.8392 49.5029 86.2205 48.5949C84.6018 47.6869 83.2568 46.3605 82.3265 44.7544C81.3962 43.1484 80.9147 41.3218 80.9324 39.4659C80.95 37.6099 81.4663 35.7929 82.427 34.2049C83.7145 32.0779 85.7245 30.4854 88.0896 29.7186C93.8478 27.7292 100.434 31.2661 101.816 37.123C102.14 38.66 102.118 40.2498 101.753 41.7774C101.387 43.305 100.687 44.7324 99.7023 45.9562C98.718 47.1804 97.4741 48.1706 96.0604 48.8554C94.6467 49.5401 93.0986 49.9023 91.5278 49.9157ZM88.3796 30.5511C80.6041 33.2368 79.3757 43.9638 86.8981 47.8966C94.4757 51.8574 102.76 44.9615 100.961 37.3246C99.6981 31.9805 93.6462 28.7306 88.3772 30.5511H88.3796Z" fill="black"/>
<path d="M86.1208 44.5091C86.8757 45.4499 88.0612 45.0449 91.4377 45.4656C92.6182 45.6818 93.8109 45.8234 95.0097 45.8894C97.5168 45.8804 97.3 41.1998 97.5743 39.444C97.7129 38.5522 98.7627 35.1273 96.5378 34.3257C96.2198 34.2302 95.8907 34.1765 95.5588 34.1659C90.7329 33.7579 86.6245 31.9258 86.2401 35.0638C85.3549 42.275 84.8645 42.9446 86.1208 44.5091Z" fill="#92FCFF"/>
<path d="M88.8502 32.9182C88.4925 32.8739 88.1297 32.9007 87.7824 32.9969C87.4352 33.0931 87.1103 33.2569 86.8265 33.4789C86.5426 33.7009 86.3053 33.9767 86.1283 34.2905C85.9512 34.6044 85.8378 34.9501 85.7946 35.3078C84.4378 46.3829 83.3311 44.9905 94.434 46.3539C95.1559 46.4408 95.8827 46.2381 96.4554 45.7902C97.0281 45.3423 97.4 44.6858 97.4896 43.9642C98.8434 32.8879 99.9525 34.2719 88.8502 32.9182ZM94.7041 44.1495L89.0548 43.4593C88.5274 43.3939 88.0474 43.1221 87.72 42.7035C87.3926 42.2849 87.2445 41.7535 87.3081 41.2259L87.9983 35.5772C88.0503 35.1611 88.2311 34.7716 88.5154 34.4633C88.7997 34.1549 89.1733 33.9433 89.5839 33.8578C99.0577 35.0154 97.9122 33.5551 96.7546 43.027C96.5722 43.4041 96.2765 43.7148 95.9088 43.9156C95.5412 44.1164 95.1199 44.1974 94.7041 44.1471V44.1495ZM94.5364 45.5166C86.9564 44.5933 86.7972 44.758 86.1506 43.931C85.504 43.1039 85.6874 43.1384 86.6349 35.4101C86.6876 34.9764 86.8884 34.5742 87.2033 34.2713C87.5182 33.9684 87.928 33.7835 88.3634 33.7476C87.2331 34.6346 87.4038 35.257 86.6833 41.149C86.6 41.8435 86.7954 42.5427 87.2266 43.0934C87.6579 43.6441 88.2898 44.0014 88.984 44.0871C94.8566 44.8058 95.433 45.1267 96.5724 44.2391C96.4312 44.6532 96.1517 45.006 95.7808 45.2383C95.41 45.4705 94.9706 45.5679 94.5364 45.5141V45.5166Z" fill="black"/>
<path d="M95.7355 38.579C95.4327 36.3643 95.2996 36.2402 94.2588 36.7566C93.3985 37.1804 91.977 37.471 93.6534 38.6195C93.7666 38.6982 93.8617 38.4621 92.5848 40.5472C92.02 37.9953 92.0399 37.5721 91.4472 37.6012C91.1185 37.6206 91.0059 37.8434 90.8254 38.0601C88.8881 40.4019 87.7741 42.2824 89.7774 40.2348C91.7626 38.2054 91.291 38.1303 91.5471 39.3025C92.0181 41.4608 91.9824 41.4142 92.1659 41.5486C92.2522 41.6173 92.3583 41.6565 92.4686 41.6604C92.5789 41.6643 92.6875 41.6328 92.7786 41.5704C92.839 41.5289 92.8898 41.4747 92.9275 41.4118L94.3412 39.1027C94.6336 39.2934 94.9527 39.4393 95.2875 39.5368C95.7548 39.5368 95.799 39.0421 95.7355 38.579ZM93.5783 37.7616C93.7684 37.6739 94.073 37.5286 94.4017 37.3887C94.9545 37.1586 94.8128 36.9952 94.9545 37.7283C95.015 38.0311 95.1058 38.585 95.1258 38.8108C94.5745 38.5166 94.0558 38.1649 93.5783 37.7616Z" fill="black"/>
<path d="M89.3445 27.4559C89.5461 28.4549 88.7996 29.9328 89.3088 30.7035C89.4564 30.8856 89.66 31.0141 89.888 31.0688C90.116 31.1235 90.3557 31.1015 90.5699 31.0062C90.994 30.8053 91.3634 30.5052 91.6469 30.1313C93.3101 34.6551 87.1153 37.8269 83.7086 34.4608C82.0921 32.8642 82.419 28.0832 83.1425 29.8976C83.2909 30.2968 83.5322 30.6549 83.8464 30.9424C84.1607 31.2298 84.5389 31.4382 84.9497 31.5505C85.6593 31.5989 86.1854 30.7271 85.6901 29.7996C85.2246 28.929 84.7214 28.4325 86.1182 27.7157C87.6796 26.9147 87.7819 26.925 87.7595 26.3837C87.7438 26.1467 87.7757 25.909 87.8533 25.6845C87.995 25.4925 89.1465 26.4794 89.3445 27.4559Z" fill="#FDFE1F"/>
<path d="M91.9752 30.2276C91.8292 29.7553 91.6609 29.5331 91.6119 29.5537C91.5514 29.5477 91.4908 29.6784 91.3855 29.8891C90.6051 31.4184 89.0848 31.1151 89.5201 29.6506C90.0214 27.8288 90.3181 26.5453 88.1737 25.5216C87.7499 25.3139 87.6288 25.3884 87.6784 25.9514C87.788 27.1986 86.6135 26.8032 85.5291 27.5764C85.2097 27.7778 84.9644 28.0775 84.8302 28.4304C84.696 28.7834 84.6802 29.1704 84.7851 29.5331C84.9849 30.1125 85.5721 30.635 85.4571 30.9256C85.3966 31.2326 84.888 31.4463 84.2232 31.0406C83.1486 30.3807 83.194 29.0004 83.0687 28.9925C82.9319 28.8684 82.0606 29.9067 82.2489 31.6467C82.3693 32.8392 82.9006 33.9527 83.7517 34.7966C84.6028 35.6404 85.7209 36.1621 86.9144 36.2722C87.6863 36.3437 88.464 36.2268 89.1808 35.9316C89.8976 35.6363 90.5319 35.1714 91.0295 34.577C91.5272 33.9826 91.8732 33.2763 92.0379 32.5187C92.2027 31.7612 92.1811 30.975 91.9752 30.2276ZM82.8404 31.5631C82.7109 30.9538 82.7181 30.3234 82.8616 29.7172C82.8635 30.3004 83.0831 30.8619 83.4772 31.2917C83.8714 31.7215 84.4119 31.9886 84.9927 32.0408C85.2045 32.0511 85.4154 32.0069 85.6052 31.9123C85.795 31.8177 85.9574 31.676 86.0767 31.5007C86.1959 31.3253 86.2682 31.1223 86.2865 30.9111C86.3048 30.6998 86.2686 30.4874 86.1812 30.2942C85.8954 29.6342 84.9909 29.007 85.9996 28.1957C86.7158 27.6151 88.6144 27.4517 87.9975 25.8733C87.9151 25.6917 87.9194 25.7165 87.9769 25.7843C88.3081 26.1597 88.4419 26.2487 88.6647 26.526C89.8798 28.0214 88.2717 29.2244 88.6495 30.6102C88.9807 31.9506 91.2129 32.0632 91.6531 30.2905C92.1423 36.4483 83.9399 37.3292 82.8404 31.5631Z" fill="black"/>
<path d="M10.8932 25.9858C18.6045 23.3219 27.5425 28.0285 29.4145 35.9693C31.0715 42.985 26.7015 50.3664 19.793 52.5665C12.5496 54.8732 4.1923 50.9458 1.8723 43.4246C-0.381711 36.1049 4.00523 28.3669 10.8932 25.9864V25.9858Z" fill="white"/>
<path d="M15.5339 53.6758C9.31611 53.6758 3.36475 49.801 1.4413 43.5603C-0.830874 36.1904 3.34356 28.1145 10.7473 25.5572C10.8503 25.8539 11.0228 26.354 10.7473 25.5572C12.7123 24.8997 14.7932 24.6608 16.8561 24.8558C18.9189 25.0508 20.9182 25.6753 22.7252 26.6894C36.0512 34.0272 30.2016 53.6752 15.5339 53.6758ZM2.31009 43.292C4.54594 50.5408 12.6242 54.3714 19.6574 52.1313C30.5655 48.6592 33.2487 33.5234 22.2868 27.4861C11.0749 21.3144 -1.17294 31.9947 2.31009 43.292Z" fill="black"/>
<path d="M21.99 46.964C20.4508 47.8812 18.7888 48.5743 17.0539 49.0224C9.01687 51.0125 3.6891 34.942 8.78984 31.4874C9.47639 31.0224 13.6078 29.0747 15.696 29.323C23.4987 30.2493 27.3801 43.8315 21.99 46.964Z" fill="#FDFE1F"/>
<path d="M13.7092 29.093C12.5038 29.369 8.96267 30.6907 8.13929 31.479C5.82171 33.6173 6.13593 38.7568 7.42973 42.1127C9.68071 47.9612 13.8473 49.9675 16.1085 49.6346C17.9981 49.3997 22.3305 47.8249 23.8266 45.6932C27.197 40.1523 21.5168 27.3633 13.7092 29.093ZM12.2943 30.3571C11.2886 31.2833 10.6584 32.5468 10.5235 33.9073C9.03351 34.5733 9.39555 34.6944 7.4152 34.9571C7.91165 31.9742 9.13159 31.5571 12.2943 30.3571ZM7.32983 35.6243C9.30716 34.8839 7.73789 35.275 10.4514 34.6351C10.393 35.9633 10.5326 37.2929 10.8655 38.58C9.26478 39.2176 9.87566 39.3211 7.57624 39.6056C7.28184 38.3 7.19784 36.9558 7.32741 35.6237L7.32983 35.6243ZM7.72154 40.2026C10.6881 39.0553 9.39616 39.7116 11.0441 39.2454C11.4398 40.6222 11.9943 41.9483 12.6964 43.197C10.136 44.2329 11.7882 43.7328 9.39192 44.1972C8.65893 42.9459 8.09636 41.6023 7.71912 40.202L7.72154 40.2026ZM9.74307 44.7615C12.3912 43.5912 11.5406 44.2299 13.0523 43.7994C13.6457 44.7905 14.3827 45.6882 15.2392 46.4633C13.4483 47.5392 13.8079 47.1559 12.3846 47.6185C11.3328 46.8401 10.4367 45.871 9.74307 44.7615ZM13.0021 48.0072C13.3345 47.7953 13.6834 47.6102 14.0452 47.4538C14.1058 47.4538 15.7683 46.9501 15.8288 46.921C16.8225 47.5883 17.9984 47.9315 19.195 47.9036C15.8682 49.2362 14.6246 48.9195 12.9991 48.0072H13.0021ZM22.0587 46.4536C13.2679 52.7156 5.80778 28.6159 15.5957 29.6966C23.7079 30.5926 26.462 43.7825 22.0557 46.4536H22.0587Z" fill="black"/>
<path d="M21.9231 36.7673C21.1838 35.2023 22.9033 38.7955 22.4801 42.1393C22.0944 45.1797 20.2103 46.3167 18.7645 45.9462C15.8585 45.2058 11.2148 37.5271 13.039 32.9816C14.0228 30.4599 17.5797 29.8012 20.8787 34.9795C21.3927 35.7986 21.9685 36.9616 21.5628 35.9409C19.2241 30.0773 14.0416 29.2019 12.5946 32.8042C11.3359 35.8422 12.7036 41.7221 16.9422 45.4818C20.9211 48.9945 24.8297 42.9154 21.9231 36.7673Z" fill="black"/>
<path d="M18.4821 37.7742C19.696 36.274 19.0058 34.1768 17.2252 34.1295C17.1162 33.429 16.6282 33.0519 16.5066 33.1493C16.3849 33.2468 16.5592 33.719 16.7088 34.1731C15.9041 34.3142 16.0186 34.4074 15.9786 34.2664C15.6674 33.1875 15.1589 33.3219 15.4737 34.4123C15.5451 34.6581 15.5161 34.3584 14.91 34.8542C15.1116 35.5202 16.4908 38.7944 16.4908 39.0638C17.9245 44.1028 17.4934 43.5439 18.2792 43.2073C18.3561 43.191 18.3101 43.171 18.3888 43.3684C18.6734 44.0894 19.3805 44.4581 18.878 43.1746C18.8223 43.0366 18.8066 43.0784 18.9664 43.0245C19.6687 42.792 19.5676 42.6794 19.6112 42.7981C20.0955 44.1149 20.4152 43.464 20.1058 42.6207C20.0265 42.3973 20.0065 42.4735 20.1143 42.3743C21.8313 40.8007 20.2172 38.1078 18.4821 37.7742ZM17.9166 34.8839C18.7406 35.1902 18.8932 36.435 17.9802 37.1845C17.58 37.4913 17.1383 37.7396 16.6682 37.9219C16.4539 37.0174 16.2741 36.0663 16.113 35.3368C16.693 35.0098 17.3348 34.6569 17.9166 34.8839ZM18.3168 42.149C17.7919 41.1494 17.3412 40.1126 16.9685 39.0468C17.4345 38.7524 17.97 38.5866 18.5208 38.5661C20.3438 38.772 21.6097 41.761 18.3144 42.1515L18.3168 42.149Z" fill="black"/>
<path d="M4.81972 33.3321C6.90664 35.3736 10.6591 35.6715 14.041 33.1196C15.7398 31.8373 15.9402 30.8795 15.9917 28.9421C16.0389 27.1864 16.0008 26.1087 14.4509 23.8874C14.1367 25.1249 13.6281 26.4132 12.5523 27.1083C11.9523 27.4958 11.4328 26.6911 11.253 26.0639C10.7015 24.1386 12.1176 21.9803 10.1069 20.6653C10.0464 20.6253 8.71445 18.7637 7.07979 19.3334C7.43015 19.6713 7.65425 20.119 7.71483 20.602C7.77541 21.085 7.66882 21.5742 7.41277 21.9882C7.10345 22.5387 6.70747 23.0359 6.24006 23.4606C5.57954 24.1084 4.92144 24.1508 4.87906 24.8367C4.79006 26.2728 8.08117 28.2513 7.06163 28.9264C4.32448 30.7378 3.90734 28.597 3.03371 28.126C2.67045 27.9305 2.71465 27.8312 2.48458 27.5938C2.17521 27.2736 2.14433 28.4178 2.58509 29.421C3.09304 30.5834 3.64398 32.1824 4.81972 33.3321Z" fill="#FFC5F6"/>
<path d="M16.2954 26.9448C15.8794 24.7919 14.3247 23.2638 14.1697 23.417C13.9947 23.4854 14.332 24.3015 13.6176 25.4833C13.3021 26.0016 12.555 26.6942 12.1197 26.5125C11.4852 26.366 11.593 25.0087 11.6596 24.3554C11.7746 23.1633 11.8806 22.2025 11.2503 21.0812C10.8867 20.4 10.3377 19.8355 9.66685 19.4529C8.99601 19.0704 8.23065 18.8854 7.45914 18.9193C6.49045 19.0204 6.84765 19.2129 7.20062 19.7929C7.46053 20.2049 7.56418 20.6964 7.49276 21.1782C7.42133 21.6601 7.17957 22.1004 6.81133 22.4192C6.31124 22.8782 5.25174 23.0126 4.75287 23.9825C4.56477 24.3322 4.47165 24.7252 4.4828 25.1222C4.49396 25.5192 4.60899 25.9063 4.81644 26.2449C5.25235 26.7783 5.77302 27.2372 6.35726 27.6023C7.45611 28.5383 6.60609 29.4126 5.28444 29.217C3.3398 28.95 2.46132 26.9085 2.25245 26.9963C2.02299 26.9781 1.15723 31.7513 5.77302 34.4794C10.7472 37.3697 17.6098 33.2776 16.2954 26.9448ZM14.8811 31.0793C12.3655 36.1268 3.58439 35.4953 2.44921 28.0746C2.336 27.2463 2.43832 28.4554 3.72546 29.4325C6.09692 31.1883 8.55739 29.4598 7.7443 27.724C7.13887 26.3606 5.54598 26.271 5.51511 25.0716C5.49392 23.8214 6.63999 23.8729 7.41676 23.0471C7.68378 22.804 7.89324 22.5044 8.02989 22.1701C8.16654 21.8359 8.22694 21.4754 8.2067 21.1148C8.18646 20.7543 8.08609 20.4028 7.91289 20.0859C7.73969 19.7691 7.49802 19.4948 7.20546 19.2831C7.87981 19.3678 8.52301 19.6169 9.07844 20.0086C9.63386 20.4003 10.0845 20.9225 10.3906 21.5293C11.2273 23.2547 9.93413 25.407 11.0197 26.8794C11.8261 28.0116 13.5395 27.4988 14.2793 25.8218C14.8672 24.4644 14.2835 23.6725 14.6849 24.3772C15.2616 25.3937 15.5809 26.5357 15.6151 27.7039C15.6493 28.872 15.3973 30.0308 14.8811 31.0793Z" fill="black"/>
<path d="M82.8509 84.0683C90.1469 81.5479 98.6041 86.0002 100.376 93.513C101.941 100.151 97.8068 107.135 91.2718 109.217C84.4177 111.4 76.5102 107.684 74.3162 100.569C72.1802 93.6425 76.3304 86.3205 82.8509 84.0683Z" fill="white"/>
<path d="M87.2383 110.424C81.2773 110.424 75.5917 106.702 73.7536 100.742C70.1906 89.188 82.6958 78.3078 94.1184 84.5964C106.825 91.5922 101.345 110.424 87.2383 110.424ZM87.1087 83.9474C74.1211 83.9474 69.2728 101.565 81.0678 107.733C91.1633 113.011 102.203 103.823 99.8034 93.6482C98.4611 87.9517 92.9772 83.9474 87.11 83.9474H87.1087Z" fill="black"/>
<path d="M78.6024 102.379C78.6358 102.816 78.7778 103.238 79.0158 103.606C79.2537 103.973 79.5799 104.276 79.9647 104.486C80.3116 104.622 80.6768 104.707 81.0484 104.736C90.9247 106.021 93.4893 106.952 93.9797 104.075C94.2824 102.311 96.1393 91.7579 95.2608 90.2201C94.3012 88.5425 89.0358 88.666 85.8464 87.9128C84.9479 87.7003 83.8364 87.8886 82.9095 87.8117C82.4981 87.7708 82.0826 87.8125 81.6876 87.9344C81.2925 88.0562 80.9257 88.2557 80.6088 88.5213C79.9253 89.1079 80.1384 89.611 79.7655 91.8469C79.5384 93.1946 78.4705 101.349 78.6024 102.379Z" fill="#92FCFF"/>
<path d="M96.3147 91.6113C96.3614 91.2323 96.333 90.8478 96.2308 90.4798C96.1287 90.1118 95.9549 89.7676 95.7195 89.4669C95.2439 88.8595 94.5467 88.4658 93.7809 88.3723C82.2076 86.9598 81.9012 86.6165 80.6183 87.6215C79.3469 88.6157 79.6593 88.4534 78.0016 102.008C77.9549 102.387 77.9834 102.772 78.0856 103.14C78.1879 103.508 78.3618 103.852 78.5974 104.153C78.8327 104.453 79.125 104.705 79.4575 104.893C79.7901 105.08 80.1563 105.201 80.5354 105.247C92.538 106.714 91.6516 106.615 91.9083 106.615C92.618 106.614 93.3028 106.353 93.834 105.883C94.3652 105.412 94.7063 104.764 94.7932 104.06L96.3147 91.6113ZM82.5036 89.9234C82.5477 89.5557 82.6997 89.2093 82.9404 88.9279C83.1811 88.6464 83.4997 88.4426 83.8561 88.342C94.238 89.6134 94.1829 89.41 94.7938 90.1904C95.4047 90.9708 95.2394 90.731 93.8003 102.502C93.6168 102.824 93.3422 103.084 93.0111 103.25C92.68 103.416 92.3073 103.48 91.9398 103.434C81.9932 102.217 82.2705 102.439 81.6294 101.618C80.9731 100.781 81.1384 101.101 82.5036 89.9234ZM91.6958 105.428L80.677 104.082C80.4506 104.055 80.2318 103.983 80.0332 103.871C79.8345 103.76 79.6599 103.609 79.5195 103.43C79.3783 103.251 79.2742 103.045 79.2131 102.826C79.152 102.606 79.1351 102.376 79.1635 102.15C80.7981 88.7876 80.556 89.1587 81.3376 88.546C81.6501 88.3007 82.0379 88.1708 82.4352 88.1785C81.9862 88.6161 81.7007 89.1943 81.6263 89.8168C80.2787 100.851 79.9917 100.963 80.9319 102.161C81.8722 103.359 82.1065 103.122 91.8296 104.308C92.4562 104.387 93.0907 104.246 93.6253 103.91C93.5987 104.137 93.5275 104.356 93.4159 104.555C93.3043 104.754 93.1545 104.929 92.9751 105.069C92.6131 105.354 92.153 105.483 91.6958 105.428Z" fill="black"/>
<path d="M84.851 94.6342C84.6088 92.7477 85.6186 93.068 84.8425 91.4103C84.6808 91.0646 85.5236 90.8491 85.8959 90.7697C86.8041 92.867 87.6862 92.5552 88.0392 93.898C88.2351 94.6889 88.6287 95.4171 89.1831 96.0142C89.7374 96.6114 90.4344 97.0579 91.2086 97.312C91.8182 97.516 92.7603 97.3726 92.9407 97.978C93.4166 99.5787 90.6607 100.889 87.8272 99.1446C87.0316 98.6561 86.3527 97.999 85.8385 97.2197C85.3243 96.4405 84.9872 95.5579 84.851 94.6342Z" fill="#FDFE1F"/>
<path d="M83.0048 97.2013C83.8573 96.4039 84.2677 95.9571 84.8048 95.7773C85.3533 95.5957 86.2844 95.7398 87.0993 94.8086C87.9142 93.8775 87.6394 93.1328 89.8668 91.6985C90.2809 91.4322 90.1374 91.4358 90.2906 91.6477C91.5722 93.427 91.3997 93.2969 91.8217 93.8272C92.2158 94.3231 92.3587 94.3515 92.3914 94.4932C92.4622 94.7995 91.1315 95.7561 90.9384 95.8778C90.0829 96.4154 90.1701 96.4227 89.9806 97.1492C89.5132 98.934 87.9221 98.6131 86.6992 99.3621C84.5305 100.694 85.2988 101.595 83.9862 99.5746C82.6222 97.4689 82.2468 97.9108 83.0048 97.2013Z" fill="white"/>
<path d="M93.3123 98.3722C93.2984 96.3906 91.3144 97.9914 89.3443 95.7216C88.0087 94.1796 88.7389 93.5802 87.3076 92.3349C85.5477 90.854 86.8142 90.0191 85.1378 90.7238C84.3235 91.0725 84.5378 91.3577 84.7636 91.8402C84.8646 92.021 84.9177 92.2246 84.9177 92.4317C84.9177 92.6388 84.8646 92.8425 84.7636 93.0232C84.177 94.9757 85.2837 98.1131 88.0838 99.6224C90.979 101.144 93.3528 99.7278 93.3123 98.3722ZM85.0984 91.3329C85.2946 91.2106 85.5156 91.1331 85.7456 91.1064C86.0096 91.7228 85.9339 91.2221 85.2395 91.6798C85.1856 91.5671 85.1385 91.4512 85.0984 91.3329ZM85.2062 93.1625C85.3854 92.8153 85.4399 92.4171 85.3606 92.0346C85.6084 91.9804 85.8379 91.8627 86.0265 91.6931C86.8614 93.2067 87.2495 92.4311 87.8271 94.2462C88.0759 95.0911 88.544 95.8551 89.1837 96.4604C89.8234 97.0658 90.612 97.4911 91.4694 97.6929C92.7971 97.9163 92.0142 97.639 91.8132 98.3504C91.777 98.5131 91.7839 98.6825 91.8332 98.8418C91.8824 99.001 91.9724 99.1447 92.0942 99.2585C89.0168 101.179 84.0571 96.5989 85.2062 93.1625ZM92.2794 99.1266C92.1686 98.5774 92.1117 98.3123 92.6082 97.9762C92.6952 98.1764 92.71 98.4005 92.65 98.6103C92.59 98.8202 92.459 99.0026 92.2794 99.1266Z" fill="black"/>
<path d="M90.9241 98.4586C90.4858 98.3855 90.0586 98.2569 89.6527 98.076C89.9767 97.6957 90.2037 97.2427 90.3144 96.7555C90.4083 96.4425 90.4688 96.4607 92.6974 94.7031C92.3614 94.2466 90.6747 91.9272 90.2599 91.5283C90.1588 91.4308 90.177 91.3085 88.4824 92.6053C87.4901 93.3639 87.8546 93.1659 87.5276 93.9336C87.3376 94.3779 87.028 94.7608 86.6334 95.0397C86.1134 94.071 86.0449 93.4802 85.9323 93.491C85.7955 93.5026 85.8258 94.3671 86.2756 95.2565C85.8927 95.4266 85.4828 95.5279 85.0648 95.5556C84.6555 95.6337 84.5665 95.759 82.3252 97.614C85.5019 101.928 85.4692 101.606 82.8344 97.6843C84.8444 96.0986 84.8656 96.0205 85.1532 95.9697C85.6403 95.9378 86.1157 95.8061 86.5499 95.5828C87.1535 95.2491 87.6217 94.7151 87.8733 94.0729C88.1761 93.2858 87.8443 93.554 88.6665 92.8426C90.5493 91.2933 90.1031 91.5161 90.18 91.5289C90.2406 91.5379 89.8004 91.0887 92.1828 94.6274C90.338 96.0199 90.048 96.1804 89.9191 96.6187C89.83 97.0371 89.6434 97.4287 89.3744 97.7613C89.1053 98.094 88.7616 98.3584 88.371 98.5331C88.0043 98.6613 87.6253 98.751 87.2401 98.8007C86.6249 99.0114 82.6097 102.528 86.5251 99.6586C86.76 99.4358 87.0342 99.259 87.3345 99.1373C88.0618 99.1082 88.7611 98.8496 89.3324 98.3987C90.4725 98.9351 91.6179 98.7389 91.6119 98.6245C91.6058 98.5609 91.3376 98.5319 90.9241 98.4586Z" fill="black"/>
<path d="M75.9116 85.019C75.8389 86.5985 75.9479 87.1858 76.9789 88.3646C78.642 90.268 80.4468 90.6803 82.0542 90.2892C85.3938 89.4761 86.0101 85.2799 85.2436 83.8674C85.039 83.4915 84.9682 84.4559 84.1781 84.9602C83.3668 85.4779 82.4405 85.068 82.4629 83.905C82.4732 83.3782 83.1349 81.2798 81.2193 80.0738C81.0377 79.9594 80.5437 79.7311 80.419 79.8226C80.2616 79.9376 80.5328 80.4885 80.4965 80.7701C80.4511 81.1248 80.155 81.3228 78.975 82.4156C77.2072 84.0533 79.5708 85.1176 79.3062 85.9271C79.1645 86.3594 78.1825 86.7002 77.2931 86.0978C76.4758 85.5433 76.2403 84.7102 76.1156 84.6896C75.9697 84.6642 75.9164 84.9245 75.9116 85.019Z" fill="#FDFE1F"/>
<path d="M85.9484 85.8761C85.9163 84.2723 85.1147 83.0615 84.9658 83.1608C84.8126 83.1723 84.6086 85.1084 83.3311 84.7682C81.9114 84.4249 84.4499 80.9873 81.1649 79.846C79.6132 79.3011 80.4602 80.0507 80.3603 80.7057C80.2295 81.6139 77.881 81.7089 77.8223 83.5882C77.7727 84.7294 79.0423 85.2561 78.9587 85.6981C78.9478 86.1891 77.9355 86.45 77.0649 85.6236C76.3275 84.9129 76.3021 84.1585 76.1701 84.1748C75.7972 83.943 74.711 87.3346 77.6231 89.7121C80.9112 92.4795 86.0689 90.0705 85.9484 85.8761ZM76.4129 86.8309C76.1682 86.2353 76.0588 85.5928 76.0926 84.9498C76.2031 85.5426 76.5307 86.0728 77.0113 86.4368C77.492 86.8008 78.0912 86.9724 78.6917 86.918C78.9093 86.8894 79.1158 86.8054 79.2915 86.674C79.4672 86.5425 79.6062 86.3681 79.695 86.1675C79.7839 85.9669 79.8197 85.7468 79.799 85.5284C79.7783 85.3099 79.7018 85.1005 79.5768 84.9201C79.1658 84.3044 78.1274 83.8304 79.0023 82.8181C79.6229 82.0958 81.5245 81.5776 80.6055 80.0852C80.4844 79.9108 80.5013 79.9447 80.5679 79.9986C80.979 80.3237 81.1128 80.3752 81.4052 80.6252C82.9188 81.922 81.5057 83.4429 82.1469 84.7839C82.736 86.0941 85.0251 85.7774 85.1432 83.9018C86.793 90.1214 78.5803 92.4468 76.4129 86.8309Z" fill="black"/>
<path d="M63.4147 67.5607C63.7713 67.9954 64.4288 67.9572 64.9834 68.0523C66.0639 68.3296 67.0038 68.9966 67.6225 69.9249C69.2184 71.9927 70.0837 74.5313 70.0829 77.1434C76.3867 75.0093 75.6735 75.0698 79.9254 75.5638C82.7063 76.7988 85.213 78.5759 87.2989 80.7911C87.5923 78.7759 88.5813 76.9268 90.0945 75.564C91.6078 74.2013 93.55 73.4107 95.5848 73.3292C96.0056 73.3129 96.427 73.3365 96.8429 73.3994C97.4235 73.5907 98.1113 73.6658 97.8001 73.1191C96.3834 70.6302 95.4074 66.5369 96.2714 64.4445C96.2992 64.3785 97.6118 61.5324 97.6511 60.4317C97.4834 60.4136 94.6434 60.0243 94.2722 59.8705C93.3994 59.3839 92.5952 58.7833 91.8808 58.0845C89.8375 55.9407 90.1172 53.1733 89.7364 52.7301C89.4942 52.451 89.1091 53.0219 87.5877 53.5934C84.5351 54.7401 80.6755 53.7472 78.9016 52.1676C78.3961 51.7178 78.0086 51.0779 76.6676 49.6666C76.3249 49.3034 76.0876 49.3675 75.8926 49.8301C74.1593 53.9319 70.0642 55.2868 66.0429 54.8309C65.6863 56.2573 67.6885 57.186 66.4013 62.6022C66.1966 63.9374 65.5833 65.1765 64.6456 66.1488C64.1782 66.612 64.0087 67.0339 63.5558 67.3258C63.5173 67.3531 63.4849 67.388 63.4607 67.4284C63.4364 67.4689 63.4208 67.5139 63.4147 67.5607Z" fill="#FDFE1F"/>
<path d="M97.5026 71.6571C96.8461 70.1603 96.4971 68.5468 96.4763 66.9125C96.4555 65.2782 96.7633 63.6564 97.3816 62.1434C98.4962 59.4916 98.8752 60.3313 96.3124 59.9342C94.8833 59.7111 93.5588 59.0498 92.5218 58.0416C89.8101 55.4697 90.3864 52.5243 89.9245 52.468C89.7647 52.1562 87.4144 53.4712 85.4116 53.6395C83.506 53.7231 81.6233 53.1986 80.0354 52.1417C78.5424 51.15 76.507 49.0286 76.2563 49.2744C75.5813 48.9475 73.9969 54.4278 67.8136 54.5816C65.5239 54.6421 65.6395 54.2256 66.0258 56.8604C66.515 60.2666 66.2976 63.1623 64.284 65.9703C62.6687 68.2479 62.5603 67.3803 64.8543 68.4689C69.9599 70.8906 69.4356 77.3142 70.0785 77.3124C70.3292 77.7538 78.3251 73.121 85.5 79.4544C88.8256 82.5027 86.832 82.125 88.7469 78.5009C89.8488 76.414 93.2755 74.1642 96.0672 73.8603C98.7565 73.5678 98.6372 74.499 97.5026 71.6571ZM87.2909 80.5333C86.8642 79.7013 86.3045 78.9447 85.6338 78.2932C81.546 73.9238 73.3133 74.1218 70.2323 77.0781C70.6337 75.7377 70.38 72.7947 69.0578 70.6442C68.6384 69.9075 68.0758 69.2621 67.4031 68.7462C66.731 68.2297 65.9624 67.8527 65.1425 67.6377C63.2317 67.1497 63.4194 68.0512 64.9542 66.5418C67.1204 64.4477 68.2102 60.6692 66.8825 56.6618C66.0591 54.1826 65.5402 55.0877 67.7543 55.4619C69.3734 55.7355 71.0373 55.4453 72.4682 54.6397C74.5872 53.4288 76.1492 50.8975 76.2993 49.5396C77.0987 50.8959 78.1384 52.0953 79.3676 53.0789C82.6684 55.5654 86.9567 55.3741 89.7017 52.8004C88.3298 56.8253 93.1436 61.9424 97.496 60.6219C94.3078 63.6588 94.6293 70.1738 97.6334 73.2754C93.5256 71.7515 86.9924 75.929 87.2909 80.5333Z" fill="black"/>
<path d="M83.8655 59.8912C83.9557 58.9964 81.8028 58.3268 81.3403 60.2617C80.0689 65.578 79.995 66.1192 79.5476 66.8881C79.0935 67.6691 78.3143 67.1836 79.2552 63.7738C79.6257 62.3272 79.8588 60.8488 79.9514 59.3584C79.8958 59.0985 79.7551 58.8645 79.5516 58.6936C79.3481 58.5226 79.0933 58.4244 78.8277 58.4145C78.5622 58.4039 78.3008 58.4821 78.0847 58.6367C77.8686 58.7913 77.7101 59.0135 77.6344 59.2682C77.3795 61.0792 76.9951 62.8696 76.4841 64.6256C76.2099 64.5651 76.1281 64.197 75.5984 62.9674C75.5468 62.8843 75.5195 62.7885 75.5195 62.6907C75.5195 62.5929 75.5468 62.4971 75.5984 62.414C75.869 61.8485 76.429 61.0869 76.3418 60.4391C76.1162 59.3828 75.5813 58.4175 74.8053 57.6662C73.3522 56.4875 71.9821 57.3387 70.8161 57.0663C70.5321 56.9997 70.3596 57.3653 70.3027 57.6511C70.0175 59.0938 68.9163 66.1749 69.2408 67.1067C69.538 67.9646 71.3301 68.214 72.2298 68.3599C72.7162 68.5038 73.2359 68.4893 73.7135 68.3184C74.1912 68.1475 74.6022 67.8292 74.887 67.4094C75.674 66.4328 75.8908 65.3467 76.3297 65.3933C75.7388 70.2283 80.3655 71.0408 82.0389 66.8367C82.7853 64.5599 83.3952 62.2406 83.8655 59.8912ZM73.1446 65.8849C72.4732 66.3487 71.5983 66.3584 71.7394 65.3915C71.8459 64.8866 71.9131 64.3738 71.9404 63.858C71.9343 63.3712 74.6497 64.8466 73.1446 65.8843V65.8849ZM73.701 61.1916C73.2847 61.4006 72.8068 61.4518 72.3557 61.3357C72.3406 61.3352 72.3257 61.3315 72.3121 61.3248C72.2918 61.3143 72.2757 61.2972 72.2662 61.2763C72.2568 61.2555 72.2546 61.232 72.26 61.2098C72.3993 60.5317 72.4719 59.1362 72.6082 59.1138C73.5635 58.9546 74.8591 60.3537 73.701 61.1916Z" fill="white"/>
<path d="M88.7268 65.2875C89.4703 64.699 91.0801 63.0656 91.1424 62.2967C91.1474 62.116 91.1163 61.9362 91.0511 61.7677C90.986 61.5991 90.888 61.4452 90.7628 61.3148C90.6376 61.1845 90.4878 61.0803 90.3221 61.0084C90.1563 60.9364 89.9779 60.8981 89.7972 60.8957C89.2577 60.9254 87.5099 62.6908 87.1394 63.0752C86.5872 63.6431 86.8869 61.6446 86.6072 60.8497C86.5382 60.6272 86.412 60.4267 86.2413 60.2682C86.0706 60.1097 85.8613 59.9987 85.6343 59.9464C83.1823 59.6679 84.7824 65.6247 84.6607 66.2319C84.4827 67.1286 82.9498 68.9969 82.5986 69.9638C82.064 71.4314 83.4081 72.1924 84.2545 71.7074C84.8424 71.3702 85.0258 70.6304 85.3315 70.0262C85.6779 69.342 86.2294 68.779 86.5763 68.0955C87.318 66.6303 86.7537 66.8525 88.7268 65.2875Z" fill="white"/>
<path d="M92.3335 62.6084C91.6911 63.0891 89.1701 68.2921 88.8105 69.3171C88.5962 69.9316 89.6193 71.2545 90.5953 70.4632C91.5034 69.7258 93.9978 63.9112 94.0214 63.8198C94.0969 63.5993 94.0993 63.3603 94.0282 63.1384C93.9571 62.9164 93.8163 62.7233 93.6267 62.5878C93.4374 62.4521 93.2095 62.3809 92.9767 62.3846C92.7438 62.3883 92.5183 62.4667 92.3335 62.6084Z" fill="white"/>
<path d="M89.4836 71.9585C88.8013 70.9499 87.43 71.1503 87.1745 71.7593C87.0159 72.0684 86.972 72.4237 87.0507 72.762C87.1295 73.1004 87.3256 73.3998 87.6044 73.6071C88.6911 74.3064 90.129 72.9109 89.4836 71.9585Z" fill="white"/>
<path d="M71.2202 68.6541C68.2421 67.8858 68.5321 68.1437 69.3646 62.509C69.5632 61.1619 70.0481 58.6046 70.2503 57.4004C70.3587 56.7574 70.7982 56.7447 71.9044 56.778C72.5489 56.7466 73.1901 56.8879 73.7618 57.1872C73.7237 57.3192 73.0196 56.9493 70.9532 57.2926C70.7377 57.3283 70.82 56.8252 70.1105 62.6058C70.1032 62.6664 69.4966 67.0521 69.6867 67.2404C70.6924 67.7166 71.7836 67.9859 72.8955 68.0323C74.2879 67.9639 75.2845 66.7391 75.5593 65.4447C75.6986 64.9705 75.718 64.4691 75.6156 63.9856C75.5128 63.5024 75.2917 63.0522 74.9721 62.6755C75.2145 62.4075 75.4215 62.1094 75.5878 61.7885C75.8797 61.1528 75.969 60.4426 75.8437 59.7544C75.7184 59.0662 75.3845 58.4331 74.8873 57.941C74.2964 57.3961 73.8708 57.3416 73.9059 57.2302C74.3418 57.2514 74.7596 57.4119 75.0968 57.6885C75.8272 58.278 76.3081 59.1214 76.4434 60.0502C76.5786 60.979 76.3583 61.9246 75.8263 62.6979C76.1065 63.12 76.2952 63.5961 76.3804 64.0955C76.4655 64.595 76.4453 65.1067 76.321 65.5979C75.9965 67.2985 74.6954 68.7812 72.9409 68.8672C72.3598 68.8843 71.7795 68.8125 71.2202 68.6541Z" fill="black"/>
<path d="M71.8303 65.9263C71.8254 65.9578 71.8127 65.9705 71.8424 65.9766C72.087 65.9947 72.3328 65.9989 72.578 65.9905C73.4135 65.9299 73.454 65.152 73.5903 65.1689C73.7489 65.1483 73.7113 66.2968 72.6506 66.4912C72.3793 66.5328 72.1053 66.5543 71.8309 66.5553C71.0051 66.5783 71.2254 65.7683 71.3235 64.8601C71.3556 64.4557 71.4192 64.0543 71.5148 63.6596C71.7401 62.8955 72.9733 63.5385 73.3396 63.9363C73.5074 64.0833 73.6228 64.281 73.6683 64.4995C73.7139 64.7179 73.6871 64.9452 73.5921 65.1471C73.4583 65.1629 73.5188 64.3734 72.5907 64.0216C72.509 63.9907 72.0458 63.8521 72.0676 63.9241C72.087 63.8557 71.8563 65.761 71.8303 65.9263Z" fill="black"/>
<path d="M72.3891 61.2451C72.3842 61.2759 72.3715 61.2887 72.4012 61.2947C72.6457 61.3129 72.8909 61.3177 73.1361 61.3092C73.9716 61.2487 74.0122 60.4701 74.149 60.4871C74.3077 60.4665 74.2701 61.6156 73.2094 61.8093C72.9382 61.8517 72.6639 61.8735 72.3891 61.8735C71.5639 61.8965 71.7836 61.0864 71.8817 60.1783C71.912 59.7575 71.981 59.3404 72.0875 58.9323C72.2976 58.3021 73.4558 58.7719 73.8978 59.2538C74.0658 59.4007 74.1814 59.5984 74.2271 59.8169C74.2728 60.0353 74.246 60.2628 74.1508 60.4647C74.0164 60.4804 74.0776 59.6897 73.1489 59.3392C73.0695 59.3089 72.604 59.1697 72.6264 59.2411C72.647 59.1751 72.3981 61.1839 72.3891 61.2451Z" fill="black"/>
<path d="M76.162 68.1323C75.9069 67.255 75.8945 66.3249 76.1262 65.4411C76.4771 63.2614 76.95 61.1031 77.543 58.9764C77.9262 58.1167 79.1044 58.2299 79.0801 58.3709C79.0862 58.4448 78.6527 58.3637 78.178 58.7475C77.8753 58.9897 77.9147 59.1979 77.8239 59.7543C77.1331 63.979 76.5155 66.738 76.9418 67.8277C77.0817 68.1851 77.3092 68.5015 77.6034 68.7479C77.8976 68.9943 78.2491 69.1628 78.6255 69.2378C79.0016 69.3136 79.3907 69.2937 79.7571 69.18C80.1235 69.0663 80.4556 68.8624 80.7227 68.5869C81.6913 67.6818 82.7424 63.8198 83.0838 62.5448C83.6656 60.3525 84.0059 59.8391 83.3399 59.2754C83.2116 59.1677 83.1274 59.1186 83.1377 59.0878C83.1807 58.9582 84.2487 59.3299 84.081 60.3997C83.7534 62.4854 82.8223 67.7351 81.3002 69.193C80.9369 69.5705 80.484 69.8499 79.9836 70.0052C79.4832 70.1605 78.9516 70.1866 78.4384 70.0811C77.9252 69.9752 77.4472 69.7408 77.0491 69.4C76.651 69.0592 76.3458 68.623 76.162 68.1323Z" fill="black"/>
<path d="M79.1565 66.907C79.1298 66.9675 79.5167 66.4638 80.2045 63.829C81.3191 59.5589 81.2833 59.1303 82.2762 58.9299C82.8417 58.8154 83.1238 59.0394 83.1002 59.0806C83.0845 59.1448 82.7975 59.0721 82.3737 59.2483C81.6296 59.5583 81.9844 59.4729 80.9722 64.0142C80.7596 64.9678 80.1597 67.7576 79.2007 67.9332C78.7593 68.0143 78.2144 67.553 78.3083 66.7375C78.3894 65.1966 79.4919 60.9859 79.8158 59.568C80.0101 58.7204 79.0766 58.4673 79.1074 58.3759C79.076 58.2088 80.3722 58.4364 80.2904 59.6267C80.1276 60.8842 79.0287 67.0347 79.1565 66.907Z" fill="black"/>
<path d="M83.5756 72.2105C83.3428 72.1931 83.1176 72.1202 82.9186 71.998C82.7197 71.8759 82.5528 71.7079 82.432 71.5082C82.3108 71.3084 82.2396 71.0823 82.2242 70.8491C82.2088 70.6159 82.2497 70.3825 82.3436 70.1684C84.7853 64.0911 84.2979 68.5846 84.1429 63.189C84.1049 62.3848 84.1252 61.5789 84.2034 60.7776C84.4753 59.7829 85.6371 59.8138 85.6262 59.9446C85.6201 60.0208 84.7053 60.0311 84.5576 60.8612C84.5177 61.0858 84.6642 62.9323 84.6829 63.1618C85.0093 67.0141 85.2587 65.8862 84.4408 67.5578C83.3019 69.8724 83.0858 70.3549 83.0537 70.4385C83.0031 70.5443 82.9796 70.6611 82.9854 70.7783C82.9911 70.8955 83.0258 71.0094 83.0864 71.1099C83.1469 71.2103 83.2311 71.2943 83.3318 71.3545C83.4324 71.4147 83.5463 71.4492 83.6634 71.455C84.422 71.5312 84.4607 71.1105 85.0753 69.8899C85.7267 68.3581 86.5967 66.9288 87.658 65.6465C88.795 64.4108 90.9376 62.9342 91.0278 62.2052C91.0968 61.6519 90.693 61.3298 90.7318 61.2759C90.7802 61.2081 91.3015 61.5604 91.3251 62.2185C91.3578 63.1485 89.1916 64.8219 88.1333 66.0648C85.5511 69.0877 85.7515 72.4013 83.5756 72.2105Z" fill="black"/>
<path d="M87.1567 62.7965C87.8122 62.1049 88.5276 61.4726 89.2944 60.907C90.11 60.5607 90.808 61.1395 90.716 61.263C90.6458 61.3556 90.0688 61.0378 89.539 61.3883C89.3574 61.5064 88.6751 62.3842 86.475 64.5529C86.363 64.6825 86.4314 60.9252 86.4102 60.8216C86.2837 60.1932 85.6346 60.0642 85.6437 59.945C85.6564 59.7718 86.5852 59.8269 86.9236 60.6545C87.0416 61.3635 87.1191 62.0785 87.1567 62.7965Z" fill="black"/>
<path d="M88.5372 69.0798C88.7321 68.5101 90.9813 64.2685 91.8186 62.8258C92.3925 61.8365 93.7396 62.408 93.5586 62.5364C93.5319 62.5969 92.5324 62.2912 92.2079 63.0292C89.6112 68.9388 89.1862 69.138 89.237 69.6744C89.2485 69.79 89.2873 69.9012 89.3502 69.9988C89.4132 70.0965 89.4985 70.1777 89.599 70.2359C89.6996 70.294 89.8126 70.3274 89.9286 70.3332C90.0446 70.3391 90.1604 70.3172 90.2663 70.2695C90.7476 70.077 90.4994 69.7961 93.7711 63.9876C93.8909 63.7533 93.9349 63.4875 93.8968 63.2271C93.8587 62.9668 93.7405 62.7247 93.5586 62.5345C93.5913 62.474 94.006 62.6375 94.1979 63.1109C94.4673 63.7769 94.1083 64.3218 93.653 65.3371C93.489 65.7046 91.3815 70.275 91.1242 70.5849C90.9504 70.7846 90.7276 70.9357 90.4778 71.0232C90.2279 71.1106 89.9596 71.1315 89.6992 71.0838C89.4389 71.0361 89.1954 70.9214 88.9928 70.751C88.7902 70.5806 88.6355 70.3604 88.5438 70.1121C88.4215 69.7793 88.4191 69.4142 88.5372 69.0798Z" fill="black"/>
<path d="M86.5115 72.4417C86.5177 72.0789 86.6397 71.7275 86.8597 71.4389C87.0797 71.1502 87.3862 70.9395 87.7344 70.8373C87.9575 70.7726 88.1919 70.7564 88.4217 70.7898C88.6516 70.8233 88.8716 70.9055 89.067 71.0311C89.262 71.1572 89.4277 71.3237 89.5529 71.5193C89.6781 71.7149 89.76 71.9351 89.7929 72.165C89.808 72.4163 89.7414 72.5446 89.6954 72.5422C89.5834 72.5549 89.5568 72.0088 88.984 71.6274C88.8006 71.4929 88.5796 71.4196 88.3521 71.4177C88.1247 71.4159 87.9025 71.4856 87.7169 71.6171C87.5316 71.7488 87.3922 71.9351 87.318 72.1499C87.2439 72.3647 87.2388 72.5974 87.3034 72.8153C87.347 72.9597 87.42 73.0935 87.518 73.2082C87.616 73.323 87.7367 73.4161 87.8725 73.4818C88.9405 73.9801 89.6343 72.5428 89.6954 72.5422C89.7893 72.5422 89.8728 72.966 89.5931 73.3662C88.4313 75.0384 86.4988 74.0267 86.5115 72.4417Z" fill="black"/>
<path d="M5.77479 84.5477C5.77479 84.5477 3.33188 82.4106 4.64445 79.8151C5.95702 77.2196 8.88911 76.151 10.1103 74.4716C11.3314 72.7921 14.5686 73.6161 14.8738 75.1739C15.1789 76.7316 13.9578 79.8762 13.9578 79.8762C13.9578 79.8762 16.7058 80.7311 17.0727 82.4717C17.4396 84.2123 15.4538 88.6089 11.5149 89.281C7.57594 89.953 6.59878 89.3415 6.59878 89.3415C6.59878 89.3415 4.09533 87.3266 5.77479 84.5477Z" fill="white"/>
<path d="M15.6161 79.6894C14.1588 78.9501 14.7019 80.2948 15.3782 77.7629C16.4516 73.5594 12.2699 71.2969 9.93475 73.4347C8.95759 74.3035 8.58525 75.3836 6.3494 77.1109C5.51815 77.7544 4.46046 78.4682 3.96825 79.6409C3.63598 80.4478 3.55373 81.3358 3.73218 82.1899C3.91062 83.044 4.34152 83.8248 4.96902 84.4311C4.23888 85.5935 4.297 87.5279 5.67495 89.2291C6.08725 89.7007 6.47412 90.1942 6.83193 90.7082L8.08517 89.9284C7.3417 88.7351 6.38391 88.12 6.07514 86.8673C5.80391 85.8091 6.0927 84.8979 7.10437 84.5207C7.76671 84.3391 8.40725 84.0866 9.01571 83.7681C11.6978 82.2733 14.2067 79.4091 15.8032 81.8047C16.7937 83.2547 16.5521 84.844 15.5065 86.1905C13.5843 88.6261 9.87239 89.303 9.9069 89.5778C9.93415 89.8249 12.2075 89.7686 14.4773 88.5032C18.9859 86.1051 18.4332 81.12 15.6161 79.6894ZM7.54149 82.8297C6.86423 82.9775 6.22406 83.2613 5.65982 83.664C5.26553 83.1863 5.01228 82.6082 4.92854 81.9945C4.84479 81.3808 4.93387 80.7559 5.18577 80.1901C5.7912 78.8527 7.59658 78.4822 9.84757 75.7819C10.548 74.9422 10.9803 74.1388 11.9908 74.0522C13.617 73.936 15.3352 75.9291 13.5352 79.4926C11.3436 79.9994 9.10168 82.3284 7.54149 82.8297Z" fill="black"/>
<path d="M61.5631 91.8262C58.8544 92.8736 55.0118 92.6132 53.5218 92.2312C52.779 91.9677 52.0061 91.7984 51.2212 91.7275C49.9964 91.3539 51.0486 94.5439 49.153 98.6796C48.6487 99.7797 48.6487 100.32 49.7633 100.77C61.6418 105.57 73.0233 95.2002 71.7797 88.2905C71.2524 85.3584 69.8527 82.192 68.6152 84.6773C67.0889 87.7462 64.758 90.5923 61.5631 91.8262Z" fill="#FFC5F6"/>
<path d="M34.081 73.0054C35.037 74.3978 34.7324 76.8989 37.7196 79.0596C40.2176 80.8669 38.9486 79.9908 40.1413 81.2549C41.5132 82.708 44.0766 82.961 44.8395 84.8088C44.946 85.2181 45.1143 85.608 45.3383 85.9664C45.6411 86.3296 46.3506 86.3496 46.8041 86.4846C49.738 87.3589 50.7485 90.3884 50.5802 93.2491C50.5196 94.2541 50.657 95.2882 50.338 96.2429C49.8811 97.7766 49.1785 99.226 48.2577 100.535C45.6804 103.945 41.7597 103.93 40.0923 101.648C39.7127 101.129 39.608 100.873 38.8875 100.713C37.9424 100.505 36.9156 100.674 36.0262 100.289C34.9056 99.8047 34.2996 98.5805 33.3018 97.8776C31.4655 96.585 28.7326 97.2982 25.6734 93.8382C23.7966 91.7125 24.2065 89.8139 25.2993 89.0656C25.5977 88.9173 25.8706 88.7223 26.1075 88.488C26.5368 87.9195 26.1317 87.1258 26.0663 86.4162C26.0617 85.872 26.2133 85.3379 26.503 84.8773C26.7927 84.4166 27.2085 84.0487 27.701 83.8171C29.5173 82.8442 31.5842 83.363 31.115 82.7019C26.0736 75.6154 31.8857 69.8057 34.081 73.0054Z" fill="white"/>
<path d="M72.0204 90.0834C71.6614 89.9563 70.275 95.3912 64.6342 98.8912C60.3393 101.555 53.8079 102.297 49.2563 99.9108C50.6545 97.6766 51.352 95.075 51.259 92.441C53.9827 93.5994 57.0146 93.8176 59.876 93.0611C62.7375 92.3046 65.2654 90.6166 67.0607 88.2635C68.3503 86.5471 69.147 84.2544 68.8583 84.143C68.495 84.0019 67.1764 87.9263 62.6974 90.4219C60.9273 91.3784 58.9629 91.9202 56.9528 92.0062C54.9426 92.0922 52.9391 91.7202 51.0938 90.9183C50.5907 88.1691 48.9863 86.0355 46.1292 85.9308C45.8201 85.0501 45.3306 84.2436 44.692 83.563C43.9398 82.9723 43.1137 82.4826 42.2345 82.1063C40.426 80.7821 38.758 79.276 37.2567 77.6116C34.9446 75.0579 36.0301 73.2634 34.3185 71.8812C31.4125 69.5316 26.6139 73.3948 28.8751 79.4915C29.274 80.5283 29.7719 81.5242 30.3621 82.4653C27.1896 82.0361 24.8163 83.8336 25.7711 87.6908C23.5564 88.2635 22.9994 91.3264 24.2933 93.3897C25.7808 95.7618 28.7867 97.0223 31.6135 97.6434C33.042 99.2285 34.8242 100.454 36.8153 101.222C37.7271 101.559 38.7012 101.697 39.6711 101.625C40.3295 102.426 41.2161 103.006 42.2128 103.29C43.2095 103.574 44.269 103.547 45.2502 103.214C46.5078 102.768 47.6214 101.989 48.4729 100.962C56.0407 105.513 68.8897 101.553 71.7897 91.6454C72.0743 90.6719 72.1076 90.1071 72.0204 90.0834ZM33.9656 98.0273C36.2862 98.2834 38.0698 98.1266 38.0825 97.8917C38.1116 97.4455 33.4594 97.3734 29.6574 95.6855C23.5916 92.9931 24.6795 89.3521 26.2561 88.9906C27.2429 88.7648 28.2963 89.3182 30.2519 90.1137C32.6736 91.0987 34.1472 91.7684 34.255 91.591C34.4838 91.215 29.2402 88.1533 27.5281 87.7265C27.3907 87.6934 27.2522 87.6653 27.1127 87.6424C26.9634 87.0904 26.9049 86.5179 26.9396 85.9471C27.1563 83.6732 29.512 83.5642 31.6068 84.1666C34.3918 84.967 37.1768 87.3699 37.4383 87.0502C37.6254 86.8208 35.2013 84.0552 32.1753 82.9273C30.6793 80.3451 28.8455 77.1666 30.2549 74.2357C30.8349 73.0249 31.869 72.5206 32.8104 72.7185C34.7962 73.1357 33.4116 75.4853 36.3655 78.4519C37.1157 79.2067 37.9095 79.9167 38.743 80.5782C37.1937 79.9486 35.958 79.5005 35.9423 79.5254C35.7001 79.9201 41.3712 82.7426 42.5179 83.3856C43.0475 83.6224 43.5226 83.9659 43.9135 84.3947C44.3043 84.8235 44.6025 85.3283 44.7894 85.8775C48.4965 95.2774 41.9954 104.324 33.9656 98.0273ZM47.5593 100.137C45.4554 102.679 42.4531 102.822 40.7785 101.446C43.6046 100.742 45.9482 98.2289 46.7819 94.9608C47.3241 92.2956 47.2151 89.5389 46.4641 86.9249C51.5176 88.0123 50.2758 96.857 47.5593 100.137Z" fill="black"/>
</svg>
