<svg width="115" height="113" viewBox="0 0 115 113" fill="none" xmlns="http://www.w3.org/2000/svg">
<path d="M105.578 101.092C106.024 100.657 106.326 100.096 106.442 99.4838C106.558 98.8716 106.482 98.2386 106.226 97.6711C105.005 98.5972 103.562 99.1861 102.042 99.379C103.574 98.495 103.398 97.0777 103.398 95.8427C105.342 95.546 105.342 93.5426 104.869 91.8353C104.458 92.0109 103.864 92.2464 103.162 92.4825C103.138 91.5343 103.06 90.5882 102.926 89.6491C105.638 88.7652 106.994 87.3485 105.517 84.3456C105.437 85.1695 105.114 85.9511 104.589 86.5913C104.064 87.2315 103.361 87.7015 102.569 87.9418V84.1639C105.457 82.6927 104.246 79.9683 101.358 79.036C92.6336 76.2389 93.0393 84.8184 94.9282 88.1785C94.5395 89.3618 94.5608 90.6415 94.9888 91.8111C91.1927 89.2017 84.3272 89.4493 84.1395 94.0506C84.0184 96.4057 83.6672 98.6464 83.6672 98.6464C83.6672 98.6464 82.3716 98.828 82.19 99.712C82.0084 100.596 81.8389 103.895 82.6622 104.9C83.4856 105.905 86.7307 106.371 89.0313 106.256C90.5088 106.232 91.9626 105.881 93.288 105.228C94.6134 104.575 95.7774 103.636 96.6961 102.478C98.6213 100.619 103.628 100.262 105.578 101.092Z" fill="#3D9CFB"/>
<path d="M91.3077 62.7627C92.9605 56.4541 95.3762 44.6604 97.0835 37.9401C98.5002 32.3944 96.2601 31.3954 91.3077 30.5055C72.8785 27.1998 72.3578 26.9819 70.257 35.2823C69.3973 38.6727 65.7162 53.8992 65.3651 55.9214C65.0139 57.9435 64.8323 60.2253 67.1814 60.9942C72.6302 62.8105 77.3829 63.9433 82.5169 65.2994C85.762 66.2439 90.1877 67.1823 91.3077 62.7627ZM66.4246 55.8608C67.8958 49.3767 69.6636 42.0631 71.4375 35.6395C73.3083 28.8708 72.1701 28.0535 91.1321 31.7466C95.3701 32.57 97.1864 32.8666 95.9756 37.7585C89.3703 63.6951 92.6518 66.8191 82.8257 64.2944C66.7334 59.9656 65.3772 60.4251 66.4246 55.8608Z" fill="#3D9CFB"/>
<path d="M91.659 18.4209C89.8003 20.1948 88.8316 20.3401 90.5995 23.1977C91.3078 24.3722 91.8103 23.6396 93.3723 21.896C94.1775 21 93.3723 19.9526 92.8396 18.657C92.6579 18.1847 92.2947 17.8154 91.659 18.4209Z" fill="#3D9CFB"/>
<path d="M105.281 1.4203C95.1643 0.500049 92.2885 -0.426257 90.9505 4.24765C89.1827 10.6168 87.7115 16.5136 86.646 22.1139C85.7075 26.8362 88.2988 26.7757 95.0251 27.8352C108.345 29.9178 107.582 31.613 110.47 18.2815C113.914 2.41321 116.136 2.59483 105.281 1.4203ZM111.826 7.19609C105.832 30.045 108.532 28.4406 100.976 27.5385C98.9725 27.3024 94.1351 26.479 90.1272 25.7706C86.2524 25.0381 87.6389 23.137 91.8405 6.01551C92.6639 2.71592 93.0151 1.59588 96.6113 1.89254C100.208 2.1892 104.397 2.49796 107.993 2.95204C111.178 3.38189 112.831 3.32135 111.826 7.21425V7.19609Z" fill="#3D9CFB"/>
<path d="M84.1822 41.2999C83.0621 40.1799 80.6465 37.4676 79.8231 39.8832C79.3508 41.2394 77.698 45.7195 80.822 44.8356C82.6383 44.3028 86.4162 43.6005 84.1822 41.2999Z" fill="#3D9CFB"/>
<path d="M98.2035 104.628C96.6112 106.22 96.1995 110.41 98.9723 111.409C104.748 113.497 109.725 109.641 106.698 104.452C105.402 102.267 100.329 102.448 98.2035 104.628Z" fill="#3D9CFB"/>
<path d="M29.8083 29.8756C27.0233 29.3368 24.2626 28.8161 21.4292 28.4589C15.8895 27.6961 13.9461 27.6961 12.7655 33.708C11.5849 39.0176 10.1076 45.2111 8.81203 50.4541C8.52142 51.7558 8.33979 53.8748 10.2893 54.6921C13.8855 56.2239 18.069 57.5195 22.1981 58.8151C28.2523 60.704 28.9183 57.8767 30.0686 52.7608C30.9586 49.2251 33.3137 39.9681 34.2582 36.3719C35.4085 32.043 33.8586 30.6445 29.8083 29.8756ZM32.9868 36.0691C31.5398 41.409 29.3906 50.5994 27.9799 55.8788C27.1505 58.8272 24.8498 58.355 22.4947 57.695C18.8985 56.6961 15.0056 55.455 11.597 54.1593C9.53249 53.3905 9.41746 52.3431 9.88969 50.5268C14.939 31.2015 13.7281 28.9009 18.5534 29.476C22.2586 29.918 25.982 30.481 29.6388 31.2439C32.9868 31.6919 33.9858 32.376 32.9868 36.051V36.0691Z" fill="#3D9CFB"/>
<path d="M39.7133 10.6957C41.0876 6.14288 36.4682 6.50614 31.1646 6.21553C27.9801 6.03391 26.3878 6.33057 25.3828 9.81178C21.3022 23.2462 19.8068 22.7861 27.8045 24.3421C36.898 26.0857 34.888 26.6366 39.7133 10.6957ZM31.4552 23.7851C24.4141 22.5197 22.7855 22.5742 23.2577 20.3039C23.73 18.0335 26.0911 10.8107 26.8903 8.86731C27.6713 6.81491 28.864 6.99654 35.9112 7.57169C37.7275 7.74727 39.2108 8.28005 38.5024 10.3385C34.779 23.6458 35.3723 24.5116 31.4552 23.7851Z" fill="#3D9CFB"/>
<path d="M71.3773 14.7036C72.4973 10.3384 72.0856 8.09834 67.1877 7.51107C62.8831 6.9783 58.9962 6.68769 53.7472 6.39103C46.2156 6.01566 44.7323 6.00356 42.7768 13.2869C41.8444 16.7802 38.1634 31.7222 37.5277 35.046C36.8254 38.5877 38.1332 39.9439 41.5417 40.7673C59.7046 45.2051 61.2908 45.3685 63.3372 43.4796C65.5107 41.2456 65.4683 38.6422 71.3773 14.7036ZM56.1023 42.7712C39.4772 39.0781 37.3643 39.4959 38.4722 34.8704C40.4762 26.9696 42.4256 18.657 44.6052 10.9317C45.5497 7.68665 48.0864 7.3355 50.4415 7.45053C56.1023 7.62611 60.3524 7.92277 65.1292 8.51003C69.9061 9.0973 71.4923 9.11546 70.1361 14.4675C68.4894 21.0121 65.777 33.5142 64.0031 39.5867C62.7681 43.8913 59.523 43.5401 56.1023 42.7712Z" fill="#3D9CFB"/>
<path d="M71.2565 51.441C68.6349 53.9717 68.2293 53.8143 68.6652 55.1583C68.7924 55.564 69.198 56.8051 69.6097 57.8101C70.318 60.0502 72.437 56.8051 73.1454 56.3934C74.2654 55.2733 72.9698 53.445 72.7337 51.8527C72.5581 51.2049 72.0738 50.66 71.2565 51.441Z" fill="#3D9CFB"/>
<path d="M41.7171 31.7464C40.7726 32.8664 41.481 34.3376 42.3225 36.1115C42.928 37.4071 43.5637 36.5837 45.9551 34.1015C46.9601 33.042 46.0157 31.5708 45.4284 30.2691C44.7261 28.6647 43.7211 29.4457 41.7171 31.7464Z" fill="#3D9CFB"/>
<path d="M25.0316 19.1838C24.6139 19.6016 24.6744 19.6561 25.2072 21.0001C25.4433 21.6055 25.6794 21.2362 26.9145 20.2373C27.3262 19.8256 26.7995 18.9356 26.5634 18.421C26.2667 17.7126 25.7945 18.421 25.0316 19.1838Z" fill="#3D9CFB"/>
<path d="M12.0575 48.3714C11.5853 48.9042 11.4521 49.0253 12.3542 51.441C12.8809 52.7608 13.674 51.889 15.1815 50.3815C15.8293 49.552 15.7143 49.552 14.8304 47.1364C14.4732 46.1314 13.7648 46.5491 12.0575 48.3714Z" fill="#3D9CFB"/>
<path d="M96.3812 24.0204C97.3801 24.7288 101.624 25.1404 102.926 25.1404C103.398 25.1404 103.985 24.4321 102.98 23.9599C101.975 23.4876 99.0935 23.197 97.3801 22.9609C95.9634 22.8398 96.024 23.7237 96.3812 24.0204Z" fill="#001434"/>
<path d="M85.2896 15.2363C83.4733 14.7883 73.4111 13.0628 73.0296 14.3524C72.7754 15.1939 74.0225 15.3635 85.7073 16.5925C86.7668 16.7075 87.2088 15.648 85.2896 15.2363Z" fill="#001434"/>
<path d="M63.8876 24.1423C65.0076 19.6561 65.8915 18.2454 64.1237 15.9993C59.6496 10.3082 60.8665 10.835 51.7427 10.3991C49.5571 10.284 48.2009 9.98736 47.317 13.0508C42.752 30.0028 41.2627 27.6477 55.1875 29.9181C62.4164 31.0866 62.1197 31.0866 63.8876 24.1423ZM59.8191 12.7602C61.3083 14.2109 62.6155 15.8373 63.712 17.6037C58.2147 16.9982 59.0926 17.7247 59.8191 12.7602ZM58.8141 21.1333C58.6388 21.1883 58.454 21.206 58.2715 21.1852C58.089 21.1643 57.9129 21.1054 57.7546 21.0122C57.694 20.8366 57.7546 20.1888 57.9301 20.1283C58.2699 20.0746 58.6179 20.1165 58.9352 20.2494C59.0502 20.3644 58.9957 21.0728 58.8141 21.1333ZM56.3924 21.0122C56.5679 20.9577 57.3368 21.0122 57.3974 21.1333C57.4579 21.2544 57.4519 22.0778 57.2763 22.1323C57.1007 22.1867 56.3924 22.1323 56.2773 21.9567C56.1623 21.7811 56.2228 21.0728 56.3984 21.0122H56.3924ZM55.3329 20.6611C55.2808 20.3742 55.3438 20.0784 55.5084 19.8377C55.6713 19.7669 55.8499 19.7403 56.0264 19.7605C56.2028 19.7807 56.3708 19.847 56.5134 19.9527C56.6285 20.1283 56.4529 20.7216 56.2168 20.7761C55.9807 20.8306 55.3994 20.7943 55.3389 20.6611H55.3329ZM56.804 19.7166C56.7669 19.4301 56.8288 19.1396 56.9796 18.8932C57.3152 18.8502 57.6557 18.8686 57.9846 18.9477C58.1057 19.0688 57.9846 19.6561 57.8091 19.7771C57.6335 19.8982 56.8706 19.8922 56.8101 19.7166H56.804ZM47.1172 27.3208C45.6944 27.0544 45.1132 26.673 45.4099 25.2018C46.2938 20.8972 47.2262 17.1254 48.5884 12.6391C48.9456 11.4283 49.89 11.4283 51.6155 11.5191C54.3884 11.6947 55.3934 11.7552 58.7535 12.1669C58.3358 14.2375 57.803 16.7197 58.3963 17.5371C56.804 18.0093 55.2723 18.1425 54.1583 17.7126C53.1533 17.3554 53.3894 16.532 52.2149 16.532C50.441 16.532 48.3765 21.0728 48.0859 22.1323C47.7287 23.4884 48.0859 24.1968 49.2665 23.9485C50.2654 23.773 51.2704 22.3563 52.566 22.4774C55.3994 22.7135 56.7556 22.5924 57.9301 24.9536C58.8141 26.7214 60.4669 25.3653 60.7635 23.8335C60.996 21.9446 60.789 20.0284 60.1581 18.2333C61.3387 18.4634 62.7554 18.5844 63.9905 18.76C63.3512 21.9649 62.5428 25.1337 61.5688 28.2531C60.9997 30.0271 59.359 29.6456 47.1414 27.3208H47.1172ZM51.9606 20.3039C51.779 20.1283 51.3068 20.3039 51.1312 20.0677C51.0534 19.9272 51.0346 19.7616 51.0788 19.6072C51.1231 19.4528 51.2269 19.3223 51.3673 19.2444C51.6034 19.1293 52.1362 19.3655 52.2512 19.2444C52.3663 19.1233 52.3723 18.7721 52.6084 18.536C52.7703 18.4641 52.9487 18.4374 53.1246 18.4587C53.3005 18.48 53.4673 18.5486 53.6074 18.6571C53.7285 18.8327 53.4318 19.3049 53.5529 19.4199C53.674 19.535 54.2552 19.541 54.3763 19.7166C54.4247 19.8616 54.4281 20.0179 54.3859 20.1649C54.3438 20.3119 54.2581 20.4427 54.1402 20.54C53.904 20.6611 53.3713 20.4855 53.2562 20.54C53.1412 20.5945 53.0807 21.1938 52.899 21.3694C52.7174 21.545 52.0756 21.6055 51.9606 21.2483C51.6821 20.8972 52.0938 20.4855 51.9788 20.3039H51.9606Z" fill="#001434"/>
<path d="M60.1158 33.9865C59.1108 33.5748 51.7972 32.1702 50.1505 32.1702C49.0304 32.1702 48.9093 33.4114 49.9143 33.6475C50.9194 33.8836 58.9352 35.4638 60.0553 35.5304C61.1753 35.597 61.1148 34.3982 60.1158 33.9865Z" fill="#001434"/>
<path d="M85.2896 20.5999C85.998 20.3032 85.4107 19.7159 84.1696 19.5404C82.9285 19.3648 76.8621 18.5354 75.0882 18.3295C73.3143 18.1237 72.727 18.6867 73.2719 19.0379C73.9197 19.4435 84.3876 20.9026 85.2896 20.5999Z" fill="#001434"/>
<path d="M85.6469 55.5701C84.6419 54.9647 78.9872 53.7538 77.625 53.5662C76.2628 53.3785 75.9177 54.5651 76.6805 54.9223C78.3334 55.6246 83.7035 56.8658 85.1566 56.8658C86.4158 56.8658 86.2342 55.9092 85.6469 55.5701Z" fill="#001434"/>
<path d="M89.0675 50.6177C90.0664 47.312 90.6598 44.8358 91.3076 42.063C91.9554 39.2901 91.132 39.1145 87.7113 34.6949C87.003 33.811 86.1796 33.6899 84.7629 33.3993C77.2435 31.6859 75.1668 31.7162 74.3858 35.6394C72.2063 46.0104 69.9057 48.8983 73.6169 49.6732C75.6814 50.1454 82.0506 51.9738 85.7618 52.5611C88.4197 52.9728 88.7103 51.7922 89.0675 50.6177ZM86.0403 38.3517C86.2159 37.5222 86.5731 36.3477 86.8092 35.4638C87.9838 36.8199 89.0493 38.3517 90.1088 39.8229C86.3249 39.0116 85.8527 39.2598 86.0585 38.3517H86.0403ZM86.9243 40.4707C88.8737 48.4926 75.7117 49.4855 76.3111 41.5907C76.6259 37.4556 81.5602 36.2872 84.8597 37.8189C84.4904 39.6776 85.3199 40.065 86.9424 40.4707H86.9243ZM85.8042 51.32C81.7963 50.4966 77.9639 49.6732 74.0105 48.6076C73.0115 48.317 72.5029 48.202 72.7996 47.1365C76.2748 33.3993 75.2213 33.0057 79.2837 33.5143C80.4643 33.6899 85.8284 34.8099 85.8284 34.8099C85.6529 35.2822 85.223 36.8744 85.223 36.8744C79.4412 33.3993 72.0126 39.944 76.4382 45.8408C80.6217 50.7327 89.7577 47.4331 88.1714 40.6523C88.9343 40.7673 89.6426 40.8884 90.351 41.064C88.0625 50.4603 88.3531 51.8285 85.8224 51.32H85.8042Z" fill="#001434"/>
<path d="M106.758 16.653C109.028 8.05592 109.18 10.0296 105.989 6.45153C105.281 5.74318 104.397 4.56259 103.277 4.44151C97.501 3.91479 94.9037 3.38201 94.2559 5.68264C93.487 8.50999 92.4881 11.7369 91.8342 14.643C91.477 16.0597 92.0703 17.2403 93.6505 17.4764C96.714 17.9486 99.6624 18.4209 102.732 18.9476C104.869 19.3048 106.11 19.1837 106.758 16.653ZM104.161 6.26385C105.045 7.15383 105.874 8.08014 106.697 8.92168C104.881 8.92168 104.221 8.97617 103.985 8.56448C103.749 8.15279 103.864 7.21437 104.161 6.26385ZM103.628 11.8096C101.333 11.5735 98.9117 11.3373 96.1449 10.9862C96.7927 8.50394 97.616 9.16991 98.4394 10.2173C98.5292 10.3385 98.6447 10.4383 98.7777 10.5095C98.9106 10.5806 99.0577 10.6215 99.2083 10.629C100.91 10.8167 101.194 10.9801 101.981 10.4534C103.319 9.12147 103.737 9.92669 103.628 11.8156V11.8096ZM103.162 14.4614C102.042 15.8781 97.7129 14.9941 96.8472 14.6975C96.5906 14.6479 96.3561 14.5189 96.1769 14.3287C95.9976 14.1386 95.8827 13.897 95.8482 13.638C96.5406 13.8069 97.2674 13.7683 97.9381 13.5272C98.6088 13.2861 99.1937 12.853 99.62 12.2818C100.625 14.0557 101.981 14.5885 103.162 14.4674V14.4614ZM95.5515 5.79162C95.7289 5.54176 95.9705 5.34456 96.2508 5.22091C96.5312 5.09727 96.8397 5.0518 97.1438 5.08932C99.1399 5.11777 101.131 5.29395 103.101 5.61604C102.751 6.60176 102.571 7.63964 102.568 8.68556C101.999 8.91684 101.479 9.25588 101.037 9.68452L99.3294 9.50895C96.9682 6.6816 95.6121 8.44945 94.9037 10.8651C94.6071 10.8046 94.371 10.8046 94.0803 10.7501C94.3165 10.1023 95.0793 6.86928 95.5515 5.79767V5.79162ZM93.8442 16.4108C92.0279 16.0234 93.2388 14.086 93.8987 11.634C94.0414 12.1108 94.2827 12.5522 94.6071 12.9296C94.0803 16.2898 99.2689 16.2898 101.152 16.2898C102.332 16.2898 104.282 16.0536 104.457 13.9346C105.151 13.493 105.67 12.8259 105.929 12.0457C103.894 11.7551 105.099 12.415 104.572 10.0417C105.402 10.0962 106.165 10.0962 106.994 10.1568C106.681 12.5201 106.086 14.8374 105.22 17.0586C104.724 18.3724 103.961 17.8336 93.8684 16.4169L93.8442 16.4108Z" fill="#001434"/>
<path d="M75.9176 57.7253C75.742 58.5487 76.5654 58.8447 79.1627 59.4925C82.1898 60.2009 83.6005 60.7403 84.0061 59.8503C84.4905 58.7606 76.1537 56.5689 75.9176 57.7253Z" fill="#001434"/>
<path d="M102.218 22.1322C103.162 22.3138 103.398 21.3088 102.393 21.0122C96.4964 19.2807 96.0424 21.1272 97.4409 21.4299C98.2643 21.6055 101.273 21.9566 102.218 22.1322Z" fill="#001434"/>
<path d="M88.7708 95.9039C93.9048 96.031 93.5052 92.5135 92.367 93.5427C90.9503 94.8383 89.3399 94.9836 88.0624 95.135C87.4752 95.2016 87.5902 95.9039 88.7708 95.9039Z" fill="#001434"/>
<path d="M99.5052 83.1049C100.293 83.073 101.07 82.9135 101.806 82.6327C102.926 82.1605 102.98 81.216 102.333 81.4521C101.001 81.9159 99.6113 82.195 98.2035 82.2816C97.4407 82.3239 97.7918 83.1534 99.5052 83.1049Z" fill="#001434"/>
<path d="M95.6851 80.2164C97.211 79.5511 98.8644 79.2289 100.529 79.2726C101.885 79.3331 101.176 78.2131 98.5851 78.2131C94.3895 78.2131 93.4813 81.4455 95.6851 80.2164Z" fill="#001434"/>
<path d="M83.7037 78.152C81.4575 77.3286 61.5874 70.9595 60.2917 70.5478C58.9961 70.1361 58.8145 70.899 60.7034 71.6679C64.5903 73.2238 81.4575 78.4305 81.5181 78.4487C83.9337 79.157 86.0588 78.9754 83.7037 78.152Z" fill="#001434"/>
<path d="M22.3732 88.0575C7.23753 81.5855 5.79661 81.5007 6.33544 79.3333C6.57761 78.2314 4.0106 79.4053 5.51206 81.5727C6.54734 83.0621 11.0517 84.6368 12.8801 85.4057C22.0039 89.3168 21.8284 88.8445 22.4338 89.7103C22.906 90.4792 23.3177 91.5986 24.3772 92.0103C34.7785 95.6429 36.4858 97.8103 39.7733 96.8538C40.1619 96.7352 40.5703 96.695 40.9746 96.7357C41.3789 96.7763 41.7711 96.8969 42.1284 97.0905C58.1601 103.962 62.1075 106.59 73.1445 97.036C73.5562 96.6788 73.6167 95.4982 70.4322 97.8594C61.1207 104.634 56.7858 102.158 43.7933 96.5032C39.1921 94.4993 39.8399 96.8544 36.8369 95.6798C33.5918 94.3782 29.4628 92.8464 25.0977 91.1391C23.4933 90.4792 23.8505 88.7053 22.3732 88.0575Z" fill="#001434"/>
<path d="M26.2663 83.6377C27.0352 82.221 24.6741 83.7527 24.2018 84.2431C21.3745 87.0765 25.7941 88.4811 27.8344 89.3166C35.5536 92.3437 36.4376 92.7736 37.0914 92.2045C37.267 92.0289 36.8008 91.5567 35.4447 91.0844C34.2035 90.6727 24.1473 87.0704 24.4137 85.7748C24.6499 84.7517 25.7336 84.5821 26.2663 83.6377Z" fill="#001434"/>
<path d="M79.7502 87.2339C70.5659 92.9552 70.1178 94.4984 63.0041 91.889C55.5754 89.2978 27.3261 78.8003 20.3092 75.1435C16.3981 73.1879 25.3888 69.3798 27.0355 68.0115C28.7186 66.3224 21.623 69.5009 18.9531 72.0195C17.6574 73.2 17.4819 75.3251 19.1347 76.0274C28.5067 80.217 53.0387 89.7101 65.6558 93.9541C70.6869 95.6554 74.9855 91.7928 81.2214 87.2339C81.8026 86.7859 81.8753 85.9383 79.7502 87.2339Z" fill="#001434"/>
<path d="M102.218 100.148C104.99 99.5424 107.23 97.9622 106.698 94.8382C107.346 94.0753 107.521 93.6637 107.521 92.3014C107.521 91.1269 107.642 90.4851 107.109 89.6497C107.467 87.4701 107.467 85.0545 105.899 83.105C106.601 73.5634 92.1069 74.5563 90.448 80.8649C90.0363 82.3966 90.448 85.23 91.3319 86.5256C91.0353 87.1311 91.0353 87.5307 91.1564 88.5296C86.6701 87.3188 79.7743 89.359 80.3616 94.8987C78.2426 96.4305 78.4787 100.263 79.1507 102.037C81.2697 107.486 95.6607 106.692 94.129 99.3244C94.1835 99.2639 94.3046 99.2033 94.3651 99.0883C96.059 100.01 97.9807 100.43 99.9048 100.299C95.4852 100.905 93.7173 104.368 94.6557 108.497C95.7092 113.225 107.43 113.855 109.283 108.969C109.634 108.085 109.634 105.609 109.107 104.125C108.229 101.619 105.638 99.9117 102.218 100.148ZM106.347 91.1814C106.577 92.4831 106.177 93.7302 105.517 94.2085C103.186 95.8432 98.028 95.7403 95.7879 94.814C95.8525 94.1589 95.7929 93.4975 95.6123 92.8645C99.0935 94.0148 103.985 93.6636 106.347 91.1814ZM106.165 87.6457C106.225 89.359 105.753 90.243 104.397 91.1269C101.273 93.1309 94.5528 92.4225 93.1361 89.4741C92.8745 88.9651 92.7712 88.3895 92.8395 87.8213C96.3812 90.7152 102.805 91.3025 106.165 87.6457ZM99.3297 88.8565C102.357 88.6749 105.166 87.4398 105.638 84.8425C105.693 87.9968 102.157 89.1229 99.3175 88.8868L99.3297 88.8565ZM103.81 79.4179C104.171 79.8689 104.353 80.4378 104.319 81.0148C104.286 81.5918 104.039 82.1358 103.628 82.5419C100.916 85.0787 93.5478 84.6064 92.1916 81.3674C90.8779 78.4371 100.353 74.9014 103.81 79.4482V79.4179ZM91.6044 82.7235C94.2562 85.9081 101.897 86.1442 104.754 83.1958C104.458 89.3288 94.1351 88.3238 92.3672 85.2603C91.8677 84.52 91.602 83.6468 91.6044 82.7538V82.7235ZM84.2908 90.2672C87.6509 88.6204 92.9605 89.1472 94.1351 92.3317C94.3094 92.8035 94.345 93.3153 94.2377 93.8066C94.1304 94.298 93.8847 94.7484 93.5296 95.1046C89.1584 99.3607 77.177 93.8574 84.2908 90.2975V90.2672ZM80.6582 96.9935C81.191 99.7603 85.7862 101.413 90.0363 100.941C85.653 102.333 79.4231 100.251 80.634 97.0238L80.6582 96.9935ZM92.7668 101.837C90.5812 105.554 79.4958 105.021 79.9075 99.5969C82.6804 103.229 90.2906 103.665 93.1179 100.202C93.1421 100.779 93.0059 101.351 92.7244 101.855L92.7668 101.837ZM82.2687 97.5323C81.8745 96.7689 81.6906 95.9142 81.7359 95.0561C83.976 98.3618 91.4227 99.2941 94.5952 95.825C93.8687 101.625 83.7641 100.166 82.2263 97.5505L82.2687 97.5323ZM95.1219 98.1802C95.4797 97.5252 95.7001 96.8042 95.7697 96.0612C98.8998 97.1812 103.556 97.0056 105.735 95.5284C105.118 99.7664 98.5305 99.9298 95.0795 98.1983L95.1219 98.1802ZM107.388 103.193C107.68 103.53 107.86 103.95 107.902 104.393C107.945 104.837 107.847 105.283 107.624 105.669C105.681 109.035 98.0704 108.696 96.1875 105.258C94.6134 101.837 104.343 99.5666 107.346 103.211L107.388 103.193ZM108.157 108.854C106.153 112.396 95.2975 112.16 95.7152 106.499C98.482 109.919 106.207 110.034 108.393 106.499C108.481 107.301 108.386 108.112 108.114 108.872L108.157 108.854Z" fill="#001434"/>
<path d="M49.6726 35.9905C48.3709 35.9299 48.2559 37.056 49.3759 37.4072C50.496 37.7583 55.0367 38.7028 55.9812 38.8239C56.9256 38.945 57.8701 37.9399 56.2778 37.4072C54.1224 36.7402 51.912 36.2661 49.6726 35.9905Z" fill="#001434"/>
<path d="M102.157 106.868C102.272 107.34 104.101 107.34 105.578 106.517C107.231 105.633 106.789 104.216 106.226 104.749C104.337 106.692 102.042 106.22 102.157 106.868Z" fill="#001434"/>
<path d="M98.3849 104.513C99.8863 103.606 101.586 103.078 103.337 102.975C104.548 102.921 103.452 101.976 101.569 102.151C96.9742 102.527 97.2588 105.288 98.3849 104.513Z" fill="#001434"/>
<path d="M83.9335 93.6636C84.4662 93.8392 84.5873 92.3619 85.998 91.6536C87.4086 90.9452 89.5942 90.9513 89.2431 90.4427C89.007 90.031 87.003 89.8373 85.0596 90.8544C83.2857 91.7141 83.2857 93.482 83.9335 93.6636Z" fill="#001434"/>
<path d="M112.637 19.9528C111.396 19.3474 111.148 20.3221 111.808 21.0123C112.619 21.8599 113.993 23.1373 113.46 26.9092C111.396 40.5313 104.288 70.5545 103.907 72.0197C103.525 73.4848 103.301 74.617 103.907 74.617C104.379 74.617 104.912 74.2598 105.323 72.3163C105.735 70.3729 111.045 47.6088 111.808 43.7764C115.301 26.9152 116.439 22.3563 112.637 19.9528Z" fill="#001434"/>
<path d="M74.4405 79.0971C73.835 79.0062 73.3749 79.4603 69.4881 81.985C67.3085 81.0405 65.129 80.096 62.9434 79.2726C63.8734 78.6261 64.7427 77.8964 65.5407 77.0925C66.2914 76.3115 65.5952 76.148 64.3601 76.9109C63.125 77.6737 62.4711 78.092 61.5872 78.6854C58.1665 77.3837 56.6409 76.7474 55.987 77.0925C55.3331 77.4376 56.5198 77.9764 60.2916 79.4476C58.2271 80.8038 56.1626 82.2205 54.1586 83.7522C52.7419 83.1468 51.3252 82.5413 49.9206 81.9359C51.3313 80.7614 52.6329 79.6958 52.6329 79.3447C52.6329 78.9935 52.1607 78.8731 51.3918 79.4058C50.6229 79.9386 49.6239 80.6161 48.5644 81.3486C45.3193 79.9319 42.2559 78.6369 39.0108 77.4563C40.3669 76.633 41.6626 75.7484 43.0187 74.919C44.3143 75.3912 45.8521 75.9845 47.4989 76.5718C48.9761 77.1046 49.9206 76.4568 48.9156 76.039C47.5594 75.5123 45.7916 74.7434 44.3143 74.0956C45.6705 73.2117 47.0267 72.3823 48.3283 71.4983C51.0346 72.4428 52.7964 73.2359 53.4563 72.9756C53.9285 72.8 53.6924 72.3701 49.5089 70.6749C51.4523 69.3793 52.3968 68.2532 51.6885 68.3138C50.9801 68.3743 49.9751 69.0227 48.0922 70.2033C46.0277 69.495 43.9632 68.786 41.8381 68.1382L43.9632 66.9273C45.174 66.2129 44.0298 65.2927 40.1914 67.6902C38.4175 67.0847 36.7707 66.5156 36.2985 66.9273C35.5901 67.5751 38.1874 68.3386 38.7202 68.5202C38.1147 68.8108 36.0078 69.8158 37.0129 70.167C37.7212 70.4031 38.6596 69.8764 40.3124 68.9925C42.5525 69.6403 44.6171 70.348 46.7421 71.0564C45.3859 71.9403 44.0298 72.7643 42.7281 73.6482C39.4891 72.3526 38.4901 72.4373 38.1329 72.5887C37.4912 72.8914 38.0724 73.1148 41.4325 74.471C40.1369 75.3004 38.8413 76.185 37.5396 77.0083C34.4761 75.8883 31.4853 74.7682 28.4582 73.5332C29.4632 72.8793 29.8749 72.5282 30.7588 71.9954C31.8788 71.2325 32.1149 69.8758 30.6437 70.6992C29.1726 71.5225 28.3431 72.1764 27.1625 72.9392C25.8669 72.2914 24.5108 71.9948 24.0385 72.3338C23.6874 72.685 25.1586 73.2789 26.0425 73.6906C25.2797 74.1628 24.3352 74.9014 24.983 75.1618C25.5158 75.3434 26.3392 74.8106 27.2836 74.2778C30.4076 75.5735 33.1805 76.5785 36.244 77.7591C34.0039 79.4119 34.4761 79.9985 35.0331 79.938C35.5901 79.8775 36.7465 78.8785 37.5699 78.2852C40.815 79.5263 44.054 80.7674 47.2567 82.1781C45.9611 83.1831 45.1983 84.067 45.9611 84.067C46.4333 84.067 46.845 83.8309 48.4978 82.7109C49.5573 83.1831 51.4463 84.0065 52.863 84.5998C51.3857 86.0105 52.5663 86.2466 54.0738 85.1265C56.55 86.1315 58.0878 85.6593 55.1394 84.3637C57.2584 82.7714 59.0868 81.5303 61.3874 79.9985C63.5125 80.8219 65.8071 81.7664 67.9927 82.7109C66.6123 83.6493 61.4056 87.0585 61.1513 88.1967C61.0242 89.4075 65.1169 86.1376 69.2883 83.2436C71.2317 84.0065 72.5879 84.7148 73.3568 84.4545C74.1256 84.1942 73.0056 83.6917 70.4689 82.39C71.6797 81.5061 72.3578 81.0944 73.3568 80.386C74.7371 79.9198 74.8582 79.0971 74.4405 79.0971Z" fill="#001434"/>
<path d="M36.4072 12.4023C36.5283 11.5183 35.717 10.6283 35.2327 9.92605C34.1974 8.43669 33.816 8.63043 29.6264 8.33377C29.1855 8.29235 28.7446 8.41348 28.3867 8.67439C28.0287 8.93529 27.7785 9.31798 27.683 9.75047C26.0241 14.491 25.2916 16.7856 27.0776 17.3002C27.8525 17.5181 30.7949 18.1236 32.5264 18.3597C35.4022 18.7229 35.2145 17.1609 36.4072 12.4023ZM33.9855 10.2832C34.3125 10.6622 34.6091 11.0673 34.8694 11.4941C34.4578 11.4396 34.0461 11.3791 33.8099 11.3185C33.8166 10.9661 33.8779 10.6169 33.9916 10.2832H33.9855ZM32.6899 17.0641C31.083 16.8796 29.4881 16.6027 27.9131 16.2346C27.3803 16.1196 26.9081 16.1196 27.2653 14.6423C28.4458 10.1258 28.7546 9.49014 29.802 9.39932C29.802 9.39932 32.4538 9.63544 32.926 9.68993C32.6294 12.1661 32.7444 12.2872 35.1661 12.7171C34.2216 17.1246 34.1793 17.1912 32.7202 17.0641H32.6899Z" fill="#001434"/>
<path d="M32.8717 15.1152C32.6961 14.5885 32.575 14.2918 32.575 14.2918C32.575 14.2918 33.2228 13.759 33.2228 13.3473C33.0654 12.3726 32.2118 12.0275 32.0483 13.1718C30.9706 11.2041 31.0251 11.186 29.8082 10.5745C29.5721 10.52 29.5116 10.4594 29.451 10.7561C29.451 12.4513 29.5297 11.8035 30.8072 13.8196C30.1594 13.644 29.6871 13.8801 29.5963 14.0557C29.5055 14.2313 29.7174 14.764 30.4258 15.0607C30.8214 15.0948 31.2199 15.0537 31.6003 14.9396C31.8195 15.1231 32.0223 15.3259 32.2057 15.545C32.1542 15.6542 32.1422 15.778 32.1718 15.895C32.2014 16.0121 32.2708 16.1153 32.3681 16.1868C32.4654 16.2583 32.5845 16.2938 32.7051 16.2872C32.8257 16.2806 32.9402 16.2322 33.0291 16.1505C33.1545 16.1171 33.2632 16.0386 33.3343 15.9301C33.4054 15.8215 33.4339 15.6906 33.4144 15.5623C33.3949 15.434 33.3287 15.3174 33.2286 15.2349C33.1284 15.1524 33.0013 15.1098 32.8717 15.1152Z" fill="#001434"/>
<path d="M39.1196 56.5691C39.501 54.9708 41.8319 45.3687 42.2497 43.7764C42.6674 42.1842 41.5958 42.0631 40.833 43.6009C40.0701 45.1386 37.5879 56.0424 37.4123 57.4531C37.2367 58.8637 38.7321 58.2159 39.1196 56.5691Z" fill="#001434"/>
<path d="M43.3698 57.6344C45.4888 58.2399 83.7035 69.743 97.4407 73.2C100.268 73.9084 101.213 72.4917 101.806 69.8944C102.411 67.4182 108.526 41.4756 110.354 33.2175C111.414 28.3741 112.062 25.5528 111.565 25.2622C110.554 24.5841 109.392 34.392 100.54 69.4585C99.6202 73.2424 99.033 72.3282 88.5106 69.4585C74.6523 65.4505 57.0283 60.5587 44.0479 56.6052C42.5767 56.133 42.7523 55.4852 42.8734 54.4802C43.2851 51.4167 45.1135 45.6348 44.9924 44.0426C44.9379 43.6309 44.387 43.4371 43.8723 45.2534C43.164 47.7902 42.6615 50.442 41.9895 52.9787C41.4204 55.4489 41.2448 57.0411 43.3698 57.6344Z" fill="#001434"/>
<path d="M32.0484 21.2479C31.2795 21.0118 28.8639 20.6001 28.2161 20.7757C27.5683 20.9512 27.4472 21.6051 28.2161 21.7807C29.5367 22.0827 30.8755 22.2991 32.224 22.4285C32.9324 22.489 32.8718 21.4295 32.0484 21.2479Z" fill="#001434"/>
<path d="M31.5765 19.1287C30.9287 19.0076 30.3353 18.8926 29.2153 18.7715C28.0952 18.6504 27.8591 19.6009 28.8036 19.837C29.8679 20.1058 30.9541 20.282 32.0487 20.3638C33.2838 20.4848 32.9326 19.3648 31.5765 19.1287Z" fill="#001434"/>
<path d="M76.3112 101.092C66.806 107.54 63.355 109.381 56.2654 107.461C53.0809 106.577 10.7977 89.8252 4.3136 86.465C1.54073 84.9938 1.54073 83.6377 1.54073 81.6882C1.54073 78.4734 1.17142 79.2665 18.7591 69.8944C24.3049 66.946 32.0786 62.7625 34.1491 61.7575C36.807 60.4619 39.8704 60.9341 42.4072 61.703C53.3049 64.942 83.5763 74.2596 86.3976 75.0224C89.4611 75.8458 91.1684 74.8469 88.5166 74.1385C26.9445 57.4408 45.3253 54.5226 17.9963 68.5322C13.5706 70.8934 5.55473 75.1375 2.86057 76.6753C0.97163 77.7953 0.0271606 78.6792 0.0271606 81.5671C0.0271606 83.5711 0.0271604 85.8051 3.62341 87.7001C10.1075 91.1208 46.6088 105.566 52.094 107.679C59.6437 110.507 63.4156 110.392 68.3074 107.619C70.9122 106.192 73.4329 104.618 75.8571 102.902C77.522 101.855 77.522 100.263 76.3112 101.092Z" fill="#001434"/>
<path d="M18.602 50.4965C19.6615 50.7326 22.1982 51.556 23.2577 51.7921C24.3172 52.0282 24.0871 50.8537 22.4949 50.3815C20.9026 49.9092 19.2498 49.2009 18.1297 49.3159C17.0097 49.431 17.5425 50.1454 18.602 50.4965Z" fill="#001434"/>
<path d="M23.6752 55.0374C24.323 55.2129 25.0858 54.214 22.6701 53.5056C20.2545 52.7973 18.1294 51.9134 17.3605 52.1495C15.4292 52.9547 21.4351 54.4259 23.6752 55.0374Z" fill="#001434"/>
<path d="M27.877 46.077C30.1292 37.2922 30.7346 38.5213 26.5208 33.5749C25.31 32.0432 24.1597 32.2187 19.6795 31.686C16.0469 31.3045 16.1438 33.6173 13.7826 42.7108C13.2559 44.6603 14.5515 45.738 16.0227 46.0165C24.2444 48.2808 26.9083 49.7822 27.877 46.077ZM25.6975 34.5194C26.5675 35.5346 27.355 36.6178 28.0526 37.7584C25.1465 37.0561 24.7954 37.8795 25.6793 34.5194H25.6975ZM23.748 46.7854C22.8035 46.6037 16.6766 45.0114 15.8774 44.7753C14.1701 44.1699 14.7574 43.1831 16.2891 37.7039C17.0762 34.8281 17.2093 32.5638 19.6492 32.8605C21.3565 32.9937 23.0523 33.2504 24.7227 33.6294C24.5093 34.2463 24.3314 34.875 24.1899 35.5123C23.0094 35.6878 19.7703 35.2217 19.8309 36.3417C19.8853 37.2256 18.8258 41.5302 18.1175 41.9419C15.9379 40.8219 14.9935 44.0064 17.4091 43.7582C18.3536 43.6371 19.177 43.2254 20.5937 37.5647C21.7291 37.4367 22.8729 37.3983 24.0144 37.4496C24.1233 37.744 24.315 38.0006 24.5663 38.1885C24.8177 38.3765 25.1179 38.4878 25.4311 38.5091C25.1613 39.8411 24.766 41.1446 24.2505 42.4021C23.6451 41.7966 21.7137 41.6937 21.7137 43.1104C21.7137 43.9338 22.4221 44.2849 23.191 44.1699C25.5461 43.7582 25.5461 40.277 26.2181 38.5091C26.9265 38.6242 27.7559 38.8058 28.3432 38.8603C26.1031 47.197 26.5814 47.4937 23.7298 46.7854H23.748Z" fill="#001434"/>
<path d="M94.9642 86.7854C95.1373 86.7703 95.3 86.696 95.4248 86.5751C95.5496 86.4542 95.629 86.294 95.6496 86.1214C95.6702 85.9489 95.6307 85.7745 95.5379 85.6276C95.445 85.4807 95.3044 85.3703 95.1397 85.3149C94.3167 85.0546 94.0807 86.5857 94.9642 86.7854Z" fill="#001434"/>
<path d="M97.5008 87.1721C97.6573 87.1688 97.8088 87.1158 97.9333 87.0208C98.0578 86.9259 98.149 86.7939 98.1937 86.6438C98.2396 86.4942 98.2369 86.3339 98.1861 86.1859C98.1352 86.0379 98.0387 85.9099 97.9105 85.8202C97.8258 85.76 97.7293 85.7184 97.6275 85.6981C97.5256 85.6778 97.4205 85.6792 97.3192 85.7022C96.5567 85.7748 96.4357 87.2326 97.5008 87.1721Z" fill="#001434"/>
<path d="M100.213 87.1122C100.854 86.858 100.661 85.5812 99.9769 85.5812C98.9239 85.5751 99.0268 87.5116 100.213 87.1122Z" fill="#001434"/>
<path d="M103.04 85.5748C103.161 84.6307 101.83 84.7518 101.83 85.6353C101.739 86.7004 103.04 86.5249 103.04 85.5748Z" fill="#001434"/>
<path d="M93.6682 85.2298C93.7831 84.5217 92.6636 84.2252 92.7241 84.9332C92.7846 85.6413 93.5471 85.9923 93.6682 85.2298Z" fill="#001434"/>
<path d="M95.9632 89.8129C95.0796 89.5769 94.8436 90.9385 95.8482 91.1684C96.7196 91.3318 96.7499 90.0913 95.9632 89.8129Z" fill="#001434"/>
<path d="M100.74 91.8885C101.744 91.8885 101.672 90.2364 100.564 90.3574C99.7413 90.4785 99.6808 91.949 100.74 91.8885Z" fill="#001434"/>
<path d="M103.452 91.2414C103.589 91.1714 103.7 91.0594 103.769 90.9218C103.837 90.7842 103.86 90.6282 103.834 90.4766C103.807 90.3251 103.733 90.186 103.622 90.0797C103.511 89.9734 103.369 89.9054 103.216 89.8859C103.112 89.8825 103.009 89.9025 102.913 89.9444C102.818 89.9863 102.734 90.049 102.666 90.1279C102.563 90.2465 102.503 90.3961 102.495 90.5528C102.488 90.7095 102.532 90.8643 102.623 90.9925C102.713 91.1206 102.844 91.2148 102.995 91.2599C103.145 91.3051 103.306 91.2985 103.452 91.2414Z" fill="#001434"/>
<path d="M105.456 89.5344C105.517 88.8264 104.446 89.0618 104.397 89.5883C104.319 90.4718 105.402 90.4179 105.456 89.5344Z" fill="#001434"/>
<path d="M97.7915 90.2975C97.0351 90.4246 97.1864 91.7741 98.1486 91.7741C99.1108 91.7741 98.8747 90.1825 97.7915 90.2975Z" fill="#001434"/>
<path d="M93.4874 89.2983C93.6084 90.0608 94.3709 90.4178 94.4919 89.6493C94.613 88.8807 93.4329 88.5297 93.4874 89.2983Z" fill="#001434"/>
<path d="M99.269 93.7785C99.1746 93.793 99.084 93.8263 99.0027 93.8765C98.9214 93.9266 98.8509 93.9926 98.7955 94.0705C98.7402 94.1483 98.701 94.2365 98.6803 94.3298C98.6596 94.4231 98.6579 94.5196 98.6752 94.6136C98.6925 94.7076 98.7285 94.7971 98.781 94.8769C98.8335 94.9567 98.9015 95.0252 98.981 95.0782C99.0605 95.1313 99.1498 95.1678 99.2437 95.1858C99.3375 95.2037 99.434 95.2025 99.5274 95.1825C99.709 95.1435 99.8683 95.0353 99.9714 94.8808C100.075 94.7263 100.113 94.5377 100.08 94.3551C100.046 94.1724 99.9427 94.01 99.7913 93.9024C99.64 93.7947 99.4526 93.7503 99.269 93.7785Z" fill="#001434"/>
<path d="M103.749 94.5471C104.56 94.5471 104.463 93.2702 103.628 93.3368C103.548 93.3444 103.471 93.3676 103.4 93.4052C103.329 93.4428 103.267 93.4941 103.216 93.5559C103.165 93.6178 103.127 93.6892 103.103 93.7658C103.08 93.8425 103.072 93.923 103.08 94.0028C103.088 94.0825 103.112 94.1598 103.15 94.2304C103.188 94.301 103.239 94.3633 103.301 94.4139C103.364 94.4645 103.435 94.5023 103.512 94.5252C103.589 94.548 103.669 94.5555 103.749 94.5471Z" fill="#001434"/>
<path d="M102.041 95.0737C102.646 94.8438 102.465 93.6637 101.92 93.6637C100.801 93.6637 101.085 95.455 102.041 95.0737Z" fill="#001434"/>
<path d="M105.753 93.2448C105.813 92.4218 104.754 92.5368 104.754 93.2448C104.633 94.1284 105.753 94.0497 105.753 93.2448Z" fill="#001434"/>
<path d="M96.6716 93.5425C96.5517 93.6285 96.4597 93.7478 96.4068 93.8855C96.354 94.0232 96.3426 94.1734 96.3742 94.3175C96.4057 94.4616 96.4788 94.5934 96.5843 94.6964C96.6899 94.7995 96.8233 94.8694 96.9681 94.8975C97.9363 95.2606 97.9545 93.0645 96.6716 93.5425Z" fill="#001434"/>
<path d="M101.805 98.4943C102.743 98.4943 102.628 96.8422 101.745 97.0238C101.57 97.0577 101.413 97.1532 101.303 97.2929C101.193 97.4326 101.136 97.6072 101.143 97.785C101.151 97.9629 101.221 98.1323 101.343 98.2624C101.464 98.3925 101.628 98.4748 101.805 98.4943Z" fill="#001434"/>
<path d="M96.8956 96.7876C96.7408 96.75 96.5783 96.7604 96.4297 96.8177C96.2812 96.8749 96.1536 96.9761 96.0641 97.1077C96.0049 97.195 95.9641 97.2934 95.9442 97.397C95.9237 97.5007 95.9246 97.6076 95.947 97.711C95.9694 97.8143 96.0127 97.912 96.0744 97.9979C96.1353 98.0844 96.2133 98.1574 96.3035 98.2126C96.3937 98.2678 96.4943 98.3039 96.599 98.3187C96.7974 98.3466 96.999 98.2974 97.1622 98.1812C97.3254 98.065 97.4379 97.8907 97.4765 97.6941C97.5149 97.4973 97.4759 97.2933 97.3677 97.1244C97.2595 96.9556 97.0904 96.835 96.8956 96.7876Z" fill="#001434"/>
<path d="M99.4442 97.0784C98.9117 96.9634 98.6212 97.1994 98.5607 97.7319C98.5002 98.2645 98.7967 98.5549 99.1659 98.6155C100.037 98.7123 100.213 97.387 99.4442 97.0784Z" fill="#001434"/>
<path d="M104.457 97.0774C104.397 96.3149 103.247 96.6659 103.337 97.374C103.337 98.1425 104.572 97.846 104.457 97.0774Z" fill="#001434"/>
<path d="M98.857 108.872C98.0279 108.636 97.7374 110.228 98.621 110.349C98.8015 110.349 98.9764 110.285 99.1141 110.168C99.2519 110.052 99.3435 109.89 99.3726 109.711C99.401 109.533 99.3647 109.35 99.2701 109.196C99.1755 109.042 99.029 108.927 98.857 108.872Z" fill="#001434"/>
<path d="M103.276 109.344C103.087 109.377 102.917 109.48 102.8 109.633C102.682 109.785 102.624 109.975 102.64 110.167C102.655 110.359 102.741 110.538 102.881 110.67C102.958 110.74 103.048 110.795 103.146 110.829C103.244 110.864 103.348 110.879 103.452 110.873C103.556 110.866 103.657 110.839 103.75 110.793C103.843 110.746 103.926 110.682 103.994 110.603C104.061 110.524 104.112 110.432 104.143 110.332C104.174 110.233 104.185 110.129 104.175 110.025C104.165 109.922 104.134 109.821 104.085 109.73C104.035 109.639 103.967 109.558 103.886 109.494C103.8 109.428 103.702 109.381 103.597 109.355C103.492 109.329 103.383 109.325 103.276 109.344Z" fill="#001434"/>
<path d="M105.105 109.579C104.93 110.644 106.346 110.524 106.346 109.519C106.461 108.46 105.166 108.581 105.105 109.579Z" fill="#001434"/>
<path d="M100.976 109.344C100.883 109.348 100.793 109.372 100.71 109.415C100.627 109.457 100.555 109.517 100.497 109.59C100.44 109.663 100.399 109.747 100.377 109.837C100.355 109.928 100.353 110.022 100.371 110.113C100.371 110.645 100.546 110.881 101.079 110.881C102.053 110.881 102.09 109.223 100.976 109.344Z" fill="#001434"/>
<path d="M96.4357 108.399C96.1997 109.107 97.4402 109.609 97.5552 108.817C97.6702 108.024 96.6112 107.637 96.4357 108.399Z" fill="#001434"/>
<path d="M107.641 107.927C106.758 107.927 106.697 109.289 107.466 109.108C107.932 108.993 108.168 107.927 107.641 107.927Z" fill="#001434"/>
<path d="M91.1865 98.0227C91.0483 98.0574 90.9282 98.1427 90.8498 98.2617C90.7715 98.3808 90.7407 98.5249 90.7635 98.6655C90.7864 98.8062 90.8611 98.9331 90.9731 99.0213C91.085 99.1095 91.226 99.1524 91.368 99.1416C91.5078 99.1085 91.6299 99.0237 91.7097 98.9042C91.7895 98.7847 91.821 98.6395 91.798 98.4977C91.775 98.3559 91.6991 98.228 91.5857 98.1399C91.4722 98.0518 91.3296 98.0099 91.1865 98.0227Z" fill="#001434"/>
<path d="M86.603 98.1436C86.5236 98.1355 86.4433 98.1433 86.367 98.1666C86.2813 98.1928 86.2024 98.2377 86.1361 98.298C86.0698 98.3583 86.0176 98.4325 85.9833 98.5153C85.9491 98.5981 85.9335 98.6874 85.9379 98.777C85.9422 98.8665 85.9663 98.9539 86.0084 99.033C86.0505 99.1122 86.1096 99.181 86.1814 99.2346C86.2532 99.2882 86.336 99.3252 86.4239 99.343C86.5117 99.3609 86.6024 99.359 86.6894 99.3377C86.7765 99.3164 86.8577 99.276 86.9273 99.2196C87.0202 99.1433 87.0884 99.0412 87.1233 98.9263C87.1582 98.8113 87.1584 98.6886 87.1237 98.5735C87.089 98.4585 87.0211 98.3563 86.9284 98.2798C86.8357 98.2033 86.7225 98.1559 86.603 98.1436Z" fill="#001434"/>
<path d="M83.8787 98.3789C84.3507 99.1414 85.5852 98.6155 84.9982 97.847C84.2902 97.024 83.5216 97.7859 83.8787 98.3789Z" fill="#001434"/>
<path d="M89.025 98.2891C87.8752 98.1438 87.8813 99.5296 88.8495 99.5296C89.3215 99.5296 89.5576 99.3541 89.5576 98.8821C89.5939 98.4948 89.2429 98.3193 89.025 98.2891Z" fill="#001434"/>
<path d="M92.4279 97.9614C92.561 98.6089 93.4869 98.2579 93.3114 97.6709C93.1359 97.0839 92.3189 97.4289 92.4279 97.9614Z" fill="#001434"/>
<path d="M82.5229 96.6666C81.9904 96.6666 82.2264 97.6101 82.6984 97.7856C83.467 97.9611 83.4065 96.6666 82.5229 96.6666Z" fill="#001434"/>
<path d="M82.4015 101.922C81.6935 101.625 81.3425 102.805 82.1111 103.041C82.2403 103.035 82.3641 102.988 82.4646 102.907C82.5651 102.825 82.6369 102.714 82.6696 102.589C82.7018 102.463 82.6931 102.331 82.6449 102.211C82.5967 102.091 82.5114 101.99 82.4015 101.922Z" fill="#001434"/>
<path d="M86.6458 102.8C86.562 102.796 86.4784 102.809 86.3999 102.839C86.3214 102.868 86.2497 102.913 86.1891 102.971C86.1286 103.029 86.0804 103.099 86.0474 103.176C86.0145 103.253 85.9975 103.336 85.9975 103.42C85.9975 103.504 86.0145 103.587 86.0474 103.664C86.0804 103.741 86.1286 103.811 86.1891 103.869C86.2497 103.927 86.3214 103.972 86.3999 104.001C86.4784 104.031 86.562 104.044 86.6458 104.04C87.5293 104.04 87.6927 102.8 86.6458 102.8Z" fill="#001434"/>
<path d="M88.6558 102.86C88.0507 103.52 89.1823 104.155 89.7149 103.465C90.1264 102.921 89.376 102.11 88.6558 102.86Z" fill="#001434"/>
<path d="M84.1815 102.448C84.1072 102.427 84.029 102.423 83.953 102.437C83.8769 102.45 83.805 102.481 83.7425 102.526C83.6801 102.572 83.6289 102.631 83.5928 102.699C83.5566 102.768 83.5365 102.843 83.5339 102.92C83.419 103.332 83.5945 103.568 84.0665 103.683C84.9561 104.046 85.3131 102.587 84.1815 102.448Z" fill="#001434"/>
<path d="M80.5493 101.267C80.3133 101.8 81.2513 102.266 81.3723 101.618C81.5175 101.092 80.634 100.71 80.5493 101.267Z" fill="#001434"/>
<path d="M91.8401 101.801C91.011 101.74 90.8355 103.011 91.5436 102.86C92.0156 102.799 92.3061 101.801 91.8401 101.801Z" fill="#001434"/>
</svg>
