<svg width="1000" height="1000" viewBox="0 0 1000 1000" fill="none" xmlns="http://www.w3.org/2000/svg">
<rect width="1000" height="1000" fill="#1E1E1E"/>
<path d="M501.9 796.3C599.434 796.3 678.5 783.585 678.5 767.9C678.5 752.215 599.434 739.5 501.9 739.5C404.367 739.5 325.3 752.215 325.3 767.9C325.3 783.585 404.367 796.3 501.9 796.3Z" fill="#EF924D"/>
<path d="M485.2 759.9H467.6L468.8 746.3H486.3L485.2 759.9Z" fill="#FFAB91"/>
<path d="M539.3 764.101H522.7L524.7 747.101L539.3 749.201V764.101Z" fill="#FFAB91"/>
<path d="M485.2 759.9H467.6L468.8 746.3H486.3L485.2 759.9Z" stroke="#46133C" stroke-width="3" stroke-miterlimit="10" stroke-linecap="round" stroke-linejoin="round"/>
<path d="M539.3 764.101H522.7L524.7 747.101L539.3 749.201V764.101Z" stroke="#46133C" stroke-width="3" stroke-miterlimit="10" stroke-linecap="round" stroke-linejoin="round"/>
<path d="M459.6 578.6C462.9 579.5 449.3 658.2 463.9 746.6C471.7 747.9 484.3 749.3 490.6 746.7C496.7 740.6 497.2 622.6 497.2 614.7C502.5 615.7 505.6 617 508.9 620.3C513.1 624.5 518.4 739.5 518.4 748.2C525.3 751.5 540.5 752 544.9 750.1C548.9 746.1 555.9 591.8 548 573.3C539.5 578 505.1 583.8 459.6 578.6Z" fill="#5F235A"/>
<g opacity="0.15">
<path opacity="0.15" d="M460 579.301C471.3 580.301 481.8 580.701 491.3 580.601C481.6 580.501 470.9 579.901 459.6 578.601C459.8 578.601 459.9 578.901 460 579.301Z" fill="#5F235A"/>
<path opacity="0.15" d="M490.2 614.7C490.2 622.6 489.6 740.6 483.6 746.7C481.8 747.4 479.4 747.8 476.8 748C482.1 748.3 487.3 748.1 490.7 746.7C496.5 740.9 497.3 634.8 497.3 616.9C495.3 615.8 493.1 615.2 490.2 614.7Z" fill="#5F235A"/>
<path opacity="0.15" d="M548.1 573.2C546.7 574 544.5 574.8 541.8 575.6C542.1 576.7 467.1 578.8 467.6 580.3C471.1 589.5 543 582.9 543.2 584.8C547.4 625.7 541.5 746.5 537.9 750.1C536.7 750.6 534.8 750.9 532.5 751.1C537.8 751.4 542.7 751.1 544.9 750.1C549 746 556 591.7 548.1 573.2Z" fill="#5F235A"/>
</g>
<path d="M548.7 575.1C548.5 574.4 548.3 573.7 548.1 573.2C542.1 576.6 523.5 580.4 497.4 580.6C521.3 580.9 539.5 578.1 548.7 575.1Z" fill="#5F235A"/>
<path d="M467.6 746.301C453.7 661.801 463.3 587.201 467.6 579.201C465.8 579.001 461.5 578.801 459.6 578.601C462.9 579.501 449.3 658.201 463.9 746.601C469.2 747.501 476.7 748.401 483 748.101C478.1 747.901 471.5 746.901 467.6 746.301Z" fill="white"/>
<path d="M520.6 748.9C522.7 725.3 519.5 623.2 511.2 618.7C507.1 616.5 505.5 615 500.2 614C500.2 614.3 502.6 615.3 502.6 615.9C505.1 616.8 507.1 618.1 509.1 620.1C513.3 624.3 518.6 739.3 518.6 748C523.5 750.3 532.5 751.3 538.9 750.9C533.3 750.8 524.2 750.7 520.6 748.9Z" fill="white"/>
<path d="M459.6 578.6C462.9 579.5 449.3 658.2 463.9 746.6C471.7 747.9 484.3 749.3 490.6 746.7C496.7 740.6 497.2 622.6 497.2 614.7C502.5 615.7 505.6 617 508.9 620.3C513.1 624.5 518.4 739.5 518.4 748.2C525.3 751.5 540.5 752 544.9 750.1C548.9 746.1 555.9 591.8 548 573.3C539.5 578 505.1 583.8 459.6 578.6Z" stroke="#46133C" stroke-width="3" stroke-miterlimit="10" stroke-linecap="round" stroke-linejoin="round"/>
<path d="M497.3 614.701L491.5 614.101" stroke="#46133C" stroke-width="3" stroke-miterlimit="10" stroke-linecap="round" stroke-linejoin="round"/>
<path d="M444.2 777.1C444.2 777.1 465.7 778.4 483.6 775.2C491.9 775.2 490.4 757 490.4 757C490.4 757 480.1 760.3 471.5 758.6C462.9 756.9 464.6 755.8 464.6 755.8C464.6 755.8 430.9 761.4 426.4 765.9C422 770.3 424.9 777.1 444.2 777.1Z" fill="#75CC9C"/>
<path d="M431.6 767.3C435.9 763 459.1 759.1 467.1 757.7C463.5 756.6 464.6 755.9 464.6 755.9C464.6 755.9 430.9 761.5 426.4 766C422.8 769.6 424.1 774.8 435.1 776.5C429 774.1 426.8 772.1 431.6 767.3Z" fill="white"/>
<path d="M505.8 781.9C506.2 785.2 509.5 792.5 526.4 788.5C538.3 785.7 539.6 778 542 772.8C544.4 767.6 541.3 758.8 541.3 758.8C541.3 758.8 539.6 762.4 534.3 762.4C526.8 762.4 520.1 757.9 520.1 757.9C519.7 757.2 505.1 775.7 505.8 781.9Z" fill="#75CC9C"/>
<path d="M528.5 786.901C511.7 790.901 510.1 781.901 509.7 778.501C509.2 774.201 516.3 763.701 520.7 758.101C520.4 757.901 520.2 757.801 520.2 757.801C519.8 757.101 505.1 775.601 505.8 781.801C506.2 785.101 509.5 792.401 526.4 788.401C531.6 787.201 534.8 785.001 536.9 782.501C535.1 783.601 531.2 786.301 528.5 786.901Z" fill="white"/>
<path d="M444.2 777.1C444.2 777.1 465.7 778.4 483.6 775.2C491.9 775.2 490.4 757 490.4 757C490.4 757 480.2 759.6 471.5 758.6C467.8 758.2 466 757 465.1 756.3C464.7 756 464.2 755.8 463.7 755.9C458.4 756.8 430.4 761.8 426.4 765.8C422 770.3 424.9 777.1 444.2 777.1Z" stroke="#46133C" stroke-width="3" stroke-miterlimit="10" stroke-linecap="round" stroke-linejoin="round"/>
<path d="M505.8 781.9C506.5 785.2 509.5 792.5 526.4 788.5C538.3 785.7 540.6 778.3 542 772.8C543.4 767.4 541.3 758.8 541.3 758.8C541.3 758.8 539.6 762.4 534.3 762.4C526.8 762.4 521.1 758.5 521.1 758.5C517.5 760.1 503.8 772.7 505.8 781.9Z" stroke="#46133C" stroke-width="3" stroke-miterlimit="10" stroke-linecap="round" stroke-linejoin="round"/>
<path d="M445.9 757.9C445.9 757.9 450.5 758.5 451.1 763.2" stroke="#46133C" stroke-width="3" stroke-miterlimit="10" stroke-linecap="round" stroke-linejoin="round"/>
<path d="M451.1 756C451.1 756 455.7 756.6 456.3 761.3" stroke="#46133C" stroke-width="3" stroke-miterlimit="10" stroke-linecap="round" stroke-linejoin="round"/>
<path d="M456.4 754.601C456.4 754.601 461 755.201 461.6 759.901" stroke="#46133C" stroke-width="3" stroke-miterlimit="10" stroke-linecap="round" stroke-linejoin="round"/>
<path d="M517.5 772.3C517.5 772.3 521.6 770.2 524.8 773.8" stroke="#46133C" stroke-width="3" stroke-miterlimit="10" stroke-linecap="round" stroke-linejoin="round"/>
<path d="M519.7 768.5C519.7 768.5 523.8 766.4 527 770" stroke="#46133C" stroke-width="3" stroke-miterlimit="10" stroke-linecap="round" stroke-linejoin="round"/>
<path d="M521.1 764.701C521.1 764.701 525.2 762.601 528.4 766.201" stroke="#46133C" stroke-width="3" stroke-miterlimit="10" stroke-linecap="round" stroke-linejoin="round"/>
<path d="M529.9 578.601C529.9 578.601 537.5 610.701 551.7 610.701" stroke="#46133C" stroke-width="3" stroke-miterlimit="10" stroke-linecap="round" stroke-linejoin="round"/>
<path d="M467.6 580.3C467.6 580.3 465.5 601.3 458.9 603.7" stroke="#46133C" stroke-width="3" stroke-miterlimit="10" stroke-linecap="round" stroke-linejoin="round"/>
<path d="M533 532.1H565.6C565.6 532.1 586.1 450.1 527.6 406.2C523.9 402.5 510 402.3 510 402.3C481.6 411.2 472.5 430.2 472.5 430.2L459.5 407.2C459.5 407.2 444.3 412.4 442.7 437.4C424.6 463.1 393.8 465.3 375.9 447.5C370 453.1 354.1 469.8 354.1 469.8C354.1 469.8 370.5 489.2 398.7 492.1C428.2 495.1 448.9 476.2 454.7 469.8C459.5 474.6 467.9 541.8 455.8 574C455.2 575.7 456 577.6 457.7 578.2C462.8 579.9 474.8 582.6 498.4 582.4C515.2 582.3 545.1 577 545.1 577L533 532.1Z" fill="#EE406D"/>
<path d="M375.9 449.6L358.8 474.3L352.2 468.5L375.9 449.6Z" fill="#EE406D"/>
<path opacity="0.15" d="M497.4 532.1C497.4 532.1 481.5 581.8 491.3 592C496.5 597.4 534.9 601.8 537.8 602.8C540.8 603.8 551.4 603.7 551.4 603.7L550.2 584.3L497.4 532.1Z" fill="#5F235A"/>
<path d="M520.1 443.2C520.1 443.2 529.1 462.1 529.9 496.5C530.3 515.6 525.6 532.1 525.6 532.1L531.6 535.4C531.6 535.4 536.3 528.6 536.4 501.9C536.5 477.9 530.5 458.1 520.1 443.2Z" fill="#EE406D"/>
<path d="M466.5 429.299C466.5 429.299 467.4 427.499 469.4 424.699L459.5 407.199C459.5 407.199 457.7 407.799 455.3 409.599L466.5 429.299Z" fill="#EE406D"/>
<path d="M527.6 406.2C525.3 403.9 519.2 403 514.9 402.6C517.7 403.2 520.3 404.1 521.6 405.4C580.1 449.3 559.6 531.3 559.6 531.3H527L539.1 575.9C539.1 575.9 509.2 581.2 492.4 581.3C481.7 581.4 473.4 580.9 467 580.1C473.8 581.3 483.9 582.2 498.4 582.1C515.2 582 545.1 576.7 545.1 576.7L533 532.1H565.6C565.6 532.1 586.1 450.1 527.6 406.2Z" fill="#EE406D"/>
<path d="M452.4 465.1C446.6 471.5 422.3 494 393 491.2C394.8 491.5 396.7 491.8 398.7 492C423.3 494.5 445.9 477.7 454.7 469.7C454 467.2 453.1 465.7 452.4 465.1Z" fill="#EE406D"/>
<path d="M476.1 432.5C476.1 432.5 485.5 412.9 514.7 403.8C514.7 403.8 520.4 403.9 525.6 404.9C520.4 402.5 510 402.3 510 402.3C487.2 409.4 476.8 423.1 473.7 428.2L476.1 432.5Z" fill="#EE406D"/>
<path d="M375.9 449.6C394.3 468 426.8 466.3 445.4 439.9C446.7 419.5 456.2 410.9 460.3 408.6L459.5 407.2C459.5 407.2 444.3 412.4 442.7 437.4C424.6 463.1 393.8 465.3 375.9 447.5C370 453.1 354.1 469.8 354.1 469.8C354.1 469.8 354.1 468.7 355.2 469.8C359.6 465.1 371 454.2 375.9 449.6Z" fill="white"/>
<path d="M457.7 473.3C457.4 473.6 457 474 456.7 474.4C461.4 491.1 466.4 545.8 455.8 573.9C455.2 575.6 456 577.5 457.7 578.1C458.2 578.3 458.9 578.5 459.5 578.7C471 544.7 462.6 478.1 457.7 473.3Z" fill="white"/>
<path d="M533 532.1H565.6C565.6 532.1 586.1 450.1 527.6 406.2C523.9 402.5 510 402.3 510 402.3C481.6 411.2 472.5 430.2 472.5 430.2L459.5 407.2C459.5 407.2 444.3 412.4 442.7 437.4C424.6 463.1 393.8 465.3 375.9 447.5C370 453.1 354.1 469.8 354.1 469.8C354.1 469.8 370.5 489.2 398.7 492.1C428.2 495.1 448.9 476.2 454.7 469.8C459.5 474.6 467.9 541.8 455.8 574C455.2 575.7 456 577.6 457.7 578.2C462.8 579.9 474.8 582.6 498.4 582.4C515.2 582.3 545.1 577 545.1 577L533 532.1Z" stroke="#46133C" stroke-width="3" stroke-miterlimit="10" stroke-linecap="round" stroke-linejoin="round"/>
<path d="M571.5 595.4C549 594.9 526.7 593.3 504.3 590.8C497.6 590 492.6 584.1 492.9 577.4C493.6 564.3 494.9 551.2 496.6 538.1C497.5 531.4 503.4 526.5 510.2 527C532.2 528.5 554.2 531.1 576.3 534.5C582.7 535.5 587.4 541.1 587.2 547.6C586.8 559.8 585.9 571.9 584.6 584C583.8 590.6 578.1 595.6 571.5 595.4Z" fill="#FFA45A"/>
<path d="M571.5 595.4C549 594.9 526.7 593.3 504.3 590.8C497.6 590 492.6 584.1 492.9 577.4C493.6 564.3 494.9 551.2 496.6 538.1C497.5 531.4 503.4 526.5 510.2 527C532.2 528.5 554.2 531.1 576.3 534.5C582.7 535.5 587.4 541.1 587.2 547.6C586.8 559.8 585.9 571.9 584.6 584C583.8 590.6 578.1 595.6 571.5 595.4Z" fill="#FFA45A"/>
<path d="M497.3 578.8C498 565.7 499.3 552.6 501 539.5C501.9 532.8 507.8 527.9 514.6 528.4C536.6 529.9 558.6 532.5 580.7 535.9C581.4 536 582.1 536.2 582.7 536.4C580.9 534.9 578.7 533.8 576.2 533.4C554.1 530 532.1 527.4 510.1 525.9C503.4 525.4 497.4 530.3 496.5 537C494.8 550.1 493.6 563.2 492.8 576.3C492.5 582.2 496.2 587.4 501.7 589.2C498.8 586.7 497.1 582.9 497.3 578.8Z" fill="white"/>
<path d="M571.5 595.4C549 594.9 526.7 593.3 504.3 590.8C497.6 590 492.6 584.1 492.9 577.4C493.6 564.3 494.9 551.2 496.6 538.1C497.5 531.4 503.4 526.5 510.2 527C532.2 528.5 554.2 531.1 576.3 534.5C582.7 535.5 587.4 541.1 587.2 547.6C586.8 559.8 585.9 571.9 584.6 584C583.8 590.6 578.1 595.6 571.5 595.4Z" stroke="#46133C" stroke-width="3" stroke-miterlimit="10" stroke-linecap="round" stroke-linejoin="round"/>
<path d="M533 532.1C545.7 472.4 518.5 441 518.5 441" stroke="#46133C" stroke-width="3" stroke-miterlimit="10" stroke-linecap="round" stroke-linejoin="round"/>
<path d="M450.3 462.899C450.3 462.899 452.8 464.199 454.7 469.699" stroke="#46133C" stroke-width="4" stroke-miterlimit="10" stroke-linecap="round" stroke-linejoin="round"/>
<path d="M487.2 499C487.2 499 488.4 505.3 485.3 516.8" stroke="#46133C" stroke-width="3" stroke-miterlimit="10" stroke-linecap="round" stroke-linejoin="round"/>
<path d="M481.1 372C481.1 372 481.4 385 481.4 390.6C481.4 396.2 462.9 414.3 462.9 414.3C462.9 414.3 455.6 403.5 458.2 388.6C460.8 373.7 475.2 372 475.2 372H481.1Z" fill="#CC1F49"/>
<path d="M464.8 416.9C464.8 410.1 471.8 387.6 461.7 366.4C454.7 351.8 430.4 347.3 416.5 336.1C376.1 303.5 396.2 213.9 396.2 213.9C396.2 213.9 412.3 188.3 464.9 188.3C482.4 188.3 497.9 195.8 512.1 239C526.2 282.2 513.3 306.2 513.3 306.2C505.9 321.3 498.6 357.8 518.6 392.6L522.8 398.9C522.8 398.9 482.5 415.5 477.3 432C472.1 448.4 464.8 416.9 464.8 416.9Z" fill="#FFAB91"/>
<path opacity="0.43" d="M518.5 392.5C498.5 357.7 505.8 321.2 513.2 306.1C513.2 306.1 526.2 282.1 512 238.9C497.9 195.7 482.3 188.2 464.8 188.2C443.8 188.2 428.6 192.3 417.9 197.2C427.9 193.7 440.8 191.2 457.4 191.2C461.3 191.2 465.1 191.6 468.9 192.7C455.9 193.9 400.5 204.7 396.2 213.9C396.2 213.9 402.2 232.4 425.1 239.8C440.8 244.9 457.9 243.3 472.5 241.9C477.7 243.5 478.5 259.5 508.5 268.3C519.6 271.6 504.3 316 501.9 329.3C499.6 341.9 501.2 367.3 506.9 380.7C510.6 389.5 506.7 387.8 498.9 393.2C496.5 394.8 486.1 401.5 485.5 402.4C477.9 412.6 486 409.3 470.4 433.4C472.6 437.4 475.1 438.9 477.2 432C482.3 415.5 522.7 398.9 522.7 398.9L518.5 392.5Z" fill="#FFAB91"/>
<path d="M467.5 419.5C467.5 412.2 476.9 389.2 466.1 366.5C458.6 350.9 434.8 345.3 420 333.3C384.6 304.8 394.3 235.6 398.3 211.2C396.9 212.8 396.3 213.8 396.3 213.8C396.3 213.8 376.2 303.5 416.6 336C430.5 347.2 454.8 351.7 461.8 366.3C471.9 387.6 464.9 410 464.9 416.8C464.9 416.8 466.9 426.3 468.8 429.7C466.6 423.9 467.5 419.5 467.5 419.5Z" fill="white"/>
<path d="M464.8 416.9C464.8 410.1 471.8 387.6 461.7 366.4C454.7 351.8 430.4 347.3 416.5 336.1C376.1 303.5 396.2 213.9 396.2 213.9C396.2 213.9 412.3 188.3 464.9 188.3C482.4 188.3 497.9 195.8 512.1 239C526.2 282.2 513.3 306.2 513.3 306.2C505.9 321.3 498.6 357.8 518.6 392.6L522.8 398.9C522.8 398.9 482.5 415.5 477.3 432C472.1 448.4 464.8 416.9 464.8 416.9Z" stroke="#46133C" stroke-width="3" stroke-miterlimit="10" stroke-linecap="round" stroke-linejoin="round"/>
<path d="M421.1 273.899C421.1 273.899 421.5 283.699 414.6 292.499C416.4 296.999 425 296.299 425 296.299" stroke="#46133C" stroke-width="3" stroke-miterlimit="10" stroke-linecap="round" stroke-linejoin="round"/>
<path d="M417.3 308.1C417.2 308.8 430.9 312.8 438.5 304.1C434.5 313.7 429 317.9 416.6 317.9" fill="#FF5757"/>
<path d="M411.5 306.5C411.4 307.2 430.9 312.8 438.4 304.1C434.4 313.7 428.9 317.9 416.5 317.9" stroke="#46133C" stroke-width="3" stroke-miterlimit="10" stroke-linecap="round" stroke-linejoin="round"/>
<path d="M416.5 317.9C416.5 317.9 420 312.7 416.5 308.1" stroke="#46133C" stroke-width="3" stroke-miterlimit="10" stroke-linecap="round" stroke-linejoin="round"/>
<path opacity="0.71" d="M455.3 286.6L438.9 284.4C432.7 283.6 428.4 277.1 429.2 270L430.2 261.7C431 254.6 436.7 249.3 442.9 249.9L459.3 251.5C465.8 252.1 470.5 258.7 469.6 266.1L468.6 274.8C467.8 282.2 461.8 287.5 455.3 286.6Z" fill="white"/>
<path opacity="0.71" d="M407.7 283.6L389.2 282.4C382.2 282 376.9 275.5 377.2 268.1L377.6 259.4C378 251.9 383.9 246.1 390.9 246.3L409.4 246.9C416.7 247.1 422.5 253.6 422.1 261.4L421.7 270.5C421.3 278.2 415 284.1 407.7 283.6Z" fill="white"/>
<path d="M441.8 273.899C443.512 273.899 444.9 271.392 444.9 268.299C444.9 265.206 443.512 262.699 441.8 262.699C440.088 262.699 438.7 265.206 438.7 268.299C438.7 271.392 440.088 273.899 441.8 273.899Z" fill="#46133C"/>
<path d="M411.5 270.599C413.212 270.599 414.6 268.092 414.6 264.999C414.6 261.907 413.212 259.399 411.5 259.399C409.788 259.399 408.4 261.907 408.4 264.999C408.4 268.092 409.788 270.599 411.5 270.599Z" fill="#46133C"/>
<path d="M464.8 374.5C464.8 374.5 452.5 390.3 459.5 407.2C464.5 419.2 467 428.8 472.5 436.7C479.1 428.5 485.1 410.9 503.8 403.2C522.4 395.6 520 391.1 520 388.5C520 386.1 516.8 379.4 512.6 379.4" stroke="#46133C" stroke-width="3" stroke-miterlimit="10" stroke-linecap="round" stroke-linejoin="round"/>
<path d="M490.6 424.3C490.6 424.3 481.4 435.1 481.4 469.7" stroke="#46133C" stroke-width="3" stroke-miterlimit="10" stroke-linecap="round" stroke-linejoin="round"/>
<path d="M464.8 416.899C464.8 416.899 460.5 442.799 464.8 447.099" stroke="#46133C" stroke-width="3" stroke-miterlimit="10" stroke-linecap="round" stroke-linejoin="round"/>
<path d="M259.8 331.7C259.8 331.7 254.1 337.8 257.7 347C262.3 358.5 259.8 361.4 257.7 367.1" stroke="#46133C" stroke-width="3" stroke-miterlimit="10" stroke-linecap="round" stroke-linejoin="round"/>
<path d="M484.5 233.5C486.8 235.8 478.1 240.9 490.8 253.6C503.6 266.4 509.2 266.7 509.2 276.8C509.2 286.9 510.5 310.8 520 315.1C529.5 319.4 551.2 286 548.2 252.1C546.2 230.7 537.2 213.2 526.9 206.2C522.4 181.9 496.5 166.9 476.9 163.6C447.4 158.7 430.7 175.5 429.3 174.1C418.5 177.4 409.8 177.9 403.2 177.2C393.1 176.2 384.9 185.3 386.9 195.2V195.3C391 215 407 225.3 411.8 228.4C421.6 234.7 430.7 236.5 433.2 237C443 238.7 451.6 237.4 459.2 236.3C473.5 234.2 481.9 230.8 484.5 233.5Z" fill="#6D524E"/>
<path d="M484.5 233.5C486.8 235.8 478.1 240.9 490.8 253.6C503.6 266.4 509.2 266.7 509.2 276.8C509.2 286.9 510.5 310.8 520 315.1C529.5 319.4 551.2 286 548.2 252.1C546.2 230.7 537.2 213.2 526.9 206.2C522.4 181.9 496.5 166.9 476.9 163.6C447.4 158.7 430.7 175.5 429.3 174.1C418.5 177.4 409.8 177.9 403.2 177.2C393.1 176.2 384.9 185.3 386.9 195.2V195.3C391 215 407 225.3 411.8 228.4C421.6 234.7 430.7 236.5 433.2 237C443 238.7 451.6 237.4 459.2 236.3C473.5 234.2 481.9 230.8 484.5 233.5Z" fill="#5F2E50"/>
<g opacity="0.34">
<path opacity="0.34" d="M526.3 203.9C524.5 196.5 520.7 190.1 515.7 184.6C519 189.4 521.5 194.9 522.6 200.9C523.8 201.7 525.1 202.7 526.3 203.9Z" fill="#5F2E50"/>
<path opacity="0.34" d="M485.9 228.1C483.3 225.5 469.2 228.9 454.9 231.1C447.3 232.3 438.8 233.6 428.9 231.8C426.4 231.4 417.3 229.6 407.5 223.2C405 221.6 399.3 217.9 394 212C400.3 221.2 408.5 226.5 411.8 228.6C421.6 234.9 430.7 236.7 433.2 237.2C443 238.9 451.6 237.6 459.2 236.5C468.6 235.1 475.5 233.1 479.8 232.7C488.2 232.3 486.8 229 485.9 228.1Z" fill="#5F2E50"/>
<path opacity="0.34" d="M486.6 248.2C486.4 248 486.2 247.7 485.9 247.5C487 249.3 488.6 251.3 490.8 253.5C496.5 259.2 500.8 262.5 503.8 265.2C501.6 260.4 496.1 257.8 486.6 248.2Z" fill="#5F2E50"/>
<path opacity="0.34" d="M548.1 252.099C546.5 234.399 540 219.299 532 210.699C538 219.599 542.6 232.199 543.9 246.699C547 280.499 525.2 313.899 515.7 309.699C515.2 309.499 514.8 309.199 514.4 308.899C515.8 311.799 517.7 313.999 520 314.999C529.5 319.299 551.2 285.899 548.1 252.099Z" fill="#5F2E50"/>
</g>
<path d="M391.5 199.899V199.799C389.5 189.899 397.7 180.699 407.8 181.799C414.4 182.499 421.8 180.699 432.6 177.399C436.1 175.299 451.2 162.899 480.7 167.899C491.6 169.699 505.3 175.599 515.3 184.199C504.8 172.899 489.5 165.799 476.8 163.699C447.3 158.799 430.6 175.599 429.2 174.199C418.4 177.499 409.7 177.999 403.1 177.299C393 176.299 384.8 185.399 386.8 195.299V195.399C389.4 208.099 397 216.899 403.4 222.399C398.4 216.999 393.5 209.599 391.5 199.899Z" fill="white"/>
<path d="M531.5 210.799C532 211.199 532.5 211.499 533.1 211.899C532.5 211.199 532 210.599 531.4 209.999C531.4 210.299 531.4 210.499 531.5 210.799Z" fill="#5F2E50"/>
<path d="M424.3 175.799C417.4 177.999 408.8 177.799 403.1 177.199C393 176.199 384.8 185.299 386.8 195.199V195.299C390.9 214.999 406.9 225.299 411.7 228.399C421.5 234.699 430.6 236.499 433.1 236.999C442.9 238.699 451.5 237.399 459.1 236.299C473.5 234.099 481.8 230.699 484.5 233.299C486.8 235.599 478.1 240.699 490.8 253.399C503.6 266.199 509.2 266.499 509.2 276.599C509.2 286.699 510.5 310.599 520 314.899C529.5 319.199 551.2 285.799 548.2 251.899C546.2 230.499 537.2 212.999 526.9 205.999C522.4 181.699 496.5 166.699 476.9 163.399C447.4 158.499 436.5 170.399 430 173.399" stroke="#46133C" stroke-width="3" stroke-miterlimit="10" stroke-linecap="round" stroke-linejoin="round"/>
<path d="M502 223.9C500.9 224.2 489.2 220.7 485.5 233.7" stroke="#46133C" stroke-width="3" stroke-miterlimit="10" stroke-linecap="round" stroke-linejoin="round"/>
<path d="M509 369.799C509 369.799 516 360.999 526.9 371.999C537.9 382.999 545.1 383.199 553.3 394.799C562.7 408.099 562.7 426.499 553.2 428.799C550.9 429.399 544.7 419.799 538.8 413.599C532.9 407.399 524 403.399 520.1 407.199C516.2 410.999 501.1 424.299 488.7 411.899C478.1 401.299 520 396.399 520 388.599C520 380.699 511.3 380.499 509 369.799Z" fill="#FF3B61"/>
<path d="M516.1 403.9C510.5 411.1 498 413.2 487.8 410.9C488 411.2 488.3 411.6 488.7 411.9C501.1 424.3 518.1 409.2 522 405.3C523.9 403.4 533.8 407.2 538.8 413.6C535.1 403.6 519.2 399.9 516.1 403.9Z" fill="#FF3B61"/>
<path d="M553.3 394.8C545.1 383.2 537.9 383 526.9 372C523.6 368.7 520.8 367.2 518.3 366.7C529 377.1 536.1 377.5 544.1 388.9C552.7 401.1 553.4 417.8 546 422.1C549.2 426 551.8 429.1 553.2 428.8C562.7 426.4 562.7 408 553.3 394.8Z" fill="#FF3B61"/>
<path d="M509 369.799C509 369.799 516 360.999 526.9 371.999C537.9 382.999 545.1 383.199 553.3 394.799C562.7 408.099 562.7 426.499 553.2 428.799C550.9 429.399 544.7 419.799 538.8 413.599C532.9 407.399 524 403.399 520.1 407.199C516.2 410.999 501.1 424.299 488.7 411.899C478.1 401.299 520 396.399 520 388.599C520 380.699 511.3 380.499 509 369.799Z" stroke="#46133C" stroke-width="3" stroke-miterlimit="10" stroke-linecap="round" stroke-linejoin="round"/>
<path d="M521.1 595.4C515.6 592.4 521.3 581.1 521.3 581.1C519.2 583.2 515.4 583.9 510.5 583.9C505.6 583.9 506.8 579.9 512.9 573.9C519 567.8 522.8 566 526.1 564.3C535.9 559.4 534.1 550.8 534.1 550.8L558 550.1C558 550.1 554.5 560.3 555.7 562.7C562.6 577 551 591.9 550.2 593.6C548.9 596.3 543.1 597.9 540 596.3C535.1 599 528.4 596.4 528.1 595.8C525.8 597.1 522.6 596.3 521.1 595.4Z" fill="#FFAB91"/>
<path d="M521.1 595.4C515.6 592.4 521.3 581.1 521.3 581.1C519.2 583.2 515.4 583.9 510.5 583.9C505.6 583.9 506.8 579.9 512.9 573.9C519 567.8 522.8 566 526.1 564.3C535.9 559.4 534.1 550.8 534.1 550.8L558 550.1C558 550.1 554.5 560.3 555.7 562.7C562.6 577 551 591.9 550.2 593.6C548.9 596.3 543.1 597.9 540 596.3C535.1 599 528.4 596.4 528.1 595.8C525.8 597.1 522.6 596.3 521.1 595.4Z" fill="#FFAB91"/>
<path d="M512 576.899C518.6 570.299 523.5 568.599 529.9 565.199C538.7 560.499 537.5 552.399 537.3 550.199L534.2 550.899C534.2 550.899 536 559.499 526.2 564.399C522.9 566.099 519.1 567.899 513 573.999C506.9 580.099 505.7 583.999 510.6 583.999C509.4 582.199 508 580.799 512 576.899Z" fill="white"/>
<g opacity="0.43">
<path opacity="0.43" d="M514 581.799C513 582.799 511.6 583.499 509.9 583.999C510.1 583.999 510.3 583.999 510.5 583.999C511.4 583.999 512.2 583.999 513 583.899C513.6 582.599 514 581.799 514 581.799Z" fill="#FFAB91"/>
<path opacity="0.43" d="M558 550.199L552.3 550.399C551.4 553.299 549.2 561.599 550.2 563.699C557.5 578.799 548 598.899 542.5 597.099C545.5 597.299 549.1 595.799 550.1 593.799C550.9 592.099 562.5 577.199 555.6 562.899C554.5 560.399 558 550.199 558 550.199Z" fill="#FFAB91"/>
</g>
<path d="M521.1 595.4C515.6 592.4 521.3 581.1 521.3 581.1C519.2 583.2 515.2 585.4 510.5 583.9C507.8 583 506.8 579.9 512.9 573.9C519 567.8 522.8 566 526.1 564.3C535.9 559.4 534.1 550.8 534.1 550.8L558 550.1C558 550.1 554.5 560.3 555.7 562.7C562.6 577 551 591.9 550.2 593.6C548.9 596.3 543.1 597.9 540 596.3C535.1 599 528.4 596.4 528.1 595.8C525.8 597.1 522.6 596.3 521.1 595.4Z" stroke="#46133C" stroke-width="3" stroke-miterlimit="10" stroke-linecap="round" stroke-linejoin="round"/>
<path d="M529.9 591.6C529.9 591.6 529.6 593.6 528.1 595.9" stroke="#46133C" stroke-width="3" stroke-miterlimit="10" stroke-linecap="round" stroke-linejoin="round"/>
<path d="M540.9 591.1C540.9 591.1 540 593.8 540 596.4" stroke="#46133C" stroke-width="3" stroke-miterlimit="10" stroke-linecap="round" stroke-linejoin="round"/>
<path d="M528.2 532.1C528.2 532.1 537.6 527.8 551.6 529.9C565.6 532.1 569.1 532.1 569.1 532.1L565 550.2C565 550.2 530.6 550.2 528.2 550.2C525.8 550.2 528.2 547.2 528.2 547.2V532.1Z" fill="#FF3B61"/>
<path d="M532.5 547.2V532.1C532.5 532.1 537.6 529.8 545.9 529.4C535.1 528.9 528.2 532.1 528.2 532.1V547.2C528.2 547.2 525.8 550.2 528.2 550.2C528.7 550.2 530.2 550.2 532.5 550.2C530.1 550.2 532.5 547.2 532.5 547.2Z" fill="white"/>
<path d="M528.2 532.1C528.2 532.1 537.6 527.8 551.6 529.9C565.6 532.1 569.1 532.1 569.1 532.1L565 550.2C565 550.2 530.6 550.2 528.2 550.2C525.8 550.2 528.2 547.2 528.2 547.2V532.1Z" stroke="#46133C" stroke-width="3" stroke-miterlimit="10" stroke-linecap="round" stroke-linejoin="round"/>
<path d="M389.7 261.7L377.6 260.2" stroke="#46133C" stroke-width="3" stroke-miterlimit="10" stroke-linecap="round" stroke-linejoin="round"/>
<path d="M407.7 283.6L389.2 282.4C382.2 282 376.9 275.5 377.2 268.1L377.6 259.4C378 251.9 383.9 246.1 390.9 246.3L409.4 246.9C416.7 247.1 422.5 253.6 422.1 261.4L421.7 270.5C421.3 278.2 415 284.1 407.7 283.6Z" stroke="#46133C" stroke-width="3" stroke-miterlimit="10" stroke-linecap="round" stroke-linejoin="round"/>
<path d="M455.3 286.6L438.9 284.4C432.7 283.6 428.4 277.1 429.2 270L430.2 261.7C431 254.6 436.7 249.3 442.9 249.9L459.3 251.5C465.8 252.1 470.5 258.7 469.6 266.1L468.6 274.8C467.8 282.2 461.8 287.5 455.3 286.6Z" stroke="#46133C" stroke-width="3" stroke-miterlimit="10" stroke-linecap="round" stroke-linejoin="round"/>
<path d="M504.3 265L469.5 261.4" stroke="#46133C" stroke-width="3" stroke-miterlimit="10" stroke-linecap="round" stroke-linejoin="round"/>
<path d="M422.6 261.5C422.6 261.5 426.6 259.2 429.7 261.7" stroke="#46133C" stroke-width="4" stroke-miterlimit="10" stroke-linecap="round" stroke-linejoin="round"/>
<path d="M499.2 271.3C499.2 271.3 504.7 261.4 509.7 266.4C514.7 271.4 514.1 283.2 508 293.8C503.7 301.1 497.2 297.9 499.3 293.8" fill="#FFAB91"/>
<path d="M499.2 271.3C499.2 271.3 504.7 261.4 509.7 266.4C514.7 271.4 514.1 283.2 508 293.8C503.7 301.1 497.2 297.9 499.3 293.8" fill="#FFAB91"/>
<path opacity="0.43" d="M509.6 266.4C507 263.8 504.4 265.2 502.4 267C503.5 266.9 504.6 267.3 505.7 268.4C510.7 273.4 510.1 285.2 504 295.8C503.5 296.7 502.9 297.5 502.3 298.1C504.1 298 506.2 296.7 507.9 293.7C514 283.2 514.6 271.4 509.6 266.4Z" fill="#FFAB91"/>
<path d="M499.5 269.7C499.5 269.7 504.6 261.4 509.6 266.4C514.6 271.4 514 283.2 507.9 293.8C503.6 301.1 496.3 298.8 496.3 292.6" stroke="#46133C" stroke-width="3" stroke-miterlimit="10" stroke-linecap="round" stroke-linejoin="round"/>
<path d="M481.4 477.6C483.554 477.6 485.3 475.585 485.3 473.1C485.3 470.614 483.554 468.6 481.4 468.6C479.246 468.6 477.5 470.614 477.5 473.1C477.5 475.585 479.246 477.6 481.4 477.6Z" fill="#46133C"/>
<path d="M481.4 477.6C483.554 477.6 485.3 475.585 485.3 473.1C485.3 470.614 483.554 468.6 481.4 468.6C479.246 468.6 477.5 470.614 477.5 473.1C477.5 475.585 479.246 477.6 481.4 477.6Z" stroke="#46133C" stroke-width="4" stroke-miterlimit="10" stroke-linecap="round" stroke-linejoin="round"/>
<path d="M464.8 454.399C466.954 454.399 468.7 452.385 468.7 449.899C468.7 447.414 466.954 445.399 464.8 445.399C462.646 445.399 460.9 447.414 460.9 449.899C460.9 452.385 462.646 454.399 464.8 454.399Z" fill="#46133C"/>
<path d="M464.8 454.399C466.954 454.399 468.7 452.385 468.7 449.899C468.7 447.414 466.954 445.399 464.8 445.399C462.646 445.399 460.9 447.414 460.9 449.899C460.9 452.385 462.646 454.399 464.8 454.399Z" stroke="#46133C" stroke-width="4" stroke-miterlimit="10" stroke-linecap="round" stroke-linejoin="round"/>
<path d="M488.7 420.6C488.7 420.6 492.6 421.3 494.2 425.3" stroke="#46133C" stroke-width="3" stroke-miterlimit="10" stroke-linecap="round" stroke-linejoin="round"/>
<path d="M501.9 282.599C501.9 282.599 502.8 277.099 506.8 275.899" stroke="#46133C" stroke-width="3" stroke-miterlimit="10" stroke-linecap="round" stroke-linejoin="round"/>
<path d="M438.5 205.8C438.5 205.8 437.5 205.8 435.9 205.2C435.1 204.9 434.2 204.5 433.1 203.9C432.1 203.3 430.9 202.7 429.7 201.9C429.1 201.5 428.4 201.1 427.8 200.7C427.2 200.3 426.5 199.8 425.8 199.4C424.4 198.5 423 197.4 421.6 196.3C420.9 195.7 420.2 195.2 419.4 194.6C418.7 194 418 193.4 417.3 192.8C415.9 191.6 414.5 190.2 413.1 188.9C412.4 188.2 411.7 187.5 411.1 186.9C410.4 186.2 409.8 185.5 409.1 184.8C407.8 183.4 406.6 182 405.4 180.6C404.3 179.2 403.2 177.8 402.2 176.5C401.2 175.2 400.3 173.9 399.5 172.8C398.7 171.6 398 170.5 397.4 169.5C396.8 168.5 396.3 167.6 395.9 166.9C395.1 165.4 394.7 164.5 394.7 164.5C394.6 164.3 394.7 164.1 394.9 164.1C395 164 395.2 164.1 395.3 164.2C395.3 164.2 396 164.9 397.1 166.2C397.6 166.8 398.3 167.6 399 168.5C399.7 169.4 400.6 170.4 401.4 171.5C402.3 172.6 403.2 173.8 404.2 175.1C405.2 176.3 406.3 177.7 407.5 179C408.7 180.3 409.9 181.7 411.2 183C411.8 183.7 412.5 184.3 413.1 185C413.8 185.7 414.4 186.3 415.1 187C415.8 187.7 416.5 188.3 417.1 188.9C417.8 189.5 418.4 190.2 419.2 190.8C419.9 191.4 420.6 192 421.3 192.6C422 193.2 422.7 193.7 423.4 194.3C424.1 194.9 424.8 195.4 425.4 195.9C426.1 196.4 426.7 196.9 427.4 197.4C428.1 197.9 428.7 198.3 429.3 198.8C429.9 199.2 430.5 199.6 431.1 200C432.3 200.8 433.4 201.4 434.3 202C435.3 202.6 436.1 203.1 436.8 203.6C438.2 204.6 438.8 205.4 438.8 205.4C438.9 205.5 438.9 205.7 438.7 205.9C438.6 205.8 438.6 205.8 438.5 205.8Z" fill="#46133C"/>
<path d="M467.5 212.5C467.5 212.5 467.2 213 466.5 213.3C466.2 213.5 465.8 213.5 465.3 213.5C464.8 213.5 464.3 213.6 463.7 213.6C461.4 213.7 458.4 213.7 455.3 213.3C453.8 213.1 452.3 212.8 450.9 212.5C450.2 212.3 449.5 212.1 448.9 212C448.3 211.8 447.7 211.6 447.1 211.4C446.6 211.2 446.1 211 445.6 210.9C445.2 210.7 444.8 210.4 444.6 210.2C444.4 209.9 444.2 209.6 444.1 209.4C444 209.2 444 209 444 209C444 209 444.1 208.9 444.4 208.8C444.6 208.7 444.9 208.6 445.3 208.5C445.7 208.4 446.1 208.4 446.5 208.5C446.9 208.6 447.4 208.7 447.9 208.9C448.4 209 449 209.2 449.6 209.3C450.2 209.4 450.8 209.6 451.5 209.7C452.2 209.8 452.9 210 453.6 210.1C454.3 210.2 455 210.3 455.7 210.4C457.1 210.6 458.6 210.8 459.9 210.9C461.3 211 462.5 211.1 463.6 211.2C464.1 211.2 464.6 211.2 465.1 211.2C465.5 211.2 465.9 211.2 466.3 211.4C466.6 211.5 466.9 211.7 467.1 211.8C467.3 211.9 467.4 212 467.4 212C467.6 212.1 467.6 212.4 467.5 212.5Z" fill="#46133C"/>
<path d="M488.2 200.7C488.2 200.7 486.8 201.4 484.3 201.8C483 202 481.5 202.1 479.7 202C477.9 201.9 475.9 201.8 473.8 201.6C471.6 201.4 469.3 201 466.8 200.5C464.4 200 461.8 199.4 459.2 198.6C457.9 198.2 456.6 197.7 455.3 197.3C454 196.8 452.7 196.3 451.3 195.7C450 195.1 448.7 194.6 447.4 193.9C446.8 193.6 446.1 193.3 445.5 192.9L443.6 191.8C441.1 190.4 438.6 188.8 436.3 187.1C435.1 186.3 434 185.4 432.9 184.6C431.8 183.7 430.8 182.8 429.7 182C427.7 180.2 425.7 178.4 424 176.6C423.1 175.7 422.3 174.8 421.5 174C420.7 173.1 419.9 172.3 419.3 171.5C417.9 169.8 416.6 168.3 415.7 166.8C414.7 165.4 413.8 164.1 413.2 163C411.9 160.8 411.3 159.5 411.3 159.5C411.2 159.3 411.3 159 411.5 158.9C411.7 158.8 411.9 158.9 412 159C412 159 413 160.1 414.6 162C415.4 163 416.4 164.1 417.5 165.5C418.6 166.9 419.9 168.3 421.2 169.9C421.9 170.7 422.7 171.5 423.4 172.3C424.2 173.1 425 174 425.9 174.8C427.6 176.5 429.5 178.2 431.5 180C432.5 180.8 433.6 181.7 434.6 182.5C435.7 183.3 436.8 184.1 437.9 184.9C440.2 186.5 442.6 188 445 189.3C446.2 190 447.5 190.6 448.7 191.3C449.9 191.9 451.2 192.5 452.5 193.1C453.8 193.7 455 194.1 456.3 194.6C457.6 195 458.8 195.5 460.1 195.9C462.6 196.7 465.1 197.4 467.4 197.9C469.8 198.4 472 198.8 474.1 199.1C476.2 199.4 478.1 199.6 479.8 199.7C481.5 199.8 483 199.9 484.2 200C486.7 200.3 488.1 200.6 488.1 200.6C488.2 200.5 488.2 200.6 488.2 200.7Z" fill="#46133C"/>
<path d="M331 408.599C333.5 392.699 312.7 386.399 304.5 393.099C300.4 414.799 283.4 428.299 303.8 436.699C316 441.699 316.8 433.799 323.2 440.299C331.7 448.799 337.8 452.199 337.8 452.199L355.3 436.699C351.1 433.599 328.6 423.799 331 408.599Z" fill="#FFAB91"/>
<path opacity="0.43" d="M327 438.4C319.6 429.7 317.8 433.7 309 430.8C288.6 423.9 301 412.5 306.1 392C305.5 392.3 305 392.7 304.5 393C300.4 414.7 283.4 428.2 303.8 436.6C316 441.6 316.8 433.7 323.2 440.2C331.7 448.7 337.8 452.1 337.8 452.1L340.8 449.4C339.7 448.9 334.2 446.9 327 438.4Z" fill="#FFAB91"/>
<path d="M328.7 407.599C327.5 423.699 347.5 434.399 357.3 438.399L355.3 436.699C351.2 433.599 328.6 423.799 331 408.599C333.4 393.699 313.7 387.199 304.5 393.099C312.4 388.299 329.6 393.999 328.7 407.599Z" fill="white"/>
<path d="M331 408.599C333.5 392.699 312.7 386.399 304.5 393.099C297.9 397.999 283.4 428.299 303.8 436.699C316 441.699 316.8 433.799 323.2 440.299C331.7 448.799 337.8 452.199 337.8 452.199L355.3 436.699C351.1 433.599 328.6 423.799 331 408.599Z" stroke="#46133C" stroke-width="3" stroke-miterlimit="10" stroke-linecap="round" stroke-linejoin="round"/>
<path d="M290 383.3H276.5V390.4H290C293.2 390.4 295.8 393.4 295.8 397V408.4C295.8 412.1 293.2 415 290 415H276.5V422.1H290C296.6 422.1 301.9 416 301.9 408.4V397C301.9 389.4 296.6 383.3 290 383.3Z" fill="#A8DDEF"/>
<path opacity="0.42" d="M290 383.3H276.5V390.4H290C293.2 390.4 295.8 393.4 295.8 397V408.4C295.8 412.1 293.2 415 290 415H276.5V422.1H290C296.6 422.1 301.9 416 301.9 408.4V397C301.9 389.4 296.6 383.3 290 383.3Z" fill="#939EC5"/>
<path d="M290 383.3H276.5V390.4H288.8C292 390.4 294.6 393.4 294.6 397V408.4C294.6 412.1 292 415 288.8 415H276.5V422.1H290C296.6 422.1 301.9 416 301.9 408.4V397C301.9 389.4 296.6 383.3 290 383.3Z" stroke="#46133C" stroke-width="3" stroke-miterlimit="10" stroke-linecap="round" stroke-linejoin="round"/>
<path d="M229.4 372.1C226.5 384 226.7 397.8 230 409.7C232.7 419.1 237.7 426.2 242.7 430.8H271C276.1 426.3 281.1 419.2 283.7 409.7C287.1 397.8 287.2 384 284.3 372.1H229.4Z" fill="#A8DDEF"/>
<path d="M229.4 372.1C226.5 384 226.7 397.8 230 409.7C232.7 419.1 237.7 426.2 242.7 430.8H271C276.1 426.3 281.1 419.2 283.7 409.7C287.1 397.8 287.2 384 284.3 372.1H229.4Z" fill="#A8DDEF"/>
<path d="M233.5 409.799C230.1 397.899 230 384.099 232.9 372.199H229.5C226.6 384.099 226.8 397.899 230.1 409.799C232.8 419.199 237.8 426.299 242.8 430.899H246.2C241.2 426.299 236.1 419.199 233.5 409.799Z" fill="white"/>
<path opacity="0.42" d="M284.5 372.1H275.1C277.9 384.9 278.3 401.4 275.1 412.1C272.8 419.7 266.7 430.1 260.3 430.8H271.1C276.2 426.3 281.2 419.2 283.8 409.7C287.2 397.8 287.3 384 284.5 372.1Z" fill="#939EC5"/>
<path d="M229.4 372.1C226.5 384 226.7 397.8 230 409.7C232.7 419.1 237.7 426.2 242.7 430.8H271C276.1 426.3 281.1 419.2 283.7 409.7C287.1 397.8 287.2 384 284.3 372.1H229.4Z" stroke="#46133C" stroke-width="3" stroke-miterlimit="10" stroke-linecap="round" stroke-linejoin="round"/>
<path d="M297.7 430.1C305.2 429.2 308.6 423.9 304.4 420.5C302.4 418.8 293.7 419.5 290.8 421.3C287.7 423.3 291.1 430.9 297.7 430.1Z" fill="#FFAB91"/>
<path d="M297.7 430.1C305.2 429.2 308.6 423.9 304.4 420.5C302.4 418.8 293.7 419.5 290.8 421.3C287.7 423.3 291.1 430.9 297.7 430.1Z" stroke="#46133C" stroke-width="3" stroke-miterlimit="10" stroke-linecap="round" stroke-linejoin="round"/>
<path d="M291.3 414.299C297.2 413.799 302.1 411.599 300.9 407.699C300 404.799 292 401.299 288.1 404.399C285.4 406.599 285.8 414.699 291.3 414.299Z" fill="#FFAB91"/>
<path d="M291.3 414.299C297.2 413.799 302.1 411.599 300.9 407.699C300 404.799 292 401.299 288.1 404.399C285.4 406.599 285.8 414.699 291.3 414.299Z" stroke="#46133C" stroke-width="3" stroke-miterlimit="10" stroke-linecap="round" stroke-linejoin="round"/>
<path d="M292.1 402.799C302.6 404.099 308.6 397.499 300.3 392.799C296.6 390.699 289.9 389.499 287.2 392.599C284.5 395.799 287.5 402.299 292.1 402.799Z" fill="#FFAB91"/>
<path d="M292.1 402.799C302.6 404.099 308.6 397.499 300.3 392.799C296.6 390.699 289.9 389.499 287.2 392.599C284.5 395.799 287.5 402.299 292.1 402.799Z" stroke="#46133C" stroke-width="3" stroke-miterlimit="10" stroke-linecap="round" stroke-linejoin="round"/>
<path d="M312 424.599C312 424.599 306.6 419.399 308.5 412.299C310.4 405.199 312 402.999 312 402.999C312 402.999 300.8 405.099 300.8 400.599C300.8 396.099 303.7 388.899 317.5 390.999" fill="#FFAB91"/>
<path d="M312 424.599C312 424.599 307.8 419.599 308.5 412.299C309.2 405.199 313.2 402.599 313.2 402.599C313.2 402.599 300.4 406.099 299.4 401.699C298.4 397.299 304.1 387.499 319.5 391.599" stroke="#46133C" stroke-width="3" stroke-miterlimit="10" stroke-linecap="round" stroke-linejoin="round"/>
<path d="M427.5 331.5C427.5 331.5 431.7 332.4 434.1 330" stroke="#46133C" stroke-width="3" stroke-miterlimit="10" stroke-linecap="round" stroke-linejoin="round"/>
<path d="M335 457.2C335 457.2 343.8 466.4 347.9 470.5C353.4 469.5 350 472.9 353.4 469.5C356.8 466.1 381.6 445 381.6 445L362.6 430.9C362.6 430.8 335 451.7 335 457.2Z" fill="#FF3B61"/>
<path d="M352.3 466.6C349.4 465.1 339.4 453.3 339.4 453.3C339.4 451.3 343.1 447.2 347.8 442.8C341.2 448.5 335 454.6 335 457.2C335 457.2 343.8 466.4 347.9 470.5C353.4 469.5 350 472.9 353.4 469.5C353.9 469 354.8 468.2 356 467.1C355.7 467 355.2 468 352.3 466.6Z" fill="#EE406D"/>
<path d="M358.7 464.7C367 457.4 381.7 444.9 381.7 444.9L381.6 444.8C374.9 450.6 362.6 461.1 358.7 464.7Z" fill="#EE406D"/>
<path d="M362.6 430.8C362.6 430.8 361.4 431.7 359.6 433.1L378.5 447.2C378.5 447.2 357 465.5 351.3 470.8C351.7 471.2 351.5 471.4 353.4 469.5C356.8 466.1 381.6 445 381.6 445L362.6 430.8Z" fill="white"/>
<path d="M335 457.2C335 457.2 348.4 474.5 353.4 469.5C356.8 466.1 381.6 445 381.6 445L362.6 430.9C362.6 430.8 335 451.7 335 457.2Z" stroke="#46133C" stroke-width="3" stroke-miterlimit="10" stroke-linecap="round" stroke-linejoin="round"/>
<path d="M247 320.5C247 320.5 241.7 330.3 244.4 338.1C247.1 345.8 249.9 349.5 247 355.1" stroke="#46133C" stroke-width="3" stroke-miterlimit="10" stroke-linecap="round" stroke-linejoin="round"/>
</svg>
