<svg width="122" height="122" viewBox="0 0 122 122" fill="none" xmlns="http://www.w3.org/2000/svg">
<path d="M113.08 35.3379C112.433 33.9817 110.779 34.1573 111.488 35.5135C113.735 39.8698 115.365 44.5177 116.331 49.3233C114.678 49.62 111.724 49.9287 109.835 50.1467C108.479 41.2408 104.937 35.6164 100.039 29.9678C98.1142 27.7156 106.457 25.1243 103.067 21.3525C101.578 19.7803 99.9575 18.3382 98.2232 17.0418C96.5704 15.831 94.9236 16.3396 96.2797 17.4596C103.266 23.2293 102.873 22.86 101.589 24.5976C99.876 26.7832 96.8059 28.6116 98.7553 30.8517C112.111 45.7513 107.595 59.1918 109.653 58.9436C110.864 58.7983 110.301 52.9801 110.065 51.739C111.954 51.5029 114.963 51.1335 116.615 50.9156C117.826 57.7569 116.616 60.0878 117.857 60.2392C119.213 60.2392 118.463 52.974 117.918 49.7955C117.022 44.7654 115.392 39.8941 113.08 35.3379Z" fill="#3D9CFB"/>
<path d="M83.2267 112.96C75.9616 116.09 65.524 117.622 57.5565 117.198C56.6121 117.083 56.376 118.615 58.6766 118.79C66.2505 119.299 77.233 117.362 82.6334 114.776C84.2257 114.086 84.1107 112.609 83.2267 112.96Z" fill="#3D9CFB"/>
<path d="M101.692 87.7074C98.1547 93.2134 93.512 97.924 88.0579 101.54C82.6041 105.157 76.4579 107.601 70.0095 108.716C68.5625 108.922 68.7084 110.532 71.1846 110.011C79.1982 108.464 86.6935 104.924 92.98 99.7191C94.2757 101.196 95.722 102.637 97.169 104.03C98.2527 105.065 99.4696 105.325 100.59 104.205C110.349 94.2521 116.331 82.0588 114.811 80.8964C114.339 80.5452 113.994 80.9569 113.867 81.3081C110.855 89.5928 105.945 97.0572 99.5302 103.103C98.9247 103.709 98.9247 103.854 94.0813 98.7323C97.4893 95.7346 100.468 92.2814 102.933 88.4703C107.358 90.0626 109.544 83.2757 105.354 81.8106C101.637 80.5089 99.0398 85.1101 101.692 87.7074ZM102.109 84.5774C102.993 81.744 107.238 83.3665 105.827 86.2302C104.913 88.0767 101.516 86.9991 102.109 84.5774Z" fill="#3D9CFB"/>
<path d="M94.3779 25.2756C95.2618 25.9839 95.8491 24.9244 94.8501 23.98C90.6605 20.0871 82.8989 16.4363 78.3279 15.0075C76.5117 14.2992 75.9668 15.4192 76.9718 15.837C81.7486 17.7804 85.5876 19.3182 88.7117 21.3221C82.9298 32.6134 84.7273 26.5833 93.3123 36.7243C92.7994 37.2279 92.4474 37.8724 92.301 38.5761C92.1545 39.2799 92.2201 40.0113 92.4895 40.6777C91.3088 41.4999 90.0657 42.2286 88.7716 42.8572C87.9422 41.7977 84.4609 36.9604 83.0442 37.6687C81.3309 38.5284 87.7969 40.5929 90.9148 50.9882C90.9327 51.082 90.9768 51.1688 91.0419 51.2386C91.1071 51.3084 91.1906 51.3585 91.2829 51.3829C91.3751 51.4074 91.4724 51.4056 91.5636 51.3775C91.6548 51.3495 91.7363 51.2964 91.7987 51.2243C92.5071 50.6188 91.1515 46.3808 89.6137 44.1468C90.9113 43.5145 92.1653 42.7965 93.3674 41.9975C93.8452 42.4731 94.4511 42.799 95.1112 42.9356C95.7713 43.0721 96.4569 43.0134 97.0841 42.7664C100.644 50.0316 100.002 54.1727 101.322 53.5067C102.854 52.6773 98.786 42.609 98.3743 41.9431C101.087 39.3458 98.2526 34.8595 94.7108 36.0401C85.7263 25.2574 85.2244 32.4802 90.0497 22.2908C91.5799 23.1524 93.0286 24.1515 94.3779 25.2756ZM93.8457 38.4921C94.7962 35.9917 98.568 37.6082 97.7991 39.9088C97 42.4456 92.762 41.3013 93.8457 38.4921Z" fill="#3D9CFB"/>
<path d="M107.595 64.6345C100.511 68.2308 104.647 77.736 111.724 76.2587C120.4 73.6614 116.034 61.2138 107.595 64.6345ZM110.071 65.4579C111.137 65.4579 113.437 69.7685 113.14 70.1802C112.844 70.5919 110.719 71.6575 110.193 71.6575C109.666 71.6575 107.419 70.4769 107.122 70.2408C106.826 69.8836 109.012 65.4579 110.071 65.4579ZM110.252 74.7815C109.484 74.842 106.62 71.4214 107.122 71.3608C107.625 71.3003 109.72 72.5414 110.193 72.4809C110.665 72.4203 112.493 71.4214 113.08 71.3608C113.668 71.3003 111.015 74.7815 110.252 74.7815Z" fill="#3D9CFB"/>
<path d="M83.6376 67.2319C84.2854 70.1198 84.4065 71.9542 84.243 73.5465C87.0219 72.7171 85.6052 65.9302 85.1875 64.6346C83.1229 66.4025 80.4718 67.3469 77.5173 67.8797C84.8975 64.6346 85.1875 61.9768 85.4841 60.7417C85.9564 58.9254 84.2254 52.8166 83.4202 54.082C80.8713 58.0536 70.7062 56.2676 68.4298 59.1555C67.2189 60.9718 67.7208 66.7718 67.7208 66.7718C67.0125 64.7617 64.0889 56.6793 70.2582 56.3281C74.4962 55.3231 80.7073 56.0315 82.7113 51.9569C80.5257 45.3517 79.9995 43.2266 77.5173 42.2216C74.5688 41.0108 71.3231 41.3982 57.4534 43.8745C51.1993 44.8795 40.7496 46.4475 38.9878 49.0085C36.1786 53.083 41.4095 75.6837 46.5375 78.5716C50.3759 80.3879 58.9912 78.5716 68.1392 76.9793C76.143 75.5505 83.5165 74.606 83.6376 67.2319ZM71.0689 59.5551C73.0183 58.0173 75.6102 59.4945 75.3741 60.7356C72.0139 59.6095 69.9246 62.6791 72.7822 64.8647C69.5371 65.2219 69.1496 61.0928 71.0689 59.5551Z" fill="#3D9CFB"/>
<path d="M34.1322 29.5259C34.0111 29.9376 33.8961 30.7065 33.775 31.2938C34.9859 31.5904 35.7245 31.766 36.0151 31.4148C36.3118 31.1787 36.784 29.7015 34.1322 29.5259Z" fill="#3D9CFB"/>
<path d="M5.62913 65.5185C5.07308 58.407 5.79275 51.2533 7.75418 44.3951C8.55445 44.639 9.4154 44.5902 10.183 44.2574C10.9506 43.9247 11.5747 43.3296 11.9437 42.5788C13.7116 43.1055 17.0778 45.0005 17.998 42.046C19.0575 38.6254 20.7104 36.1431 22.896 32.8435C23.7738 31.5661 20.4076 30.6337 16.4058 42.046C15.988 43.2569 13.5724 41.4406 12.3312 41.041C12.3375 40.5226 12.2299 40.0091 12.016 39.5368C11.8021 39.0646 11.4872 38.645 11.0934 38.3078C10.6996 37.9706 10.2365 37.7239 9.73696 37.5853C9.23739 37.4466 8.71347 37.4193 8.2022 37.5053C5.25376 37.8565 4.30929 41.931 6.38591 43.6988C4.46635 50.3827 3.66847 57.3386 4.02474 64.2834C4.15188 66.4024 5.68967 66.5235 5.62913 65.5185ZM7.16086 39.7333C8.63811 37.7838 11.9377 39.9452 10.527 42.0945C8.98926 44.4193 5.58069 42.155 7.16086 39.7333Z" fill="#3D9CFB"/>
<path d="M44.4542 91.4854C40.3554 98.1452 49.8243 105.235 54.9583 98.5024C59.6807 90.8921 48.674 84.6623 44.4542 91.4854ZM49.7638 99.2713C48.9404 99.2713 48.7648 99.0957 48.7648 98.6234C48.7648 96.2017 48.3894 97.7395 50.7688 97.2673C50.7688 99.0836 50.8959 99.2713 49.7759 99.2713H49.7638ZM54.0744 95.1422C54.0744 97.3823 45.6347 97.3823 45.5984 95.1422C45.4228 94.1372 48.9646 93.7255 47.9596 94.5368C47.669 94.6579 46.0706 94.894 46.8395 95.3057C47.7235 96.0746 56.1631 95.6024 51.7375 94.5368C51.5013 94.4823 51.4408 94.1796 51.798 94.1251C52.7122 94.004 54.0139 94.3733 54.0744 95.1422ZM52.7183 91.5097C53.245 91.6307 53.245 91.9274 53.245 92.5147C53.3661 93.7255 52.1249 93.1201 50.7688 93.2836V94.9909C50.1094 95.1429 49.4242 95.1429 48.7648 94.9909V93.2836C47.3481 93.1625 46.0767 93.889 46.107 92.4541C46.107 91.9274 46.2281 91.6368 46.8153 91.5702C47.7053 91.4976 51.9494 91.4854 52.7183 91.5399V91.5097Z" fill="#3D9CFB"/>
<path d="M39.6175 94.4945C33.6601 90.7167 29.1133 85.0498 26.0438 78.6807C27.3454 78.0753 30.1788 76.6707 32.0072 76.0834C32.2978 76.5557 32.655 77.264 32.9517 77.7363C30.1183 80.5091 33.6601 85.2859 37.0807 83.4576C37.9041 84.1054 39.8536 86.7632 40.8586 86.4847C41.8636 86.2062 39.678 84.8924 38.2008 82.5312C38.678 81.9323 38.9463 81.1938 38.9647 80.4281C38.983 79.6625 38.7505 78.9119 38.3025 78.2908C37.8547 77.6696 37.2161 77.2118 36.4841 76.9871C35.752 76.7624 34.9665 76.7831 34.2473 77.0461C32.431 73.5225 32.0012 74.1945 25.396 77.3367C24.769 75.9786 24.2369 74.5788 23.8037 73.1471C23.5676 72.2026 22.0358 72.2026 22.7987 74.8605C25.1598 83.0035 30.8872 90.2626 37.9041 95.0394C39.2058 95.9657 40.6951 95.2029 39.6175 94.4945ZM33.5632 79.5647C34.8043 76.8463 39.012 79.153 36.9839 81.6897C35.549 83.397 32.7156 81.6897 33.539 79.5647H33.5632Z" fill="#3D9CFB"/>
<path d="M40.6221 30.7063C38.2003 21.97 26.0433 25.9234 28.344 33.9514C30.469 41.265 42.2749 38.6677 40.6221 30.7063ZM37.7886 31.1786C37.6444 31.5803 37.4403 31.9579 37.1832 32.2986C38.3093 33.8303 36.7715 36.0765 34.7615 35.5437C34.6404 36.0159 34.6404 36.4882 33.9321 36.3671C33.2237 36.246 33.5204 35.8404 33.6415 35.3681C33.376 35.3232 33.1175 35.2439 32.8726 35.132C32.7515 35.6042 32.7515 36.0765 32.0431 35.9554C31.5164 35.8404 31.6314 35.247 31.807 34.7748C31.5014 34.6876 31.2053 34.5699 30.9231 34.4237C30.8068 34.3951 30.7027 34.3299 30.6264 34.2375C30.5501 34.1452 30.5056 34.0308 30.4995 33.9111C30.4934 33.7915 30.526 33.6731 30.5925 33.5735C30.659 33.4739 30.7558 33.3984 30.8686 33.3581C31.1047 33.3036 31.3408 33.4186 31.807 33.5397C32.1037 32.4136 32.6364 30.2341 32.8726 29.1685C30.9231 28.993 31.7525 27.5763 33.3448 28.0485C33.4598 27.5763 33.5204 27.0435 34.2287 27.104C34.9371 27.1646 34.6404 27.8124 34.5254 28.2241C34.701 28.2846 34.9371 28.3452 35.1308 28.4057C35.2519 27.9335 35.3124 27.2796 36.0147 27.4612C36.717 27.6429 36.3719 28.2846 36.1964 28.7568C37.3164 29.2291 38.0248 30.113 37.7886 31.1786Z" fill="#3D9CFB"/>
<path d="M35.4882 32.7103C34.7798 32.5953 34.2471 32.4742 33.4782 32.3592C33.3026 33.007 33.242 33.57 33.127 33.9515C36.7293 35.235 36.4569 32.9162 35.4882 32.7103Z" fill="#3D9CFB"/>
<path d="M94.0812 65.0038C94.0812 61.9767 92.6954 62.2915 92.6651 63.4721C92.4593 72.1539 89.0325 78.6078 82.8087 84.2443C81.6342 85.3038 83.462 85.7155 84.4065 84.8498C87.316 82.2899 89.6659 79.157 91.309 75.6472C92.9012 76.5312 95.6196 78.0084 97.0303 79.0074C95.2638 82.2945 93.1486 85.3818 90.7211 88.2159C89.7766 89.3965 91.6232 89.4752 92.725 88.2765C95.9762 84.7287 98.2108 80.6057 100.1 76.0589C101.105 73.5827 99.9236 72.2205 99.3908 73.7583C98.9126 75.0856 98.3608 76.3853 97.738 77.6512C96.1457 76.5312 93.6695 75.2295 91.9562 74.2911C92.3678 73.5464 94.1417 68.1157 94.0812 65.0038Z" fill="#3D9CFB"/>
<path d="M21.8536 89.8266C23.8999 89.5965 17.7427 86.6238 14.1828 69.4054C14.0496 68.7637 13.7105 68.5821 13.3594 68.8787C12.2393 69.8232 14.655 77.2579 15.0122 78.4384C13.4744 78.9652 10.1688 80.0307 8.40092 80.618C7.70283 78.4901 7.13071 76.323 6.68756 74.1278C6.45144 72.8322 5.21637 73.4194 5.56752 75.1328C6.51199 80.503 7.69257 84.0447 9.80552 87.762C10.5744 89.0577 11.7368 88.7126 11.2828 87.8165C10.3253 85.9633 9.53514 84.0284 8.92159 82.0347C10.8105 81.3869 14.0556 80.3819 15.5813 79.8551C16.1928 81.2174 19.9646 90.0687 21.8536 89.8266Z" fill="#3D9CFB"/>
<path d="M72.4856 101.16C75.319 100.101 74.4411 98.9928 73.5451 99.3439C71.1322 100.229 68.6112 100.785 66.0499 100.997C65.8198 99.2229 65.3476 95.9233 65.3476 94.1494C66.7038 93.7982 71.4019 93.5016 71.8378 91.9093C72.0134 91.2615 71.0084 91.5521 70.5967 91.6732C63.9369 93.7195 62.8411 89.9416 64.5787 101.057C59.1298 101.772 56.5204 100.452 57.144 101.705C57.4831 102.601 65.2507 103.794 72.4856 101.16Z" fill="#3D9CFB"/>
<path d="M80.3932 88.6518C73.0191 90.9525 75.0836 102.401 83.4203 100.924C92.0174 98.5022 88.2395 86.7024 80.3932 88.6518ZM81.5126 98.9441C81.216 99.4709 78.8185 99.0228 77.7953 96.9947C76.9356 95.2995 77.4441 92.6295 78.4007 92.6901C78.6913 92.6901 78.8124 93.0412 78.6913 93.3379C77.8074 95.2268 78.988 97.8241 81.0525 98.2358C81.3371 98.2661 81.6882 98.6233 81.5126 98.9078V98.9441ZM82.7235 97.2913C81.8396 97.6425 80.9072 96.9947 81.0707 96.4074C81.0848 96.3385 81.1137 96.2735 81.1554 96.2169C81.1971 96.1602 81.2506 96.1133 81.3122 96.0793C81.3738 96.0454 81.442 96.0252 81.5121 96.0202C81.5823 96.0151 81.6527 96.0254 81.7185 96.0502C82.3663 96.1713 83.4318 95.8746 83.0141 95.2813C82.5963 94.688 80.659 96.1107 79.9869 94.7546C79.8143 94.4379 79.767 94.0679 79.8545 93.718C79.942 93.368 80.1578 93.0638 80.4592 92.8656C80.0475 92.1573 80.2836 91.9212 80.5197 91.8001C80.8769 91.6245 81.1675 91.5095 81.5247 92.4539C82.9596 92.0907 83.9041 93.8767 82.1725 93.6285C81.1918 93.4711 80.0899 94.6698 81.8759 94.2339C83.9404 93.7011 85.1815 95.5901 83.6922 96.8312C84.5821 97.7393 83.1654 98.4477 82.7538 97.2671L82.7235 97.2913ZM82.6024 90.7406C83.0322 89.9838 85.2602 90.9161 86.2047 92.6901C87.0281 94.1612 86.8531 96.583 85.8481 96.7585C85.4364 96.8191 85.2003 96.583 85.3759 96.1531C85.551 95.677 85.6267 95.1701 85.5984 94.6637C85.5701 94.1572 85.4383 93.6619 85.2112 93.2083C84.9841 92.7548 84.6668 92.3525 84.2787 92.026C83.8906 91.6995 83.4398 91.4557 82.9542 91.3097C82.6938 91.1886 82.4692 91.0372 82.6327 90.7164L82.6024 90.7406Z" fill="#3D9CFB"/>
<path d="M29.1912 61.093C29.724 61.6984 30.0752 61.093 30.0752 60.6813C30.2907 53.7355 32.7552 47.0473 37.0981 41.6224C37.3342 41.2652 35.857 40.6174 34.3253 42.9786C32.6739 45.5483 31.3269 48.3013 30.3113 51.1821C30.3113 51.1821 25.9461 50.0621 24.4689 49.6443C23.7 49.4082 23.7605 49.4082 23.8635 48.821C24.3902 46.4598 26.4002 42.6214 27.2236 41.2107C28.047 39.8001 26.7513 39.7335 25.5708 41.7374C23.9179 44.5709 21.9382 48.6454 22.5436 50.1166C22.9674 51.055 23.6697 50.9823 29.8633 52.6533C28.8764 55.9226 28.5858 60.4452 29.1912 61.093Z" fill="#3D9CFB"/>
<path d="M35.3124 21.2012C47.3241 11.8958 51.3139 18.3617 46.4644 7.33689C45.9316 6.1563 44.3938 5.85964 45.0477 7.51246C48.8013 17.0782 47.427 10.7818 35.3608 19.3183C33.5385 20.6139 34.5435 21.7945 35.3124 21.2012Z" fill="#3D9CFB"/>
<path d="M16.7197 27.8123C21.0303 22.5027 24.9232 17.9015 30.2329 14.8925C32.0491 17.6048 36.7231 16.3092 36.6686 12.8825C36.5778 7.74842 28.798 8.22065 29.585 13.5303C24.3549 16.5393 19.8607 20.6757 16.4291 25.6388C15.0669 27.5157 16.1324 28.5207 16.7197 27.8123ZM31.6496 11.4113C32.9149 9.8432 35.3669 11.1146 35.2821 12.8825C34.8947 16.6603 29.2218 14.4202 31.6496 11.4113Z" fill="#3D9CFB"/>
<path d="M25.3355 105.822C27.1518 107.118 27.6301 105.774 27.0488 105.35C22.0512 101.643 17.806 97.0181 14.5407 91.7217C14.0079 90.8922 12.7244 91.425 14.3046 94.0223C17.1702 98.6424 20.9186 102.652 25.3355 105.822Z" fill="#3D9CFB"/>
<path d="M19.6745 63.8657C26.9397 58.205 18.058 48.0761 11.586 54.2515C5.97368 59.6096 13.4507 68.4125 19.6745 63.8657ZM19.614 58.0233C20.0257 58.4411 20.3829 58.7922 19.9651 59.2342C19.7896 59.4703 19.3173 59.9425 18.9056 59.5308C18.4939 59.1192 18.1367 58.9981 18.4334 58.5258C18.6695 58.2594 19.0812 57.5511 19.614 58.0233ZM13.7716 56.6672C14.8916 55.7227 15.6605 54.191 16.6656 55.0749C18.4273 56.8367 18.6029 56.9699 18.2578 57.315C17.4889 58.4411 16.9562 57.2605 16.4415 56.7883C15.7332 56.0194 15.0248 58.3805 14.1954 57.7327C13.8927 57.4361 13.2994 57.0789 13.7716 56.6672ZM16.4294 59.5006C16.1328 59.7367 15.8967 59.7367 15.3033 59.0283C15.1278 58.8528 15.0672 58.6167 15.7211 58.0233C16.0117 57.7872 16.1933 57.6116 16.9017 58.4411C17.0833 58.7922 17.1378 58.9133 16.4294 59.5006ZM13.1238 59.5006C12.7666 59.9123 12.3549 59.5006 12.1188 59.2039C11.8827 58.9073 11.7676 58.5985 12.1793 58.205C13.0027 57.3755 13.2388 58.205 13.596 58.4411C13.8927 59.0283 13.5355 59.0889 13.1238 59.5006ZM13.7716 60.7962C13.4205 60.2695 13.8927 60.0878 14.1833 59.7972C15.0127 59.325 15.7211 61.5651 16.4839 60.7417C16.6655 60.6812 17.5495 59.3795 17.9006 59.7972C18.1367 60.1484 18.7846 60.4027 18.3184 60.8567C16.3265 62.3703 16.7321 64.0292 13.7716 60.7962Z" fill="#3D9CFB"/>
<path d="M69.7555 12.7677C65.597 11.9623 61.3486 11.724 57.1262 12.0593C54.7045 12.2349 55.1162 13.6516 56.1212 13.5911C60.9041 13.2399 65.8571 13.7122 70.4039 14.2994C72.1778 14.5355 71.8381 13.1794 69.7555 12.7677Z" fill="#3D9CFB"/>
<path d="M81.4525 31.0577C83.9893 22.6786 71.8074 19.4456 69.5371 26.9892C67.3333 34.3209 78.268 38.789 81.4525 31.0577ZM79.448 32.1777C79.0363 32.3594 77.9162 32.2988 77.559 31.8266C75.2402 28.7328 74.4961 31.7237 73.4306 32.1777C73.1945 32.2383 71.4811 32.2988 71.8928 31.7055C72.6071 30.7604 73.5125 29.9765 74.55 29.4049C75.346 29.189 76.1876 29.21 76.9717 29.4654C77.3834 29.641 80.2713 31.8266 79.4419 32.1777H79.448ZM73.6661 25.9842C75.6337 28.4059 76.2755 27.9639 78.0918 25.8086C78.49 25.6012 78.9416 25.5189 79.3874 25.5725C80.5498 25.5725 77.8502 28.3877 76.4396 28.642C74.5143 29.0234 73.4118 27.7884 72.0133 26.3353C70.8024 25.3001 73.3028 25.409 73.6661 25.9842Z" fill="#3D9CFB"/>
<path d="M84.9343 9.05032C78.5046 5.80522 71.8927 3.85574 63.9313 3.85574C61.6852 3.85574 61.1585 5.2119 62.333 5.33299C70.2873 5.36469 78.1256 7.24237 85.2309 10.8182C86.4721 11.4115 86.8837 9.99479 84.9343 9.05032Z" fill="#3D9CFB"/>
<path d="M63.634 29.9376C64.3423 29.9376 64.8454 29.7075 64.5185 29.1687C63.6406 27.7762 55.1707 28.4603 49.6492 30.5854C48.8803 29.2292 47.4999 26.4927 46.622 25.0396C46.3375 24.5613 46.5009 24.3313 46.7976 24.1557C49.2738 22.6785 53.4573 22.0306 55.7095 21.9096C57.0657 26.5714 64.3853 24.0952 62.3692 19.3728C61.0736 16.1277 55.8185 16.9511 55.5824 20.3778C53.4573 20.6745 46.0226 21.6734 44.9631 23.9801C44.6665 24.6279 45.0782 25.2757 45.3748 25.7964C51.2899 37.1966 46.5615 29.4835 63.634 29.9376ZM58.0277 19.1367C60.74 17.6655 62.569 21.6734 59.9166 22.7995C57.6463 23.7985 55.83 20.4929 58.0277 19.1367Z" fill="#3D9CFB"/>
<path d="M46.7005 115.206C44.079 114.504 39.4899 113.82 39.9137 112.548C40.6918 110.682 41.5772 108.863 42.5654 107.099C45.6893 108.386 48.9346 109.356 52.2523 109.993C52.6035 113.535 57.5619 114.419 58.9786 111.41C61.0431 106.863 54.2563 103.915 52.4884 108.577C40.9853 106.415 35.1913 100.512 34.489 101.917C33.7867 103.321 40.2164 105.985 41.2153 106.579C36.9773 114.364 36.9773 114.588 45.526 116.374C46.9366 116.677 48.1172 115.557 46.7005 115.206ZM54.0746 108.891C55.3158 106.415 58.797 108.286 57.6709 110.78C56.4964 113.02 52.9546 111.307 54.0746 108.891Z" fill="#3D9CFB"/>
<path d="M95.9713 56.9035C90.692 57.8661 89.5895 57.5876 89.0688 58.4413C89.0083 59.4403 91.0728 58.7924 91.66 58.7319C92.7861 58.5563 95.0262 58.2597 96.0857 58.0841C99.2037 57.5634 98.7012 58.1567 102.582 62.3221C103.109 62.7943 103.581 63.7993 104.398 63.8538C105.397 63.6783 104.689 62.7338 104.338 62.4371C103.279 61.2263 101.68 59.41 100.62 58.2476C99.5125 56.6674 97.6907 56.5887 95.9713 56.9035Z" fill="#001434"/>
<path d="M74.2537 58.4956C70.5364 56.9033 67.4124 61.9223 70.3608 64.6346C71.0326 65.2581 71.908 65.6163 72.8241 65.6426C73.7402 65.6689 74.6347 65.3615 75.3411 64.7775C75.8095 64.3913 76.1779 63.8979 76.4151 63.339C77.3233 61.4501 76.0821 59.2645 74.2537 58.4956ZM73.9631 64.223C72.9581 64.6346 71.2448 64.5741 70.5969 62.9818C69.828 60.9173 71.717 58.7923 73.7815 59.6156C75.846 60.439 76.1427 63.2785 73.9934 64.223H73.9631Z" fill="#001434"/>
<path d="M67.055 39.5759C65.6746 32.8617 66.0439 33.4126 68.3567 31.4874C68.7078 31.2512 68.7078 30.5429 68.06 30.7245C66.8794 31.0757 65.2266 32.3773 65.166 33.794C65.051 35.8586 65.4627 37.4266 65.8199 39.6909C60.2681 40.5748 54.7224 41.5072 49.2372 42.6394C48.3351 37.0089 48.2685 36.5851 47.6449 36.0341C46.7005 35.1502 44.4483 34.6356 43.4069 34.3813C42.0447 34.0544 41.5907 34.0241 41.4575 34.4963C41.2335 35.7072 45.9013 35.6285 46.9063 37.2753C47.5117 38.2742 47.5541 40.2237 48.0264 42.936C42.5412 44.0561 39.6472 44.825 37.6433 46.6533C32.9815 50.8914 35.3971 57.987 37.2861 67.3651C34.4739 68.0892 31.6157 68.6212 28.7313 68.9573C27.0785 69.1935 26.3096 68.4306 25.0988 67.4256C22.3259 65.0039 21.4965 64.1745 21.2059 64.3985C20.2917 65.1674 25.1593 69.1935 26.1038 69.7081C26.9691 70.1784 27.9738 70.3244 28.9372 70.1198C31.8375 69.7572 34.7141 69.2255 37.5524 68.5275C41.3303 82.1617 41.6815 83.754 56.0241 81.2415C56.8898 88.0465 56.9746 86.6903 55.1341 88.8517C54.565 89.5177 55.1341 90.2684 56.3752 89.1484C58.1915 87.5137 57.8767 87.5561 57.2047 81.0054C61.7454 80.297 66.2322 79.5887 70.7124 78.7592C70.7729 79.4131 70.8631 79.8793 71.1295 81.296C71.6562 84.1233 71.8379 86.0789 74.5502 88.5006C75.8458 89.6751 76.6753 88.9728 75.9064 88.2039L74.2535 86.5511C72.3646 84.4866 72.074 79.177 71.8924 78.5231C76.6147 77.5786 81.9849 76.9914 84.1099 74.0429C88.7112 73.4375 87.7425 67.7283 86.9433 64.5377C86.8602 64.1735 86.7408 63.8186 86.5867 63.4782C87.7673 61.8254 87.7667 59.6398 87.4701 56.7519C87.24 54.7479 86.9433 49.965 83.9888 49.965C82.5176 37.6082 77.7348 37.6688 67.055 39.5759ZM75.3736 76.6887C69.7128 77.9903 63.9437 78.9288 58.1431 79.7158C53.9656 80.2728 49.5278 81.4292 45.3383 80.9267C40.737 80.2789 38.3758 66.1784 37.4677 62.0433C36.9954 57.6177 34.7554 52.193 37.6433 48.2396C38.1155 50.5402 45.3746 49.2991 49.0314 48.4757C58.3005 46.4051 65.499 44.6978 73.9932 44.5222C78.655 44.8128 78.7155 50.1285 80.0112 53.6037C76.7116 55.1959 72.7466 54.8993 69.217 55.6076C63.6712 56.7882 65.8502 62.8062 66.8552 66.4085C67.7997 69.7686 71.8143 68.8302 74.351 68.7636C76.5201 68.6013 78.66 68.166 80.7201 67.468C82.0218 66.9958 82.9717 67.0624 83.3773 69.1208C84.5398 74.8421 81.1252 75.3628 75.3736 76.6705V76.6887ZM84.6433 72.7958C85.055 70.6102 84.2855 67.8978 83.9888 65.8333C84.5676 65.4163 85.1196 64.9634 85.6417 64.4772C86.1744 66.9352 87.4707 71.482 84.6433 72.7776V72.7958ZM83.8133 51.2001C85.351 50.3162 86.235 55.5047 86.35 56.6853C86.6709 60.1665 88.0755 65.5427 74.3141 67.5467C72.189 67.8373 68.9445 68.3095 68.2967 66.4206C67.1767 63.121 64.9905 57.5147 69.5917 56.6853C73.7268 55.9164 80.1571 56.5097 82.8089 52.6713C82.9905 52.2899 83.4621 51.3575 83.8133 51.182V51.2001ZM83.2078 50.1951C82.2028 50.964 81.8517 52.1991 80.9072 52.968C79.9022 48.6634 79.3095 43.7655 74.1754 43.2811C65.4452 43.3961 58.3071 44.9884 48.3902 47.1135C40.9556 48.7057 38.0979 48.4151 39.5994 46.8168C40.895 45.4062 45.0846 44.7523 48.2752 44.1045C48.3902 44.8128 48.6869 46.5262 49.3347 45.9208C49.7464 45.5696 49.6314 45.1579 49.4558 43.8563C54.941 42.7362 60.4867 41.7918 66.0324 40.9078C66.2685 42.4396 66.3345 42.8452 66.6857 42.9723C67.4546 43.2508 67.2917 41.6162 67.213 40.7323C78.2318 39.0249 80.6892 38.365 83.226 50.1769L83.2078 50.1951Z" fill="#001434"/>
</svg>
